<?xml version="1.0" encoding="UTF-8"?>
<svg id="Layer_1" data-name="Layer 1" xmlns="http://www.w3.org/2000/svg" xmlns:xlink="http://www.w3.org/1999/xlink" viewBox="0 0 1080 3826.5">
  <defs>
    <style>
      .cls-1 {
        fill: url(#linear-gradient);
      }

      .cls-1, .cls-2, .cls-3 {
        stroke-width: 0px;
      }

      .cls-4 {
        opacity: .26;
      }

      .cls-5 {
        opacity: .37;
      }

      .cls-2 {
        fill: #d9d9d9;
      }

      .cls-3 {
        fill: #fff;
      }
    </style>
    <linearGradient id="linear-gradient" x1="539.5" y1="611" x2="539.5" y2="-3" gradientUnits="userSpaceOnUse">
      <stop offset="0" stop-color="#fff"/>
      <stop offset="1" stop-color="#024959"/>
    </linearGradient>
  </defs>
  <rect class="cls-3" x="-14" y="-39" width="1107" height="4000"/>
  <rect class="cls-1" x="-1" y="-3" width="1081" height="614"/>
  <g class="cls-5">
    <g>
      <path class="cls-3" d="M1179.52-30.37c-1.34,17.77-8.5,32.23-22.33,42.37-5.37,3.94-13.25,5.41-20.17,6.11-16.3,1.65-20.82,5.15-25.25,21.03-5.94,21.34-19.59,35.37-41.82,38.18-7.18.91-15.1-3.36-22.56-5.65-3.38-1.04-6.38-3.28-9.72-4.52-12.95-4.81-21.67,1.12-22.41,15.08-1.16,22.12,8.94,30.56,30.03,23.87,19.7-6.25,35.14-.43,48.21,14.34,5.42,6.12,5.1,12.13-.06,18.52-15.58,19.28-40.85,23.29-59.93,15.17-7.03-2.99-12.8-10.25-17.69-16.67-7.65-10.04-13.74-13.6-26.08-10.75-13.17,3.04-26.18,5.07-38.8-1.39-14.94-7.65-26.59-17.59-25.76-36.73.25-5.84-1.67-11.83-2.97-17.66-1.31-5.87-5.96-7.54-11.3-7.84-9.08-.5-23.41,7.94-25.48,16.77-1.17,4.96.1,11.57,2.67,16.08,3.47,6.09,8.69,11.54,14.14,16.09,11.21,9.35,8.63,37.83.16,46.97-1.87,2.02-6.03,2.78-9.1,2.7-25.52-.68-47.39-26.86-46.45-51.29.17-4.47,2.52-9.02,4.5-13.24,7.86-16.73,7.61-21.02-5.12-34.72-13.25-14.25-18.02-30.21-13.98-49.53,1.99-9.53,7.7-14.81,14.84-19.76,4.76-3.3,9.8-6.34,14.05-10.22,6.91-6.31,7.74-15.27.64-21.05-6.15-5.01-13.97-9.16-21.66-10.75-8.41-1.74-13.25,5.57-16.32,12.65-1.96,4.52-2.86,9.5-4.18,14.3-3.95,14.4-20.48,27.61-35.27,28.47-6.88.4-11.56-2.13-14.68-8.39-12.46-24.96,6.03-68.56,37.75-67.46,14.39.5,22.4-7.34,25.89-21.64,4.49-18.43,16.35-29.33,33.45-35.8,9.74-3.68,18.7-3.14,27.72,2.38,5.11,3.13,10.79,5.56,16.5,7.43,7.44,2.44,13.29-.44,16.03-7.75,3.52-9.38,3.76-18.92-1.48-27.9-3.67-6.28-9.86-7.72-16.48-7.16-4.09.35-8.19,1.36-12.14,2.56-16.8,5.09-35.03-.51-45.67-14.23-5.23-6.74-5.11-12.89.37-19.54,15.34-18.6,46.57-23.86,66.4-10.72,3.73,2.47,6.73,6.56,9.09,10.48,7.9,13.17,13.34,15.66,28.71,13.71,9.45-1.2,19.35-3.09,28.51-1.52,21.1,3.62,32.73,17.9,34.58,39.04.46,5.21.72,10.56,2.14,15.54,2.64,9.28,9.68,13.11,18.53,9.48,5.98-2.45,11.65-6.31,16.56-10.57,5.74-4.98,6.3-13.28,1.87-19.59-3.63-5.17-7.85-9.96-12.14-14.61-11.66-12.67-14-30.26-6.48-45.87,2.75-5.72,6.88-7.44,12.6-7.17,25.43,1.18,48.94,29.52,45.02,54.73-.65,4.21-2.83,8.32-4.93,12.13-6.47,11.75-5.85,20.6,3.72,30.03,10.83,10.68,17.71,22.22,17.89,38.39.19,17.45-6.97,28.88-21.56,36.92-3.36,1.85-6.87,3.92-9.34,6.74-2.21,2.52-4.06,6.13-4.36,9.42-.92,10.02,8.96,19.22,22.3,21.58,10.22,1.8,17.15-2.58,20.56-13.16,1.44-4.47,2.69-9,3.88-13.53,3.59-13.68,20.36-27.19,34.52-27.98,7.13-.4,12.64,1.67,14.91,8.94,1.87,5.99,3.32,12.11,4.95,18.18ZM1061.81-22.85c-2.95-5.17-4.52-8.65-6.77-11.63-1.8-2.38-4.19-4.47-6.7-6.13-15.94-10.52-22.16-25.85-23.22-44.3-.89-15.55-8.62-19.95-23.42-15.68-10.44,3.02-21.31,6.14-32,6.19-8.08.04-16.18-4.72-24.28-7.33-14.39-4.64-20.6-.92-23.23,13.92-.48,2.72-.92,5.44-1.36,8.16-2.45,15-10.08,26.61-22.67,35.1-2.96,2-5.74,4.33-8.29,6.83-6.85,6.71-7.37,12.27-1.31,19.52,3.33,3.98,7.31,7.51,11.4,10.74,13.09,10.33,18.8,24.01,19.33,40.34.54,16.4,9.7,22.22,24.73,15.98,11.88-4.94,24.03-8.79,36.98-5.05,6.05,1.75,11.73,4.75,17.64,7.03,13.22,5.09,21.34.53,24.02-13.51.88-4.59,1.1-9.31,2.1-13.87,3.23-14.74,13.35-24.17,24.88-32.83,4.7-3.53,8.06-8.82,12.18-13.48Z"/>
      <path class="cls-3" d="M774.02,66.43c-2.22,7.97-3.55,16.73-7.15,24.41-3.08,6.57-8.41,6.6-11.9.29-3.5-6.33-6.76-13.76-6.9-20.78-.23-11.32,1.7-22.78,3.83-33.97.54-2.87,4.96-6.09,8.16-6.89,1.51-.38,5.48,4.21,6.4,7.16,2.91,9.36,4.91,19,7.57,29.78Z"/>
      <path class="cls-3" d="M961.87,222c-19.67-3.51-35.38-11.22-46.83-26.01-1.89-2.44-2.26-7.63-.93-10.4.85-1.78,6.25-2.42,9.34-1.91,15.79,2.56,29.76,9.31,42,19.63.63.53,1.59.94,1.83,1.61,1.55,4.19,4.33,8.63,3.8,12.6-.28,2.05-6.55,3.29-9.21,4.48Z"/>
    </g>
  </g>
  <g class="cls-4">
    <g>
      <path class="cls-2" d="M1118.6,1307.6c23.28-5.51,44.69-2.25,63.3,11.31,7.23,5.27,12.31,14.75,16.03,23.32,8.75,20.18,15.06,24.55,37.18,23.74,29.73-1.09,53.22,10.66,65.87,37.96,4.09,8.82,1.85,20.69,1.96,31.17.05,4.75-1.6,9.5-1.83,14.28-.88,18.53,10.26,27.27,28.41,22.53,28.78-7.52,35.45-23.88,18.31-48.14-16.01-22.66-14.85-44.79-1.29-67.52,5.63-9.43,13.44-11.46,23.72-7.46,31.01,12.08,46.42,42.79,43.81,70.5-.96,10.21-7.9,20.55-14.13,29.42-9.74,13.87-11.8,23.11-3.13,37.74,9.25,15.61,17.15,31.43,14.02,50.21-3.71,22.22-11.68,41.18-36.5,47.91-7.57,2.05-14.45,6.95-21.39,11-6.98,4.07-7.22,10.7-5.42,17.65,3.06,11.82,19.69,26.71,31.83,25.77,6.83-.53,14.76-4.84,19.48-9.96,6.38-6.92,11.23-15.81,14.83-24.64,7.4-18.15,44.88-26.45,60.03-19.32,3.35,1.57,6.01,6.58,7.15,10.54,9.52,32.92-15.07,71.57-46.71,80.3-5.79,1.6-12.57.45-18.77-.37-24.6-3.25-29.99-1.18-42.33,20.69-12.84,22.75-31.32,35.35-57.67,38.05-13,1.33-22.08-3.83-31.32-10.94-6.16-4.75-12.1-9.95-18.8-13.81-10.89-6.28-22.69-3.69-27.2,7.75-3.9,9.9-6.03,21.6-4.93,32.09,1.2,11.47,12.53,14.68,22.83,15.72,6.58.67,13.33-.21,19.99-.47,20.04-.8,43.66,14.96,50.78,33.53,3.31,8.64,1.99,15.65-4.75,22.2-26.86,26.11-90.17,20.2-101.67-20.83-5.22-18.61-18.52-25.67-38.23-24.31-25.41,1.76-44.18-8.97-59.41-28.22-8.68-10.96-11.64-22.65-8.25-36.43,1.92-7.82,2.71-16.07,2.79-24.14.1-10.51-5.98-16.82-16.44-17.35-13.43-.69-25.74,2.89-35.09,13.25-6.55,7.25-5.86,15.76-2.44,24,2.11,5.09,5.08,9.92,8.22,14.48,13.36,19.43,13.61,45.02.38,64.22-6.5,9.43-14.41,11.78-25.15,7.47-30.04-12.05-49.48-49.87-40.75-80.58,1.64-5.78,5.65-11.28,9.71-15.9,13.63-15.47,14.6-23.44,5.85-42.31-5.38-11.6-11.83-23.5-13.55-35.85-3.96-28.47,9.57-49.16,35.86-60.13,6.48-2.7,13.21-5.22,19.01-9.06,10.79-7.15,12.83-17.72,4.59-27.57-5.57-6.65-12.82-12.33-20.27-16.88-8.71-5.31-19.56-2.65-25.83,5.58-5.13,6.74-9.54,14.1-13.75,21.48-11.47,20.08-33.01,30.23-56.04,26.97-8.44-1.2-12.31-5.78-14.3-13.2-8.85-33.01,17.84-74.63,51.68-79.87,5.65-.88,11.8.23,17.53,1.37,17.66,3.49,28.73-.91,36.9-16.99,9.25-18.2,21.21-31.71,41.83-38.52,22.24-7.34,39.78-2.84,56.02,12.55,3.74,3.54,7.81,7.19,12.43,9.21,4.13,1.8,9.5,2.7,13.82,1.75,13.19-2.91,20.95-19.28,18.52-37.31-1.86-13.81-10.28-20.9-25.2-20.94-6.3-.02-12.6.23-18.89.55-18.96.98-43.08-14.97-49.86-32.77-3.41-8.95-3.01-16.86,5.36-22.71,6.9-4.83,14.15-9.17,21.24-13.73ZM1176.14,1455.13c-5.41,5.87-9.23,9.31-12.13,13.39-2.32,3.27-4.02,7.19-5.11,11.06-6.97,24.67-24.05,38.87-47.23,47.74-19.53,7.47-22.02,19.15-10.52,36.35,8.11,12.13,16.54,24.76,20.95,38.42,3.34,10.32.55,22.63.51,34.05-.08,20.3,7.21,26.73,27.26,24.05,3.67-.49,7.33-1.04,10.99-1.58,20.19-2.97,38.15,2.07,54.13,14.72,3.76,2.97,7.88,5.58,12.12,7.83,11.37,6.03,18.7,4.43,25.51-6.27,3.74-5.88,6.63-12.41,9.1-18.95,7.89-20.95,23.07-33.82,43.74-41.15,20.76-7.36,24.48-21.46,10.37-38.14-11.15-13.19-21.03-27.17-21.51-45.25-.22-8.45,1.3-16.94,1.81-25.42,1.13-18.98-8.01-27.52-27.06-25.23-6.23.75-12.37,2.38-18.61,2.96-20.17,1.87-36.36-7.24-52.13-18.46-6.42-4.57-14.57-6.72-22.2-10.09Z"/>
      <path class="cls-2" d="M1139.51,1877.9c3.03,9.22-2.76,16.98-11.18,13.77-12.88-4.91-25.47-11.57-36.64-19.62-7.86-5.66-14.29-14.23-19.15-22.76-2.78-4.88-1.13-12.28-1.48-18.55,5.18.41,10.84-.39,15.45,1.45,20.79,8.3,37.99,21.33,49.77,40.8,1.14,1.89,2.43,3.7,3.23,4.92Z"/>
      <path class="cls-2" d="M1013.15,1352.4c-12.31,1.72-21.75,3.76-31.23,4.01-4.1.11-10.23-2.48-11.87-5.68-1.51-2.93.41-9.74,3.17-12.41,19.08-18.41,42.38-26.24,68.69-24.27,3.74.28,9.91,4.07,10.14,6.67.33,3.7-2.85,9.16-6.19,11.47-11.12,7.68-22.98,14.29-32.72,20.21Z"/>
      <path class="cls-2" d="M888.92,1659c-3.72-26.28-.08-48.96,12.76-69.49,2.39-3.82,9.04-6.77,13.64-6.66,2.37.06,6.04,7.58,6.56,12.02,2.65,22.55-.08,44.53-11.57,64.47-2.37,4.11-8.24,8.42-12.56,8.49-3.29.05-6.67-6.49-8.84-8.83Z"/>
    </g>
  </g>
  <g class="cls-4">
    <g>
      <path class="cls-2" d="M-221.21,496.19c23.28-5.51,44.69-2.25,63.3,11.31,7.23,5.27,12.31,14.75,16.03,23.32,8.75,20.18,15.06,24.55,37.18,23.74,29.73-1.09,53.22,10.66,65.87,37.96,4.09,8.82,1.85,20.69,1.96,31.17.05,4.75-1.6,9.5-1.83,14.28-.88,18.53,10.26,27.27,28.41,22.53,28.78-7.52,35.45-23.88,18.31-48.14-16.01-22.66-14.85-44.79-1.29-67.52,5.63-9.43,13.44-11.46,23.72-7.46,31.01,12.08,46.42,42.79,43.81,70.5-.96,10.21-7.9,20.55-14.13,29.42-9.74,13.87-11.8,23.11-3.13,37.74,9.25,15.61,17.15,31.43,14.02,50.21-3.71,22.22-11.68,41.18-36.5,47.91-7.57,2.05-14.45,6.95-21.39,11-6.98,4.07-7.22,10.7-5.42,17.65,3.06,11.82,19.69,26.71,31.83,25.77,6.83-.53,14.76-4.84,19.48-9.96,6.38-6.92,11.23-15.81,14.83-24.64,7.4-18.15,44.88-26.45,60.03-19.32,3.35,1.57,6.01,6.58,7.15,10.54,9.52,32.92-15.07,71.57-46.71,80.3-5.79,1.6-12.57.45-18.77-.37-24.6-3.25-29.99-1.18-42.33,20.69-12.84,22.75-31.32,35.35-57.67,38.05-13,1.33-22.08-3.83-31.32-10.94-6.16-4.75-12.1-9.95-18.8-13.81-10.89-6.28-22.69-3.69-27.2,7.75-3.9,9.9-6.03,21.6-4.93,32.09,1.2,11.47,12.53,14.68,22.83,15.72,6.58.67,13.33-.21,19.99-.47,20.04-.8,43.66,14.96,50.78,33.53,3.31,8.64,1.99,15.65-4.75,22.2-26.86,26.11-90.17,20.2-101.67-20.83-5.22-18.61-18.52-25.67-38.23-24.31-25.41,1.76-44.18-8.97-59.41-28.22-8.68-10.96-11.64-22.65-8.25-36.43,1.92-7.82,2.71-16.07,2.79-24.14.1-10.51-5.98-16.82-16.44-17.35-13.43-.69-25.74,2.89-35.09,13.25-6.55,7.25-5.86,15.76-2.44,24,2.11,5.09,5.08,9.92,8.22,14.48,13.36,19.43,13.61,45.02.38,64.22-6.5,9.43-14.41,11.78-25.15,7.47-30.04-12.05-49.48-49.87-40.75-80.58,1.64-5.78,5.65-11.28,9.71-15.9,13.63-15.47,14.6-23.44,5.85-42.31-5.38-11.6-11.83-23.5-13.55-35.85-3.96-28.47,9.57-49.16,35.86-60.13,6.48-2.7,13.21-5.22,19.01-9.06,10.79-7.15,12.83-17.72,4.59-27.57-5.57-6.65-12.82-12.33-20.27-16.88-8.71-5.31-19.56-2.65-25.83,5.58-5.13,6.74-9.54,14.1-13.75,21.48-11.47,20.08-33.01,30.23-56.04,26.97-8.44-1.2-12.31-5.78-14.3-13.2-8.85-33.01,17.84-74.63,51.68-79.87,5.65-.88,11.8.23,17.53,1.37,17.66,3.49,28.73-.91,36.9-16.99,9.25-18.2,21.21-31.71,41.83-38.52,22.24-7.34,39.78-2.84,56.02,12.55,3.74,3.54,7.81,7.19,12.43,9.21,4.13,1.8,9.5,2.7,13.82,1.75,13.19-2.91,20.95-19.28,18.52-37.31-1.86-13.81-10.28-20.9-25.2-20.94-6.3-.02-12.6.23-18.89.55-18.96.98-43.08-14.97-49.86-32.77-3.41-8.95-3.01-16.86,5.36-22.71,6.9-4.83,14.15-9.17,21.24-13.73ZM-163.67,643.72c-5.41,5.87-9.23,9.31-12.13,13.39-2.32,3.27-4.02,7.19-5.11,11.06-6.97,24.67-24.05,38.87-47.23,47.74-19.53,7.47-22.02,19.15-10.52,36.35,8.11,12.13,16.54,24.76,20.95,38.42,3.34,10.32.55,22.63.51,34.05-.08,20.3,7.21,26.73,27.26,24.05,3.67-.49,7.33-1.04,10.99-1.58,20.19-2.97,38.15,2.07,54.13,14.72,3.76,2.97,7.88,5.58,12.12,7.83,11.37,6.03,18.7,4.43,25.51-6.27,3.74-5.88,6.63-12.41,9.1-18.95,7.89-20.95,23.07-33.82,43.74-41.15,20.76-7.36,24.48-21.46,10.37-38.14-11.15-13.19-21.03-27.17-21.51-45.25-.22-8.45,1.3-16.94,1.81-25.42,1.13-18.98-8.01-27.52-27.06-25.23-6.23.75-12.37,2.38-18.61,2.96-20.17,1.87-36.36-7.24-52.13-18.46-6.42-4.57-14.57-6.72-22.2-10.09Z"/>
      <path class="cls-2" d="M67.7,975.55c11.11-.4,22.85-2.27,34.15-.79,9.66,1.27,11.87,8.07,5.21,15.11-6.68,7.06-14.86,14.25-23.77,17.29-14.39,4.9-29.84,7.1-45.02,8.93-3.89.47-9.81-3.86-12.13-7.63-1.1-1.78,3.16-8.73,6.55-11.1,10.79-7.54,22.31-14.02,35.01-21.81Z"/>
      <path class="cls-2" d="M190.26,671.9c3.52,26.6.05,49.84-14.21,70.5-2.35,3.41-8.84,6-12.93,5.43-2.62-.36-5.64-7.01-6.25-11.17-3.15-21.24-.2-41.87,8.01-61.72.42-1.02.56-2.41,1.32-3,4.74-3.69,9.28-9.06,14.57-9.99,2.73-.48,6.87,7.04,9.48,9.96Z"/>
      <path class="cls-2" d="M9.73,486.43c-.89,4.44-.64,9.76-3.11,12.99-1.5,1.96-7.79,2.02-10.95.67-22.88-9.82-43.24-23.06-55-46.07-1.76-3.43-2.49-9.46-.62-12.1,1.89-2.67,7.7-3.86,11.64-3.57,15.51,1.16,52.44,29.41,58.04,48.08Z"/>
    </g>
  </g>
</svg>