<?xml version="1.0" encoding="UTF-8"?>
<svg id="Layer_1" data-name="Layer 1" xmlns="http://www.w3.org/2000/svg" xmlns:xlink="http://www.w3.org/1999/xlink" viewBox="0 0 1280 6080.32">
  <defs>
    <style>
      .cls-1 {
        fill: url(#linear-gradient);
      }

      .cls-1, .cls-2, .cls-3, .cls-4, .cls-5, .cls-6, .cls-7, .cls-8 {
        stroke-width: 0px;
      }

      .cls-9 {
        opacity: .56;
      }

      .cls-2 {
        fill: url(#linear-gradient-4);
      }

      .cls-3 {
        fill: url(#linear-gradient-2);
      }

      .cls-4 {
        fill: url(#linear-gradient-3);
      }

      .cls-5 {
        fill: url(#linear-gradient-8);
      }

      .cls-6 {
        fill: url(#linear-gradient-7);
      }

      .cls-7 {
        fill: url(#linear-gradient-5);
      }

      .cls-8 {
        fill: url(#linear-gradient-6);
      }
    </style>
    <linearGradient id="linear-gradient" x1="1091.33" y1="1852.77" x2="1477.6" y2="1852.77" gradientTransform="translate(361.27 -203.95) rotate(10.56)" gradientUnits="userSpaceOnUse">
      <stop offset="0" stop-color="#f2f2f2"/>
      <stop offset="1" stop-color="#006e8e"/>
    </linearGradient>
    <linearGradient id="linear-gradient-2" x1="1200.81" y1="4249.26" x2="1225.07" y2="4249.26" gradientTransform="translate(-895.7 5852.61) rotate(10.56) scale(1 -1)" xlink:href="#linear-gradient"/>
    <linearGradient id="linear-gradient-3" x1="1355.1" y1="4118.44" x2="1409.09" y2="4118.44" gradientTransform="translate(-895.7 5852.61) rotate(10.56) scale(1 -1)" xlink:href="#linear-gradient"/>
    <linearGradient id="linear-gradient-4" x1="1213" y1="4461.72" x2="1267.01" y2="4461.72" gradientTransform="translate(-895.7 5852.61) rotate(10.56) scale(1 -1)" xlink:href="#linear-gradient"/>
    <linearGradient id="linear-gradient-5" x1="248.05" y1="4938.98" x2="634.33" y2="4938.98" gradientTransform="translate(-2154.59 9139.84) rotate(-149.31)" xlink:href="#linear-gradient"/>
    <linearGradient id="linear-gradient-6" x1="357.54" y1="1163.05" x2="381.8" y2="1163.05" gradientTransform="translate(1110.37 3886.09) rotate(-149.31) scale(1 -1)" xlink:href="#linear-gradient"/>
    <linearGradient id="linear-gradient-7" x1="511.82" y1="1032.23" x2="565.81" y2="1032.23" gradientTransform="translate(1110.37 3886.09) rotate(-149.31) scale(1 -1)" xlink:href="#linear-gradient"/>
    <linearGradient id="linear-gradient-8" x1="369.72" y1="1375.51" x2="423.73" y2="1375.51" gradientTransform="translate(1110.37 3886.09) rotate(-149.31) scale(1 -1)" xlink:href="#linear-gradient"/>
  </defs>
  <g class="cls-9">
    <path class="cls-1" d="M1475.22,1883.74c-4.27,16.08-13.31,28.13-27.73,35.08-5.6,2.7-13.09,2.69-19.56,2.15-15.24-1.27-20,1.15-26.77,14.98-9.1,18.57-24.02,29.1-44.91,27.88-6.75-.39-13.28-5.68-19.74-9.04-2.93-1.53-5.29-4.11-8.15-5.81-11.06-6.63-20.09-2.67-23.14,10-4.85,20.1,2.97,29.58,23.47,27.05,19.15-2.37,32.33,5.62,41.8,21.4,3.92,6.54,2.61,12-3.23,16.99-17.59,15.03-41.48,14.38-57.6,3.67-5.95-3.95-9.99-11.59-13.38-18.33-5.29-10.53-10.29-14.83-22.1-14.33-12.61.54-24.89.18-35.37-7.91-12.4-9.58-21.39-20.69-17.35-38.12,1.24-5.32.49-11.14.29-16.71-.2-5.62-4.18-7.94-9.04-9.13-8.25-2.02-22.83,3.28-26.25,11.03-1.91,4.35-1.89,10.63-.3,15.22,2.14,6.18,6,12.07,10.22,17.18,8.69,10.51,1.46,36.2-7.89,43.14-2.06,1.53-6,1.52-8.81.92-23.29-4.99-38.9-32.75-33.86-55.01.93-4.07,3.85-7.84,6.39-11.38,10.07-14,10.58-18,1.24-32.74-9.73-15.35-11.37-30.8-4.37-47.85,3.46-8.4,9.61-12.27,17-15.59,4.94-2.22,10.08-4.15,14.65-6.98,7.43-4.61,9.71-12.69,4.19-19.22-4.79-5.65-11.26-10.8-18.04-13.57-7.42-3.03-13.12,2.85-17.14,8.82-2.57,3.81-4.25,8.24-6.28,12.41-6.1,12.54-23.51,21.83-37.23,20.1-6.39-.82-10.24-3.93-12.03-10.21-7.17-25.05,17.25-61.89,46.18-55.44,13.11,2.93,21.82-2.91,27.46-15.44,7.28-16.15,20.02-24.11,36.82-27.14,9.56-1.71,17.7.32,25.03,6.92,4.15,3.74,8.96,6.95,13.88,9.64,6.42,3.51,12.27,1.87,16.04-4.38,4.83-8,6.69-16.72,3.42-25.86-2.29-6.39-7.73-8.78-13.9-9.38-3.81-.38-7.74-.15-11.58.28-16.29,1.8-32.06-6.46-39.48-20.88-3.65-7.08-2.48-12.71,3.69-17.87,17.25-14.45,46.82-13.93,62.77,1.52,3,2.91,5.05,7.17,6.54,11.18,5,13.44,9.56,16.65,23.99,17.49,8.88.52,18.29.47,26.42,3.48,18.74,6.93,26.97,22.03,25.05,41.74-.47,4.85-1.14,9.81-.69,14.62.83,8.97,6.65,13.69,15.38,11.86,5.92-1.23,11.77-3.8,17.01-6.87,6.12-3.58,8.05-11.12,5.08-17.65-2.45-5.37-5.51-10.47-8.64-15.49-8.54-13.63-7.68-30.16,1.9-43.2,3.5-4.77,7.59-5.64,12.79-4.42,23.13,5.43,39.87,35.46,31.95,57.92-1.32,3.75-4.02,7.16-6.6,10.3-7.94,9.68-8.88,17.91-1.73,28.19,8.12,11.64,12.46,23.42,9.85,38.29-2.8,16.04-11.34,25.31-26.11,30.2-3.39,1.12-6.98,2.43-9.73,4.59-2.46,1.93-4.77,4.94-5.62,7.9-2.55,9.03,4.93,19.18,16.78,23.62,9.08,3.4,16.18.58,21.11-8.56,2.09-3.85,4-7.8,5.87-11.76,5.63-11.94,23.33-21.48,36.47-19.77,6.6.86,11.32,3.7,12.15,10.75.69,5.82.98,11.68,1.43,17.53l.02-.03ZM1365.92,1870.5c-1.82-5.25-2.66-8.72-4.21-11.83-1.24-2.5-3.08-4.82-5.1-6.76-12.83-12.38-15.91-27.52-13.73-44.64,1.83-14.42-4.5-19.78-18.81-18.39-10.1.98-20.6,2-30.43.22-7.42-1.35-14.05-7.09-21.03-10.88-12.41-6.72-18.75-4.36-23.69,8.81-.9,2.41-1.77,4.83-2.64,7.26-4.82,13.35-13.8,22.69-26.82,28.33-3.06,1.33-6.01,3-8.78,4.84-7.42,4.99-8.86,10-4.54,17.69,2.37,4.22,5.43,8.14,8.63,11.8,10.25,11.71,13.15,25.25,10.84,40.32-2.31,15.14,5.1,22.05,19.96,18.89,11.75-2.5,23.56-3.95,34.8,1.7,5.26,2.64,9.96,6.36,14.99,9.46,11.26,6.93,19.49,4.15,24.35-8.28,1.6-4.07,2.6-8.36,4.31-12.37,5.48-12.98,16.39-19.9,28.44-25.87,4.91-2.44,8.91-6.71,13.48-10.29h-.01Z"/>
    <path class="cls-3" d="M1086.53,1903.21c-3.41,6.93-6.12,14.74-10.74,21.18-3.95,5.51-8.85,4.61-10.97-1.76-2.13-6.41-3.85-13.79-2.78-20.25,1.73-10.43,5.46-20.61,9.32-30.52.99-2.54,5.59-4.74,8.67-4.93,1.46-.09,4.31,4.81,4.65,7.66,1.07,9.09,1.26,18.27,1.86,28.63h-.02Z"/>
    <path class="cls-4" d="M1232.31,2078.12c-17.45-6.58-30.55-16.35-38.53-31.87-1.31-2.56-.77-7.38.92-9.71,1.09-1.49,6.15-1.15,8.9-.16,14.05,5.06,25.72,13.64,35.19,25.21.48.59,1.3,1.13,1.4,1.8.7,4.11,2.5,8.67,1.33,12.21-.61,1.83-6.57,1.9-9.22,2.54h0Z"/>
    <path class="cls-2" d="M1118.9,1709.1c-6.65-1.18-9.51-7.27-4.76-11.38,7.25-6.28,15.45-11.8,24.07-16.01,6.05-2.96,13.42-4.07,20.25-4.24,3.9-.1,7.91,3.34,11.85,5.19-1.95,3.04-3.33,6.78-5.96,8.99-11.92,10.01-25.56,16.27-41.36,17.09-1.54.09-3.06.27-4.08.36Z"/>
  </g>
  <g class="cls-9">
    <path class="cls-7" d="M-181.42,4572.8c9.54-13.63,22.18-21.83,38.11-23.39,6.19-.61,13.21,1.98,19.1,4.71,13.87,6.44,19.17,5.8,30.29-4.85,14.94-14.3,32.57-19.05,51.77-10.72,6.2,2.69,10.52,9.9,15.42,15.28,2.23,2.44,3.56,5.68,5.65,8.26,8.1,10.03,17.94,9.42,25.16-1.42,11.47-17.21,7.39-28.8-12.73-33.47-18.79-4.37-28.42-16.41-31.88-34.48-1.43-7.49,1.68-12.17,8.88-14.84,21.69-8.05,43.9.78,55.34,16.38,4.22,5.76,5.39,14.32,6.25,21.81,1.35,11.71,4.55,17.47,15.82,21.06,12.02,3.83,23.43,8.4,30.48,19.6,8.34,13.27,12.96,26.79,3.17,41.76-2.99,4.56-4.3,10.29-6.02,15.59-1.75,5.34,1.19,8.89,5.34,11.68,7.05,4.73,22.57,4.78,28.44-1.32,3.3-3.43,5.43-9.33,5.52-14.18.12-6.54-1.48-13.4-3.68-19.65-4.54-12.85,11.09-34.49,22.25-37.79,2.46-.73,6.16.64,8.59,2.17,20.15,12.71,25.25,44.14,12.86,63.3-2.27,3.5-6.32,6.04-9.92,8.48-14.27,9.68-16.13,13.25-12.43,30.31,3.85,17.76.07,32.83-12.37,46.43-6.14,6.69-13.24,8.22-21.33,8.78-5.4.38-10.89.43-16.16,1.51-8.57,1.77-13.49,8.57-10.55,16.6,2.55,6.95,6.85,14.01,12.27,18.95,5.93,5.4,13.3,1.84,19.12-2.38,3.73-2.69,6.83-6.27,10.16-9.49,10.04-9.67,29.59-12.41,41.87-6.05,5.72,2.97,8.26,7.21,7.78,13.73-1.89,25.99-37.5,52.17-62.44,36.16-11.3-7.26-21.48-4.78-31.1,5.04-12.4,12.66-27.09,15.75-43.91,12.8-9.57-1.68-16.51-6.39-21.12-15.11-2.61-4.94-6.02-9.61-9.71-13.83-4.82-5.5-10.88-5.98-16.57-1.41-7.29,5.85-12.03,13.39-12.11,23.1-.05,6.79,4.24,10.9,9.82,13.59,3.45,1.67,7.22,2.81,10.97,3.72,15.92,3.92,27.88,17.1,29.88,33.19.99,7.91-2.05,12.78-9.61,15.5-21.17,7.63-48.75-3.04-58.41-23.04-1.82-3.76-2.27-8.47-2.29-12.75-.07-14.34-3.24-18.93-16.51-24.68-8.16-3.55-17.01-6.74-23.61-12.36-15.21-12.95-17.74-29.96-9.15-47.82,2.11-4.4,4.45-8.82,5.68-13.49,2.31-8.7-1.53-15.14-10.36-16.43-5.98-.88-12.36-.48-18.33.6-6.98,1.26-11.39,7.66-10.84,14.83.45,5.88,1.56,11.73,2.78,17.52,3.32,15.74-3.17,30.96-16.65,39.91-4.93,3.27-9.07,2.68-13.53-.25-19.85-13.06-25.22-47.02-10.06-65.38,2.53-3.06,6.24-5.34,9.74-7.4,10.79-6.35,14.51-13.75,11.33-25.87-3.61-13.73-3.64-26.28,3.93-39.34,8.15-14.1,19.36-19.86,34.91-19.37,3.57.11,7.39.12,10.71-.96,2.97-.97,6.18-2.99,8-5.48,5.51-7.6,1.98-19.7-7.62-27.95-7.35-6.32-14.99-6.11-22.77.77-3.28,2.9-6.44,5.95-9.56,9.02-9.4,9.27-29.3,12.13-41.05,6.01-5.9-3.08-9.36-7.37-7.71-14.28,1.36-5.7,3.1-11.3,4.7-16.95l-.03.02ZM-83.35,4622.86c-.1,5.55-.5,9.1-.12,12.56.31,2.78,1.23,5.58,2.46,8.1,7.78,16.04,5.47,31.31-2.47,46.64-6.68,12.91-2.58,20.12,11.33,23.74,9.82,2.56,20.03,5.21,28.65,10.27,6.5,3.83,10.75,11.49,16,17.46,9.33,10.58,16.1,10.55,25.28-.11,1.68-1.95,3.32-3.92,4.98-5.91,9.12-10.88,20.77-16.56,34.93-17.37,3.33-.19,6.68-.74,9.91-1.52,8.69-2.13,11.76-6.34,10.35-15.05-.77-4.77-2.29-9.51-4.04-14.05-5.59-14.53-3.65-28.23,3.71-41.59,7.38-13.42,2.8-22.46-12.24-24.6-11.89-1.69-23.48-4.4-32.09-13.58-4.03-4.29-7.16-9.4-10.82-14.04-8.19-10.39-16.87-10.6-25.72-.61-2.9,3.27-5.32,6.95-8.31,10.13-9.61,10.3-22.24,13.04-35.61,14.5-5.45.6-10.68,3.24-16.2,5.02h.01Z"/>
    <path class="cls-8" d="M190.22,4688.32c5.58-5.34,10.82-11.73,17.37-16.19,5.6-3.81,9.89-1.29,9.69,5.43-.21,6.75-1.13,14.27-4.36,19.97-5.21,9.2-12.22,17.47-19.26,25.45-1.8,2.04-6.88,2.52-9.84,1.64-1.4-.42-2.39-6-1.73-8.79,2.12-8.9,5.11-17.59,8.11-27.52h.01Z"/>
    <path class="cls-6" d="M113.56,4473.91c14.12,12.18,23.05,25.87,25.21,43.19.35,2.85-1.82,7.2-4.21,8.8-1.53,1.03-6.17-1.03-8.41-2.92-11.45-9.59-19.46-21.66-24.36-35.78-.25-.72-.83-1.51-.7-2.17.76-4.1.64-9,2.96-11.92,1.2-1.51,6.82.48,9.53.79h0Z"/>
    <path class="cls-5" d="M93.02,4859.42c5.84,3.39,6.42,10.1.56,12.32-8.96,3.4-18.57,5.76-28.11,6.75-6.7.69-14-.8-20.47-2.98-3.7-1.25-6.28-5.86-9.34-8.95,2.88-2.18,5.46-5.22,8.69-6.39,14.64-5.29,29.6-6.48,44.72-1.81,1.47.45,2.97.8,3.95,1.07Z"/>
  </g>
</svg>