<?xml version="1.0" encoding="UTF-8"?>
<svg id="Layer_1" data-name="Layer 1" xmlns="http://www.w3.org/2000/svg" xmlns:xlink="http://www.w3.org/1999/xlink" viewBox="0 0 299 313">
  <defs>
    <style>
      .cls-1 {
        fill: url(#New_Gradient_Swatch_1);
      }

      .cls-1, .cls-2, .cls-3, .cls-4, .cls-5, .cls-6, .cls-7 {
        stroke-width: 0px;
      }

      .cls-2 {
        fill: url(#New_Gradient_Swatch_1-7);
      }

      .cls-3 {
        fill: url(#New_Gradient_Swatch_1-4);
      }

      .cls-4 {
        fill: url(#New_Gradient_Swatch_1-6);
      }

      .cls-5 {
        fill: url(#New_Gradient_Swatch_1-3);
      }

      .cls-6 {
        fill: url(#New_Gradient_Swatch_1-2);
      }

      .cls-7 {
        fill: url(#New_Gradient_Swatch_1-5);
      }
    </style>
    <linearGradient id="New_Gradient_Swatch_1" data-name="New Gradient Swatch 1" x1="23.15" y1="155.83" x2="276.03" y2="155.83" gradientUnits="userSpaceOnUse">
      <stop offset="0" stop-color="#f2f2f2"/>
      <stop offset="1" stop-color="#006e8e"/>
    </linearGradient>
    <linearGradient id="New_Gradient_Swatch_1-2" data-name="New Gradient Swatch 1" x1="12.35" y1="209.72" x2="28.22" y2="209.72" xlink:href="#New_Gradient_Swatch_1"/>
    <linearGradient id="New_Gradient_Swatch_1-3" data-name="New Gradient Swatch 1" x1="113.34" y1="295.35" x2="148.69" y2="295.35" xlink:href="#New_Gradient_Swatch_1"/>
    <linearGradient id="New_Gradient_Swatch_1-4" data-name="New Gradient Swatch 1" x1="242.96" y1="241.62" x2="277.88" y2="241.62" xlink:href="#New_Gradient_Swatch_1"/>
    <linearGradient id="New_Gradient_Swatch_1-5" data-name="New Gradient Swatch 1" x1="20.32" y1="70.63" x2="55.67" y2="70.63" xlink:href="#New_Gradient_Swatch_1"/>
    <linearGradient id="New_Gradient_Swatch_1-6" data-name="New Gradient Swatch 1" x1="271.16" y1="102.34" x2="287" y2="102.34" xlink:href="#New_Gradient_Swatch_1"/>
    <linearGradient id="New_Gradient_Swatch_1-7" data-name="New Gradient Swatch 1" x1="150.11" y1="16.38" x2="185.04" y2="16.38" xlink:href="#New_Gradient_Swatch_1"/>
  </defs>
  <path class="cls-1" d="M276.03,152.88c-.82,10.86-5.19,19.7-13.64,25.9-3.28,2.41-8.1,3.3-12.33,3.73-9.96,1.01-12.73,3.14-15.43,12.85-3.63,13.04-11.97,21.61-25.56,23.33-4.39.56-9.23-2.06-13.79-3.45-2.07-.63-3.9-2.01-5.94-2.76-7.91-2.94-13.25.69-13.69,9.21-.71,13.52,5.46,18.68,18.35,14.59,12.04-3.82,21.48-.26,29.47,8.76,3.31,3.74,3.12,7.41-.04,11.32-9.52,11.78-24.97,14.23-36.63,9.27-4.3-1.83-7.82-6.26-10.81-10.19-4.67-6.14-8.4-8.31-15.94-6.57-8.05,1.86-16,3.1-23.71-.85-9.13-4.68-16.25-10.75-15.74-22.45.16-3.57-1.02-7.23-1.82-10.79-.8-3.59-3.64-4.61-6.91-4.79-5.55-.31-14.3,4.85-15.57,10.25-.71,3.03.06,7.07,1.63,9.83,2.12,3.72,5.31,7.05,8.64,9.83,6.85,5.72,5.28,23.12.1,28.71-1.14,1.23-3.68,1.7-5.56,1.65-15.59-.42-28.96-16.41-28.39-31.34.11-2.73,1.54-5.51,2.75-8.09,4.8-10.22,4.65-12.85-3.13-21.22-8.1-8.71-11.01-18.46-8.55-30.27,1.22-5.82,4.71-9.05,9.07-12.07,2.91-2.02,5.99-3.88,8.59-6.25,4.23-3.86,4.73-9.33.39-12.87-3.76-3.06-8.54-5.6-13.24-6.57-5.14-1.06-8.1,3.41-9.97,7.73-1.2,2.76-1.75,5.81-2.55,8.74-2.42,8.8-12.51,16.87-21.55,17.4-4.21.24-7.06-1.3-8.97-5.13-7.62-15.26,3.68-41.9,23.07-41.22,8.79.31,13.69-4.49,15.82-13.23,2.75-11.27,9.99-17.92,20.44-21.88,5.95-2.25,11.43-1.92,16.94,1.45,3.12,1.91,6.6,3.4,10.09,4.54,4.55,1.49,8.12-.27,9.8-4.74,2.15-5.73,2.3-11.56-.9-17.05-2.24-3.84-6.03-4.72-10.07-4.37-2.5.21-5,.83-7.42,1.57-10.27,3.11-21.41-.31-27.91-8.7-3.2-4.12-3.12-7.88.23-11.94,9.37-11.37,28.46-14.58,40.58-6.55,2.28,1.51,4.11,4.01,5.55,6.41,4.83,8.05,8.15,9.57,17.54,8.38,5.78-.73,11.83-1.89,17.42-.93,12.89,2.21,20,10.94,21.13,23.86.28,3.18.44,6.45,1.31,9.49,1.61,5.67,5.92,8.01,11.32,5.79,3.66-1.5,7.12-3.86,10.12-6.46,3.51-3.04,3.85-8.12,1.15-11.97-2.22-3.16-4.8-6.08-7.42-8.93-7.13-7.75-8.56-18.49-3.96-28.03,1.68-3.49,4.21-4.54,7.7-4.38,15.54.72,29.91,18.04,27.51,33.44-.4,2.57-1.73,5.09-3.01,7.42-3.95,7.18-3.57,12.59,2.27,18.35,6.62,6.52,10.83,13.58,10.93,23.46.12,10.66-4.26,17.65-13.18,22.57-2.05,1.13-4.2,2.4-5.71,4.12-1.35,1.54-2.48,3.75-2.67,5.76-.56,6.12,5.47,11.75,13.63,13.19,6.25,1.1,10.48-1.57,12.56-8.04.88-2.73,1.64-5.5,2.37-8.27,2.19-8.36,12.44-16.62,21.1-17.1,4.35-.24,7.73,1.02,9.11,5.46,1.14,3.66,2.03,7.4,3.02,11.11ZM204.1,157.47c-1.8-3.16-2.76-5.29-4.13-7.11-1.1-1.46-2.56-2.73-4.09-3.74-9.74-6.43-13.54-15.8-14.19-27.08-.55-9.5-5.27-12.19-14.31-9.58-6.38,1.84-13.02,3.76-19.56,3.79-4.94.02-9.89-2.88-14.84-4.48-8.79-2.84-12.59-.56-14.19,8.51-.29,1.66-.56,3.32-.83,4.99-1.5,9.17-6.16,16.26-13.86,21.45-1.81,1.22-3.51,2.65-5.07,4.17-4.18,4.1-4.5,7.5-.8,11.93,2.03,2.43,4.47,4.59,6.97,6.56,8,6.31,11.49,14.67,11.81,24.65.33,10.02,5.93,13.58,15.11,9.76,7.26-3.02,14.69-5.37,22.6-3.08,3.7,1.07,7.17,2.9,10.78,4.29,8.08,3.11,13.04.33,14.68-8.25.54-2.81.67-5.69,1.29-8.48,1.97-9.01,8.16-14.77,15.2-20.06,2.87-2.16,4.93-5.39,7.44-8.24Z"/>
  <path class="cls-6" d="M28.22,212.03c-1.36,4.87-2.17,10.22-4.37,14.92-1.88,4.02-5.14,4.03-7.27.18-2.14-3.87-4.13-8.41-4.22-12.7-.14-6.92,1.04-13.92,2.34-20.76.33-1.75,3.03-3.72,4.99-4.21.93-.23,3.35,2.58,3.91,4.37,1.78,5.72,3,11.61,4.63,18.2Z"/>
  <path class="cls-5" d="M143.02,307.11c-12.02-2.14-21.62-6.86-28.62-15.89-1.15-1.49-1.38-4.66-.57-6.36.52-1.09,3.82-1.48,5.71-1.17,9.65,1.57,18.19,5.69,25.67,12,.38.32.97.57,1.12.99.94,2.56,2.65,5.28,2.32,7.7-.17,1.25-4,2.01-5.63,2.74Z"/>
  <path class="cls-3" d="M248.39,254.4c-1.8-1-4.14-1.62-5.2-3.14-.64-.92.2-3.66,1.22-4.84,7.42-8.57,15.97-15.57,27.57-17.5,1.73-.29,4.45.22,5.33,1.4.9,1.19.61,3.87-.06,5.54-2.64,6.57-19.99,18.69-28.87,18.54Z"/>
  <path class="cls-7" d="M25.77,83.23c-4.42.04-6.99-3.54-4.43-6.75,3.91-4.91,8.53-9.45,13.57-13.19,3.54-2.63,8.15-4.23,12.52-5.16,2.5-.53,5.49,1.2,8.25,1.92-.89,2.19-1.33,4.76-2.76,6.5-6.47,7.87-14.5,13.54-24.57,15.96-.98.24-1.94.54-2.58.72Z"/>
  <path class="cls-4" d="M271.16,100.95c.96-5.58,1.37-9.95,2.57-14.1.52-1.79,2.49-4.09,4.1-4.37,1.48-.25,4.17,1.52,4.94,3.09,5.35,10.82,5.53,22.01,1.04,33.15-.64,1.58-3.13,3.74-4.29,3.48-1.65-.37-3.58-2.5-4.12-4.27-1.8-5.88-3.03-11.94-4.25-16.98Z"/>
  <path class="cls-2" d="M155.31,4.74c11.91,2.01,21.25,6.72,28.38,15.13,1.33,1.56,1.69,4.86,1.01,6.84-.35,1.02-4.12,1.57-6.12,1.19-10.15-1.96-19.3-6.18-26.37-13.92-1.46-1.6-2.52-4.74-1.95-6.62.43-1.43,3.73-2,5.05-2.61Z"/>
</svg>