<?xml version="1.0" encoding="UTF-8"?>
<svg id="Layer_1" data-name="Layer 1" xmlns="http://www.w3.org/2000/svg" xmlns:xlink="http://www.w3.org/1999/xlink" viewBox="0 0 165 176">
  <defs>
    <style>
      .cls-1 {
        fill: url(#New_Gradient_Swatch_1);
      }

      .cls-1, .cls-2, .cls-3, .cls-4, .cls-5, .cls-6, .cls-7, .cls-8, .cls-9 {
        stroke-width: 0px;
      }

      .cls-2 {
        fill: url(#New_Gradient_Swatch_1-7);
      }

      .cls-3 {
        fill: url(#New_Gradient_Swatch_1-4);
      }

      .cls-4 {
        fill: url(#New_Gradient_Swatch_1-6);
      }

      .cls-5 {
        fill: url(#New_Gradient_Swatch_1-9);
      }

      .cls-6 {
        fill: url(#New_Gradient_Swatch_1-3);
      }

      .cls-7 {
        fill: url(#New_Gradient_Swatch_1-2);
      }

      .cls-8 {
        fill: url(#New_Gradient_Swatch_1-8);
      }

      .cls-9 {
        fill: url(#New_Gradient_Swatch_1-5);
      }
    </style>
    <linearGradient id="New_Gradient_Swatch_1" data-name="New Gradient Swatch 1" x1="13.92" y1="87.91" x2="151.08" y2="87.91" gradientUnits="userSpaceOnUse">
      <stop offset="0" stop-color="#f2f2f2"/>
      <stop offset="1" stop-color="#006e8e"/>
    </linearGradient>
    <linearGradient id="New_Gradient_Swatch_1-2" data-name="New Gradient Swatch 1" x1="8.06" y1="117.14" x2="16.67" y2="117.14" xlink:href="#New_Gradient_Swatch_1"/>
    <linearGradient id="New_Gradient_Swatch_1-3" data-name="New Gradient Swatch 1" x1="62.84" y1="163.59" x2="82.01" y2="163.59" xlink:href="#New_Gradient_Swatch_1"/>
    <linearGradient id="New_Gradient_Swatch_1-4" data-name="New Gradient Swatch 1" x1="133.14" y1="134.44" x2="152.08" y2="134.44" xlink:href="#New_Gradient_Swatch_1"/>
    <linearGradient id="New_Gradient_Swatch_1-5" data-name="New Gradient Swatch 1" x1="12.38" y1="41.69" x2="31.56" y2="41.69" xlink:href="#New_Gradient_Swatch_1"/>
    <linearGradient id="New_Gradient_Swatch_1-6" data-name="New Gradient Swatch 1" x1="148.44" y1="58.9" x2="157.03" y2="58.9" xlink:href="#New_Gradient_Swatch_1"/>
    <linearGradient id="New_Gradient_Swatch_1-7" data-name="New Gradient Swatch 1" x1="82.78" y1="12.27" x2="101.73" y2="12.27" xlink:href="#New_Gradient_Swatch_1"/>
    <linearGradient id="New_Gradient_Swatch_1-8" data-name="New Gradient Swatch 1" x1="-32.28" y1="987.34" x2="-2.4" y2="987.34" gradientTransform="translate(-769.83 -409.46) rotate(-60.76)" xlink:href="#New_Gradient_Swatch_1"/>
    <linearGradient id="New_Gradient_Swatch_1-9" data-name="New Gradient Swatch 1" x1="-22.23" y1="987" x2="-8.01" y2="987" gradientTransform="translate(-769.83 -409.46) rotate(-60.76)" xlink:href="#New_Gradient_Swatch_1"/>
  </defs>
  <g>
    <path class="cls-1" d="M151.08,86.31c-.45,5.89-2.82,10.68-7.4,14.05-1.78,1.31-4.39,1.79-6.69,2.02-5.4.55-6.9,1.71-8.37,6.97-1.97,7.08-6.49,11.72-13.86,12.66-2.38.3-5.01-1.11-7.48-1.87-1.12-.34-2.11-1.09-3.22-1.5-4.29-1.6-7.18.37-7.43,5-.39,7.33,2.96,10.13,9.96,7.91,6.53-2.07,11.65-.14,15.98,4.75,1.8,2.03,1.69,4.02-.02,6.14-5.16,6.39-13.54,7.72-19.87,5.03-2.33-.99-4.24-3.4-5.87-5.53-2.54-3.33-4.55-4.51-8.64-3.56-4.36,1.01-8.68,1.68-12.86-.46-4.95-2.54-8.81-5.83-8.54-12.17.08-1.94-.55-3.92-.99-5.86-.44-1.95-1.98-2.5-3.75-2.6-3.01-.17-7.76,2.63-8.45,5.56-.39,1.65.03,3.84.88,5.33,1.15,2.02,2.88,3.83,4.69,5.33,3.72,3.1,2.86,12.54.05,15.57-.62.67-2,.92-3.02.89-8.46-.23-15.71-8.9-15.4-17,.06-1.48.83-2.99,1.49-4.39,2.61-5.55,2.52-6.97-1.7-11.51-4.39-4.72-5.97-10.02-4.64-16.42.66-3.16,2.55-4.91,4.92-6.55,1.58-1.09,3.25-2.1,4.66-3.39,2.29-2.09,2.57-5.06.21-6.98-2.04-1.66-4.63-3.04-7.18-3.56-2.79-.58-4.39,1.85-5.41,4.19-.65,1.5-.95,3.15-1.39,4.74-1.31,4.77-6.79,9.15-11.69,9.44-2.28.13-3.83-.7-4.87-2.78-4.13-8.28,2-22.73,12.51-22.36,4.77.17,7.43-2.43,8.58-7.17,1.49-6.11,5.42-9.72,11.09-11.87,3.23-1.22,6.2-1.04,9.19.79,1.69,1.04,3.58,1.84,5.47,2.46,2.47.81,4.4-.15,5.31-2.57,1.17-3.11,1.25-6.27-.49-9.25-1.22-2.08-3.27-2.56-5.46-2.37-1.36.11-2.71.45-4.02.85-5.57,1.69-11.61-.17-15.14-4.72-1.73-2.24-1.69-4.27.12-6.48,5.08-6.17,15.44-7.91,22.01-3.55,1.24.82,2.23,2.17,3.01,3.48,2.62,4.36,4.42,5.19,9.52,4.54,3.13-.4,6.41-1.02,9.45-.5,6.99,1.2,10.85,5.93,11.46,12.94.15,1.73.24,3.5.71,5.15.87,3.07,3.21,4.35,6.14,3.14,1.98-.81,3.86-2.09,5.49-3.51,1.9-1.65,2.09-4.4.62-6.49-1.2-1.71-2.6-3.3-4.02-4.84-3.87-4.2-4.64-10.03-2.15-15.2.91-1.9,2.28-2.46,4.18-2.38,8.43.39,16.22,9.78,14.92,18.14-.22,1.39-.94,2.76-1.63,4.02-2.14,3.89-1.94,6.83,1.23,9.95,3.59,3.54,5.87,7.36,5.93,12.73.06,5.78-2.31,9.57-7.15,12.24-1.11.61-2.28,1.3-3.1,2.23-.73.84-1.35,2.03-1.45,3.12-.3,3.32,2.97,6.37,7.39,7.15,3.39.6,5.69-.85,6.81-4.36.48-1.48.89-2.98,1.28-4.49,1.19-4.53,6.75-9.01,11.44-9.28,2.36-.13,4.19.55,4.94,2.96.62,1.99,1.1,4.02,1.64,6.03ZM112.06,88.8c-.98-1.71-1.5-2.87-2.24-3.86-.6-.79-1.39-1.48-2.22-2.03-5.28-3.49-7.35-8.57-7.7-14.69-.3-5.15-2.86-6.61-7.76-5.2-3.46,1-7.06,2.04-10.61,2.05-2.68.01-5.36-1.56-8.05-2.43-4.77-1.54-6.83-.3-7.7,4.61-.16.9-.3,1.8-.45,2.7-.81,4.97-3.34,8.82-7.52,11.63-.98.66-1.9,1.44-2.75,2.26-2.27,2.22-2.44,4.07-.44,6.47,1.1,1.32,2.42,2.49,3.78,3.56,4.34,3.42,6.23,7.96,6.41,13.37.18,5.44,3.22,7.37,8.2,5.3,3.94-1.64,7.97-2.91,12.26-1.67,2.01.58,3.89,1.58,5.85,2.33,4.38,1.69,7.08.18,7.96-4.48.29-1.52.37-3.09.7-4.6,1.07-4.89,4.43-8.01,8.25-10.88,1.56-1.17,2.67-2.92,4.04-4.47Z"/>
    <path class="cls-7" d="M16.67,118.4c-.74,2.64-1.18,5.55-2.37,8.09-1.02,2.18-2.79,2.19-3.95.1-1.16-2.1-2.24-4.56-2.29-6.89-.08-3.75.56-7.55,1.27-11.26.18-.95,1.64-2.02,2.7-2.28.5-.13,1.82,1.4,2.12,2.37.97,3.1,1.63,6.3,2.51,9.87Z"/>
    <path class="cls-6" d="M78.93,169.97c-6.52-1.16-11.73-3.72-15.52-8.62-.63-.81-.75-2.53-.31-3.45.28-.59,2.07-.8,3.1-.63,5.23.85,9.87,3.09,13.92,6.51.21.18.53.31.61.53.51,1.39,1.44,2.86,1.26,4.18-.09.68-2.17,1.09-3.05,1.49Z"/>
    <path class="cls-3" d="M136.09,141.38c-.98-.54-2.25-.88-2.82-1.7-.35-.5.11-1.98.66-2.63,4.02-4.65,8.66-8.45,14.96-9.49.94-.16,2.41.12,2.89.76.49.65.33,2.1-.03,3.01-1.43,3.56-10.84,10.14-15.66,10.06Z"/>
    <path class="cls-9" d="M15.34,48.53c-2.4.02-3.79-1.92-2.4-3.66,2.12-2.66,4.63-5.13,7.36-7.15,1.92-1.42,4.42-2.3,6.79-2.8,1.36-.29,2.98.65,4.48,1.04-.48,1.19-.72,2.58-1.5,3.53-3.51,4.27-7.86,7.34-13.33,8.66-.53.13-1.05.29-1.4.39Z"/>
    <path class="cls-4" d="M148.44,58.14c.52-3.03.74-5.4,1.39-7.65.28-.97,1.35-2.22,2.23-2.37.8-.14,2.26.83,2.68,1.68,2.9,5.87,3,11.94.57,17.98-.35.86-1.7,2.03-2.33,1.89-.9-.2-1.94-1.36-2.24-2.31-.98-3.19-1.64-6.48-2.3-9.21Z"/>
    <path class="cls-2" d="M85.6,5.96c6.46,1.09,11.53,3.65,15.39,8.21.72.85.92,2.63.55,3.71-.19.55-2.23.85-3.32.64-5.5-1.07-10.47-3.35-14.3-7.55-.79-.87-1.36-2.57-1.06-3.59.23-.78,2.03-1.08,2.74-1.42Z"/>
  </g>
  <g id="dgXEtr">
    <g>
      <path class="cls-8" d="M79.31,89.8c1.69-2.75,5.35-2.75,7.12-.16,2.57,3.78,1.02,8.62-3.39,10.62-4.21,1.91-9.31.59-12.39-3.21-5.13-6.31-4.21-15.09,2.12-20.15,5.46-4.37,12.49-5.14,17.94-1.96,5.75,3.36,8.96,10.21,7.75,16.7-.22,1.18-.66,2.33-1.28,3.43.08-.94.19-1.89.24-2.84.36-6.69-3.54-12.91-9.41-15.05-7.48-2.72-17,3.76-17.2,11.71-.1,3.95,2.88,8.19,6.61,9.4,2.88.93,6.8-.7,8.14-3.39.79-1.6.34-4.21-1.02-5.37-1.72-1.47-3.44-.96-5.22.26Z"/>
      <path class="cls-5" d="M93.8,85.58c-7.59-8.3-17.99-5.25-18.79,3.31-1.02-4.19,1.79-8.54,6.45-10.01,3.96-1.25,10.6,2.36,12.33,6.7Z"/>
    </g>
  </g>
</svg>