<?xml version="1.0" encoding="UTF-8"?>
<svg id="Layer_1" data-name="Layer 1" xmlns="http://www.w3.org/2000/svg" xmlns:xlink="http://www.w3.org/1999/xlink" viewBox="0 0 165 176">
  <defs>
    <style>
      .cls-1 {
        fill: url(#New_Gradient_Swatch_1);
        stroke-width: 0px;
      }

      .cls-2 {
        stroke: url(#New_Gradient_Swatch_1-3);
      }

      .cls-2, .cls-3, .cls-4, .cls-5, .cls-6, .cls-7 {
        fill: none;
        stroke-miterlimit: 10;
      }

      .cls-3 {
        stroke: url(#New_Gradient_Swatch_1-2);
      }

      .cls-4 {
        stroke: url(#New_Gradient_Swatch_1-4);
      }

      .cls-5 {
        stroke: url(#New_Gradient_Swatch_1-7);
      }

      .cls-6 {
        stroke: url(#New_Gradient_Swatch_1-6);
      }

      .cls-7 {
        stroke: url(#New_Gradient_Swatch_1-5);
      }
    </style>
    <linearGradient id="New_Gradient_Swatch_1" data-name="New Gradient Swatch 1" x1="13.48" y1="86.58" x2="154.49" y2="86.58" gradientUnits="userSpaceOnUse">
      <stop offset="0" stop-color="#f2f2f2"/>
      <stop offset="1" stop-color="#006e8e"/>
    </linearGradient>
    <linearGradient id="New_Gradient_Swatch_1-2" data-name="New Gradient Swatch 1" x1="6.96" y1="116.63" x2="16.82" y2="116.63" xlink:href="#New_Gradient_Swatch_1"/>
    <linearGradient id="New_Gradient_Swatch_1-3" data-name="New Gradient Swatch 1" x1="63.27" y1="164.39" x2="83.98" y2="164.39" xlink:href="#New_Gradient_Swatch_1"/>
    <linearGradient id="New_Gradient_Swatch_1-4" data-name="New Gradient Swatch 1" x1="135.55" y1="134.42" x2="156.02" y2="134.42" xlink:href="#New_Gradient_Swatch_1"/>
    <linearGradient id="New_Gradient_Swatch_1-5" data-name="New Gradient Swatch 1" x1="11.4" y1="39.07" x2="32.3" y2="39.07" xlink:href="#New_Gradient_Swatch_1"/>
    <linearGradient id="New_Gradient_Swatch_1-6" data-name="New Gradient Swatch 1" x1="151.27" y1="56.75" x2="161.11" y2="56.75" xlink:href="#New_Gradient_Swatch_1"/>
    <linearGradient id="New_Gradient_Swatch_1-7" data-name="New Gradient Swatch 1" x1="83.77" y1="8.81" x2="104.25" y2="8.81" xlink:href="#New_Gradient_Swatch_1"/>
  </defs>
  <path class="cls-1" d="M154.49,84.93c-.46,6.06-2.9,10.98-7.61,14.44-1.83,1.34-4.51,1.84-6.87,2.08-5.56.56-7.1,1.75-8.6,7.17-2.03,7.27-6.67,12.05-14.25,13.01-2.45.31-5.15-1.15-7.69-1.93-1.15-.35-2.17-1.12-3.31-1.54-4.41-1.64-7.39.38-7.64,5.14-.4,7.54,3.05,10.41,10.23,8.13,6.71-2.13,11.98-.14,16.43,4.89,1.85,2.09,1.74,4.13-.02,6.31-5.31,6.57-13.92,7.94-20.42,5.17-2.4-1.02-4.36-3.49-6.03-5.68-2.61-3.42-4.68-4.63-8.89-3.66-4.49,1.04-8.92,1.73-13.22-.47-5.09-2.61-9.06-5.99-8.78-12.52.09-1.99-.57-4.03-1.01-6.02-.45-2-2.03-2.57-3.85-2.67-3.09-.17-7.98,2.71-8.68,5.71-.4,1.69.03,3.94.91,5.48,1.18,2.08,2.96,3.93,4.82,5.48,3.82,3.19,2.94,12.89.05,16.01-.64.69-2.05.95-3.1.92-8.7-.23-16.15-9.15-15.83-17.48.06-1.52.86-3.07,1.53-4.51,2.68-5.7,2.59-7.16-1.75-11.83-4.52-4.86-6.14-10.3-4.77-16.88.68-3.25,2.62-5.05,5.06-6.73,1.62-1.13,3.34-2.16,4.79-3.48,2.36-2.15,2.64-5.2.22-7.17-2.09-1.71-4.76-3.12-7.38-3.66-2.87-.59-4.51,1.9-5.56,4.31-.67,1.54-.98,3.24-1.42,4.87-1.35,4.91-6.98,9.41-12.02,9.7-2.35.14-3.94-.72-5-2.86-4.25-8.51,2.05-23.36,12.86-22.99,4.9.17,7.64-2.5,8.82-7.38,1.53-6.28,5.57-10,11.4-12.2,3.32-1.26,6.37-1.07,9.45.81,1.74,1.07,3.68,1.89,5.62,2.53,2.54.83,4.53-.15,5.46-2.64,1.2-3.2,1.28-6.45-.5-9.51-1.25-2.14-3.36-2.63-5.62-2.44-1.39.12-2.79.47-4.14.87-5.73,1.74-11.94-.17-15.56-4.85-1.78-2.3-1.74-4.39.13-6.66,5.23-6.34,15.87-8.13,22.63-3.65,1.27.84,2.29,2.23,3.1,3.57,2.69,4.49,4.55,5.34,9.78,4.67,3.22-.41,6.59-1.05,9.72-.52,7.19,1.23,11.15,6.1,11.78,13.3.16,1.78.25,3.6.73,5.29.9,3.16,3.3,4.47,6.31,3.23,2.04-.84,3.97-2.15,5.64-3.6,1.95-1.7,2.15-4.53.64-6.68-1.24-1.76-2.68-3.39-4.14-4.98-3.97-4.32-4.77-10.31-2.21-15.63.94-1.95,2.35-2.53,4.29-2.44,8.67.4,16.68,10.06,15.34,18.65-.22,1.43-.96,2.84-1.68,4.13-2.2,4-1.99,7.02,1.27,10.23,3.69,3.64,6.04,7.57,6.1,13.08.06,5.95-2.37,9.84-7.35,12.58-1.14.63-2.34,1.34-3.18,2.3-.75.86-1.38,2.09-1.49,3.21-.31,3.41,3.05,6.55,7.6,7.35,3.48.61,5.85-.88,7-4.48.49-1.52.92-3.07,1.32-4.61,1.22-4.66,6.94-9.27,11.76-9.54,2.43-.14,4.31.57,5.08,3.05.64,2.04,1.13,4.13,1.69,6.19ZM114.38,87.49c-1-1.76-1.54-2.95-2.31-3.96-.61-.81-1.43-1.52-2.28-2.09-5.43-3.59-7.55-8.81-7.91-15.1-.3-5.3-2.94-6.8-7.98-5.34-3.56,1.03-7.26,2.09-10.91,2.11-2.75.01-5.52-1.61-8.27-2.5-4.9-1.58-7.02-.31-7.91,4.74-.16.93-.31,1.85-.46,2.78-.83,5.11-3.44,9.07-7.73,11.96-1.01.68-1.96,1.48-2.83,2.33-2.33,2.29-2.51,4.18-.45,6.65,1.13,1.36,2.49,2.56,3.88,3.66,4.46,3.52,6.41,8.18,6.59,13.75.18,5.59,3.31,7.57,8.43,5.44,4.05-1.68,8.19-3,12.6-1.72,2.06.6,4,1.62,6.01,2.39,4.51,1.73,7.27.18,8.19-4.6.3-1.56.38-3.17.72-4.73,1.1-5.02,4.55-8.24,8.48-11.19,1.6-1.2,2.75-3.01,4.15-4.59Z"/>
  <path class="cls-3" d="M16.31,117.92c-.76,2.72-1.21,5.7-2.44,8.32-1.05,2.24-2.87,2.25-4.06.1-1.19-2.16-2.3-4.69-2.35-7.08-.08-3.86.58-7.76,1.3-11.58.19-.98,1.69-2.07,2.78-2.35.52-.13,1.87,1.44,2.18,2.44.99,3.19,1.67,6.48,2.58,10.15Z"/>
  <path class="cls-2" d="M80.32,170.94c-6.7-1.19-12.06-3.82-15.96-8.86-.64-.83-.77-2.6-.32-3.54.29-.61,2.13-.82,3.18-.65,5.38.87,10.14,3.17,14.31,6.69.21.18.54.32.62.55.53,1.43,1.48,2.94,1.29,4.29-.09.7-2.23,1.12-3.14,1.53Z"/>
  <path class="cls-4" d="M139.08,141.54c-1-.56-2.31-.9-2.9-1.75-.36-.51.11-2.04.68-2.7,4.14-4.78,8.9-8.68,15.38-9.76.97-.16,2.48.12,2.97.78.5.66.34,2.16-.03,3.09-1.47,3.66-11.15,10.42-16.1,10.34Z"/>
  <path class="cls-7" d="M14.94,46.09c-2.46.02-3.9-1.97-2.47-3.77,2.18-2.74,4.76-5.27,7.57-7.35,1.97-1.46,4.54-2.36,6.98-2.88,1.39-.3,3.06.67,4.6,1.07-.5,1.22-.74,2.65-1.54,3.63-3.61,4.39-8.08,7.55-13.7,8.9-.55.13-1.08.3-1.44.4Z"/>
  <path class="cls-6" d="M151.78,55.98c.53-3.11.76-5.55,1.43-7.86.29-1,1.39-2.28,2.29-2.43.82-.14,2.33.85,2.76,1.72,2.98,6.03,3.08,12.27.58,18.48-.36.88-1.75,2.08-2.39,1.94-.92-.2-2-1.39-2.3-2.38-1-3.28-1.69-6.66-2.37-9.47Z"/>
  <path class="cls-5" d="M87.18,2.33c6.64,1.12,11.85,3.75,15.83,8.44.74.87.94,2.71.56,3.81-.2.57-2.3.88-3.41.66-5.66-1.09-10.76-3.45-14.7-7.76-.81-.89-1.4-2.64-1.09-3.69.24-.8,2.08-1.11,2.82-1.46Z"/>
</svg>