<?xml version="1.0" encoding="UTF-8"?>
<svg id="Layer_1" data-name="Layer 1" xmlns="http://www.w3.org/2000/svg" viewBox="0 0 162 164">
  <defs>
    <style>
      .cls-1 {
        stroke: #d9d9d9;
      }

      .cls-1, .cls-2 {
        fill: none;
        stroke-miterlimit: 10;
      }

      .cls-2 {
        stroke: #006e8e;
      }
    </style>
  </defs>
  <circle class="cls-1" cx="80.28" cy="82.96" r="68.01"/>
  <g>
    <path class="cls-2" d="M129.39,80.45c-.32,4.23-2.02,7.67-5.31,10.09-1.28.94-3.15,1.29-4.8,1.45-3.88.39-4.96,1.22-6.01,5.01-1.41,5.08-4.66,8.42-9.96,9.09-1.71.22-3.59-.8-5.37-1.35-.81-.25-1.52-.78-2.31-1.08-3.08-1.15-5.16.27-5.33,3.59-.28,5.27,2.13,7.27,7.15,5.68,4.69-1.49,8.37-.1,11.48,3.41,1.29,1.46,1.21,2.89-.01,4.41-3.71,4.59-9.73,5.54-14.27,3.61-1.67-.71-3.05-2.44-4.21-3.97-1.82-2.39-3.27-3.24-6.21-2.56-3.13.72-6.23,1.21-9.24-.33-3.56-1.82-6.33-4.19-6.13-8.74.06-1.39-.4-2.82-.71-4.2-.31-1.4-1.42-1.8-2.69-1.87-2.16-.12-5.57,1.89-6.07,3.99-.28,1.18.02,2.76.63,3.83.83,1.45,2.07,2.75,3.37,3.83,2.67,2.23,2.06,9.01.04,11.18-.45.48-1.44.66-2.17.64-6.07-.16-11.28-6.39-11.06-12.21.04-1.06.6-2.15,1.07-3.15,1.87-3.98,1.81-5-1.22-8.27-3.15-3.39-4.29-7.19-3.33-11.79.47-2.27,1.83-3.52,3.53-4.7,1.13-.79,2.33-1.51,3.34-2.43,1.65-1.5,1.84-3.63.15-5.01-1.46-1.19-3.33-2.18-5.16-2.56-2-.41-3.15,1.33-3.88,3.01-.47,1.08-.68,2.26-.99,3.4-.94,3.43-4.87,6.57-8.4,6.78-1.64.09-2.75-.51-3.5-2-2.97-5.94,1.44-16.32,8.99-16.06,3.42.12,5.33-1.75,6.16-5.15,1.07-4.39,3.89-6.98,7.96-8.52,2.32-.88,4.45-.75,6.6.57,1.22.75,2.57,1.32,3.93,1.77,1.77.58,3.16-.11,3.82-1.84.84-2.23.9-4.5-.35-6.64-.87-1.5-2.35-1.84-3.92-1.7-.97.08-1.95.32-2.89.61-4,1.21-8.34-.12-10.87-3.39-1.24-1.61-1.22-3.07.09-4.65,3.65-4.43,11.09-5.68,15.81-2.55.89.59,1.6,1.56,2.16,2.5,1.88,3.13,3.18,3.73,6.83,3.26,2.25-.29,4.61-.74,6.79-.36,5.02.86,7.79,4.26,8.23,9.29.11,1.24.17,2.51.51,3.7.63,2.21,2.3,3.12,4.41,2.26,1.42-.58,2.77-1.5,3.94-2.52,1.37-1.19,1.5-3.16.45-4.66-.86-1.23-1.87-2.37-2.89-3.48-2.78-3.02-3.33-7.2-1.54-10.92.66-1.36,1.64-1.77,3-1.71,6.05.28,11.65,7.03,10.72,13.03-.16,1-.67,1.98-1.17,2.89-1.54,2.8-1.39,4.9.89,7.15,2.58,2.54,4.22,5.29,4.26,9.14.05,4.15-1.66,6.87-5.13,8.79-.8.44-1.64.93-2.22,1.61-.53.6-.97,1.46-1.04,2.24-.22,2.39,2.13,4.58,5.31,5.14,2.43.43,4.08-.61,4.89-3.13.34-1.06.64-2.14.92-3.22.85-3.26,4.85-6.47,8.22-6.66,1.7-.09,3.01.4,3.55,2.13.44,1.43.79,2.88,1.18,4.33ZM101.37,82.24c-.7-1.23-1.08-2.06-1.61-2.77-.43-.57-1-1.07-1.59-1.46-3.79-2.5-5.27-6.15-5.53-10.55-.21-3.7-2.05-4.75-5.58-3.73-2.49.72-5.07,1.46-7.62,1.47-1.92,0-3.85-1.12-5.78-1.74-3.43-1.1-4.9-.22-5.53,3.31-.11.65-.22,1.29-.32,1.94-.58,3.57-2.4,6.33-5.4,8.36-.7.48-1.37,1.03-1.97,1.63-1.63,1.6-1.75,2.92-.31,4.65.79.95,1.74,1.79,2.71,2.56,3.12,2.46,4.47,5.72,4.6,9.6.13,3.9,2.31,5.29,5.89,3.8,2.83-1.18,5.72-2.09,8.8-1.2,1.44.42,2.79,1.13,4.2,1.67,3.15,1.21,5.08.13,5.72-3.22.21-1.09.26-2.22.5-3.3.77-3.51,3.18-5.75,5.92-7.82,1.12-.84,1.92-2.1,2.9-3.21Z"/>
    <path class="cls-2" d="M32.86,103.49c-.53,1.9-.84,3.98-1.7,5.81-.73,1.56-2,1.57-2.83.07-.83-1.51-1.61-3.28-1.64-4.95-.05-2.69.4-5.42.91-8.09.13-.68,1.18-1.45,1.94-1.64.36-.09,1.3,1,1.52,1.7.69,2.23,1.17,4.52,1.8,7.09Z"/>
    <path class="cls-2" d="M77.58,140.53c-4.68-.83-8.42-2.67-11.15-6.19-.45-.58-.54-1.82-.22-2.48.2-.42,1.49-.58,2.22-.46,3.76.61,7.09,2.22,10,4.67.15.13.38.22.44.38.37,1,1.03,2.06.9,3-.07.49-1.56.78-2.19,1.07Z"/>
    <path class="cls-2" d="M118.62,120c-.7-.39-1.61-.63-2.03-1.22-.25-.36.08-1.43.48-1.89,2.89-3.34,6.22-6.07,10.74-6.82.67-.11,1.73.09,2.08.55.35.46.24,1.51-.02,2.16-1.03,2.56-7.79,7.28-11.24,7.22Z"/>
    <path class="cls-2" d="M31.91,53.32c-1.72.02-2.72-1.38-1.73-2.63,1.52-1.91,3.32-3.68,5.29-5.14,1.38-1.02,3.17-1.65,4.88-2.01.97-.21,2.14.47,3.21.75-.35.85-.52,1.85-1.08,2.53-2.52,3.07-5.65,5.27-9.57,6.22-.38.09-.76.21-1,.28Z"/>
    <path class="cls-2" d="M127.49,60.22c.37-2.17.53-3.88,1-5.49.2-.7.97-1.59,1.6-1.7.58-.1,1.62.59,1.93,1.2,2.08,4.21,2.15,8.57.41,12.91-.25.62-1.22,1.46-1.67,1.36-.64-.14-1.4-.97-1.61-1.66-.7-2.29-1.18-4.65-1.65-6.62Z"/>
    <path class="cls-2" d="M82.37,22.75c4.64.78,8.28,2.62,11.06,5.89.52.61.66,1.89.39,2.66-.14.4-1.6.61-2.38.46-3.95-.76-7.52-2.41-10.27-5.42-.57-.62-.98-1.85-.76-2.58.17-.56,1.45-.78,1.97-1.02Z"/>
  </g>
</svg>