<?xml version="1.0" encoding="UTF-8"?>
<svg id="Layer_1" data-name="Layer 1" xmlns="http://www.w3.org/2000/svg" xmlns:xlink="http://www.w3.org/1999/xlink" viewBox="0 0 495 241.5">
  <defs>
    <style>
      .cls-1 {
        stroke: #d9d9d9;
      }

      .cls-1, .cls-2 {
        fill: none;
        stroke-miterlimit: 10;
      }

      .cls-3 {
        fill: url(#linear-gradient);
      }

      .cls-3, .cls-4, .cls-5, .cls-6, .cls-7, .cls-8, .cls-9, .cls-10, .cls-11, .cls-12, .cls-13, .cls-14, .cls-15, .cls-16, .cls-17, .cls-18, .cls-19, .cls-20, .cls-21, .cls-22, .cls-23, .cls-24, .cls-25, .cls-26, .cls-27, .cls-28, .cls-29, .cls-30, .cls-31 {
        stroke-width: 0px;
      }

      .cls-4 {
        fill: url(#linear-gradient-28);
      }

      .cls-5 {
        fill: url(#linear-gradient-25);
      }

      .cls-6 {
        fill: url(#linear-gradient-11);
      }

      .cls-7 {
        fill: url(#linear-gradient-12);
      }

      .cls-8 {
        fill: url(#linear-gradient-13);
      }

      .cls-9 {
        fill: url(#linear-gradient-10);
      }

      .cls-10 {
        fill: url(#linear-gradient-17);
      }

      .cls-11 {
        fill: url(#linear-gradient-16);
      }

      .cls-12 {
        fill: url(#linear-gradient-19);
      }

      .cls-13 {
        fill: url(#linear-gradient-15);
      }

      .cls-14 {
        fill: url(#linear-gradient-23);
      }

      .cls-15 {
        fill: url(#linear-gradient-21);
      }

      .cls-16 {
        fill: url(#linear-gradient-18);
      }

      .cls-17 {
        fill: url(#linear-gradient-14);
      }

      .cls-18 {
        fill: url(#linear-gradient-22);
      }

      .cls-19 {
        fill: url(#linear-gradient-20);
      }

      .cls-20 {
        fill: url(#linear-gradient-27);
      }

      .cls-21 {
        fill: url(#linear-gradient-24);
      }

      .cls-22 {
        fill: url(#linear-gradient-26);
      }

      .cls-2 {
        stroke: #006e8e;
      }

      .cls-23 {
        fill: url(#linear-gradient-4);
      }

      .cls-24 {
        fill: url(#linear-gradient-2);
      }

      .cls-25 {
        fill: url(#linear-gradient-3);
      }

      .cls-26 {
        fill: url(#linear-gradient-8);
      }

      .cls-27 {
        fill: url(#linear-gradient-9);
      }

      .cls-28 {
        fill: url(#linear-gradient-7);
      }

      .cls-29 {
        fill: url(#linear-gradient-5);
      }

      .cls-30 {
        fill: url(#linear-gradient-6);
      }

      .cls-31 {
        fill: #006e8e;
      }
    </style>
    <linearGradient id="linear-gradient" x1="349.76" y1="120.23" x2="423.3" y2="120.23" gradientUnits="userSpaceOnUse">
      <stop offset="0" stop-color="#f2f2f2"/>
      <stop offset="1" stop-color="#006e8e"/>
    </linearGradient>
    <linearGradient id="linear-gradient-2" x1="346.62" y1="135.9" x2="351.23" y2="135.9" xlink:href="#linear-gradient"/>
    <linearGradient id="linear-gradient-3" x1="375.99" y1="160.8" x2="386.27" y2="160.8" xlink:href="#linear-gradient"/>
    <linearGradient id="linear-gradient-4" x1="413.68" y1="145.18" x2="423.84" y2="145.18" xlink:href="#linear-gradient"/>
    <linearGradient id="linear-gradient-5" x1="348.94" y1="95.45" x2="359.22" y2="95.45" xlink:href="#linear-gradient"/>
    <linearGradient id="linear-gradient-6" x1="421.88" y1="104.67" x2="426.49" y2="104.67" xlink:href="#linear-gradient"/>
    <linearGradient id="linear-gradient-7" x1="386.68" y1="79.67" x2="396.84" y2="79.67" xlink:href="#linear-gradient"/>
    <linearGradient id="linear-gradient-8" x1="75.34" y1="121.46" x2="148.89" y2="121.46" xlink:href="#linear-gradient"/>
    <linearGradient id="linear-gradient-9" x1="72.2" y1="137.13" x2="76.82" y2="137.13" xlink:href="#linear-gradient"/>
    <linearGradient id="linear-gradient-10" x1="101.57" y1="162.03" x2="111.85" y2="162.03" xlink:href="#linear-gradient"/>
    <linearGradient id="linear-gradient-11" x1="139.27" y1="146.41" x2="149.42" y2="146.41" xlink:href="#linear-gradient"/>
    <linearGradient id="linear-gradient-12" x1="74.52" y1="96.68" x2="84.8" y2="96.68" xlink:href="#linear-gradient"/>
    <linearGradient id="linear-gradient-13" x1="147.47" y1="105.9" x2="152.08" y2="105.9" xlink:href="#linear-gradient"/>
    <linearGradient id="linear-gradient-14" x1="112.27" y1="80.9" x2="122.42" y2="80.9" xlink:href="#linear-gradient"/>
    <linearGradient id="linear-gradient-15" x1="164.12" y1="121.06" x2="252.92" y2="121.06" xlink:href="#linear-gradient"/>
    <linearGradient id="linear-gradient-16" x1="160.33" y1="139.99" x2="165.9" y2="139.99" xlink:href="#linear-gradient"/>
    <linearGradient id="linear-gradient-17" x1="195.79" y1="170.05" x2="208.21" y2="170.05" xlink:href="#linear-gradient"/>
    <linearGradient id="linear-gradient-18" x1="241.31" y1="151.19" x2="253.57" y2="151.19" xlink:href="#linear-gradient"/>
    <linearGradient id="linear-gradient-19" x1="163.13" y1="91.14" x2="175.54" y2="91.14" xlink:href="#linear-gradient"/>
    <linearGradient id="linear-gradient-20" x1="251.21" y1="102.28" x2="256.78" y2="102.28" xlink:href="#linear-gradient"/>
    <linearGradient id="linear-gradient-21" x1="208.7" y1="72.09" x2="220.97" y2="72.09" xlink:href="#linear-gradient"/>
    <linearGradient id="linear-gradient-22" x1="263.9" y1="121.95" x2="337.44" y2="121.95" xlink:href="#linear-gradient"/>
    <linearGradient id="linear-gradient-23" x1="260.75" y1="137.62" x2="265.37" y2="137.62" xlink:href="#linear-gradient"/>
    <linearGradient id="linear-gradient-24" x1="290.13" y1="162.52" x2="300.4" y2="162.52" xlink:href="#linear-gradient"/>
    <linearGradient id="linear-gradient-25" x1="327.82" y1="146.9" x2="337.98" y2="146.9" xlink:href="#linear-gradient"/>
    <linearGradient id="linear-gradient-26" x1="263.07" y1="97.17" x2="273.35" y2="97.17" xlink:href="#linear-gradient"/>
    <linearGradient id="linear-gradient-27" x1="336.02" y1="106.39" x2="340.63" y2="106.39" xlink:href="#linear-gradient"/>
    <linearGradient id="linear-gradient-28" x1="300.82" y1="81.39" x2="310.98" y2="81.39" xlink:href="#linear-gradient"/>
  </defs>
  <circle class="cls-1" cx="383.75" cy="123.82" r="71.25"/>
  <circle class="cls-1" cx="300.53" cy="123.61" r="71.25"/>
  <g>
    <path class="cls-3" d="M423.3,119.37c-.24,3.16-1.51,5.73-3.97,7.53-.95.7-2.35.96-3.59,1.09-2.9.29-3.7.91-4.49,3.74-1.06,3.79-3.48,6.29-7.43,6.79-1.28.16-2.68-.6-4.01-1-.6-.18-1.13-.58-1.73-.8-2.3-.86-3.85.2-3.98,2.68-.21,3.93,1.59,5.43,5.34,4.24,3.5-1.11,6.25-.08,8.57,2.55.96,1.09.91,2.16-.01,3.29-2.77,3.43-7.26,4.14-10.65,2.7-1.25-.53-2.28-1.82-3.14-2.96-1.36-1.79-2.44-2.42-4.63-1.91-2.34.54-4.65.9-6.9-.25-2.65-1.36-4.73-3.13-4.58-6.53.05-1.04-.3-2.1-.53-3.14-.23-1.04-1.06-1.34-2.01-1.39-1.61-.09-4.16,1.41-4.53,2.98-.21.88.02,2.06.47,2.86.62,1.08,1.54,2.05,2.51,2.86,1.99,1.66,1.53,6.72.03,8.35-.33.36-1.07.49-1.62.48-4.54-.12-8.42-4.77-8.26-9.12.03-.79.45-1.6.8-2.35,1.4-2.97,1.35-3.74-.91-6.17-2.35-2.53-3.2-5.37-2.49-8.8.35-1.69,1.37-2.63,2.64-3.51.85-.59,1.74-1.13,2.5-1.82,1.23-1.12,1.38-2.71.11-3.74-1.09-.89-2.48-1.63-3.85-1.91-1.49-.31-2.35.99-2.9,2.25-.35.8-.51,1.69-.74,2.54-.7,2.56-3.64,4.91-6.27,5.06-1.22.07-2.05-.38-2.61-1.49-2.22-4.44,1.07-12.18,6.71-11.99,2.56.09,3.98-1.31,4.6-3.85.8-3.28,2.91-5.21,5.94-6.36,1.73-.65,3.32-.56,4.93.42.91.56,1.92.99,2.93,1.32,1.32.43,2.36-.08,2.85-1.38.63-1.67.67-3.36-.26-4.96-.65-1.12-1.75-1.37-2.93-1.27-.73.06-1.46.24-2.16.46-2.99.9-6.23-.09-8.12-2.53-.93-1.2-.91-2.29.07-3.47,2.73-3.31,8.28-4.24,11.8-1.91.66.44,1.2,1.17,1.62,1.86,1.4,2.34,2.37,2.78,5.1,2.44,1.68-.21,3.44-.55,5.07-.27,3.75.64,5.82,3.18,6.15,6.94.08.93.13,1.88.38,2.76.47,1.65,1.72,2.33,3.29,1.68,1.06-.44,2.07-1.12,2.94-1.88,1.02-.89,1.12-2.36.33-3.48-.64-.92-1.4-1.77-2.16-2.6-2.07-2.25-2.49-5.38-1.15-8.15.49-1.02,1.22-1.32,2.24-1.27,4.52.21,8.7,5.25,8,9.73-.12.75-.5,1.48-.88,2.16-1.15,2.09-1.04,3.66.66,5.34,1.92,1.9,3.15,3.95,3.18,6.82.03,3.1-1.24,5.13-3.83,6.56-.6.33-1.22.7-1.66,1.2-.39.45-.72,1.09-.78,1.67-.16,1.78,1.59,3.42,3.96,3.83,1.82.32,3.05-.46,3.65-2.34.26-.79.48-1.6.69-2.41.64-2.43,3.62-4.83,6.14-4.97,1.27-.07,2.25.3,2.65,1.59.33,1.06.59,2.15.88,3.23ZM402.38,120.71c-.52-.92-.8-1.54-1.2-2.07-.32-.42-.75-.8-1.19-1.09-2.83-1.87-3.94-4.59-4.13-7.87-.16-2.76-1.53-3.55-4.16-2.79-1.86.54-3.79,1.09-5.69,1.1-1.44,0-2.88-.84-4.32-1.3-2.56-.82-3.66-.16-4.13,2.47-.09.48-.16.97-.24,1.45-.44,2.67-1.79,4.73-4.03,6.24-.53.35-1.02.77-1.47,1.21-1.22,1.19-1.31,2.18-.23,3.47.59.71,1.3,1.34,2.03,1.91,2.33,1.84,3.34,4.27,3.44,7.17.1,2.91,1.72,3.95,4.4,2.84,2.11-.88,4.27-1.56,6.57-.9,1.08.31,2.08.84,3.13,1.25,2.35.9,3.79.09,4.27-2.4.16-.82.2-1.66.37-2.47.57-2.62,2.37-4.3,4.42-5.83.83-.63,1.43-1.57,2.16-2.4Z"/>
    <path class="cls-24" d="M351.23,136.57c-.4,1.42-.63,2.97-1.27,4.34-.55,1.17-1.49,1.17-2.12.05-.62-1.13-1.2-2.45-1.23-3.69-.04-2.01.3-4.05.68-6.04.1-.51.88-1.08,1.45-1.22.27-.07.97.75,1.14,1.27.52,1.66.87,3.38,1.35,5.29Z"/>
    <path class="cls-25" d="M384.62,164.22c-3.5-.62-6.29-1.99-8.32-4.62-.34-.43-.4-1.36-.17-1.85.15-.32,1.11-.43,1.66-.34,2.81.46,5.29,1.66,7.46,3.49.11.09.28.17.33.29.27.75.77,1.53.67,2.24-.05.36-1.16.58-1.64.8Z"/>
    <path class="cls-23" d="M415.26,148.89c-.52-.29-1.21-.47-1.51-.91-.19-.27.06-1.06.36-1.41,2.16-2.49,4.64-4.53,8.02-5.09.5-.08,1.29.07,1.55.41.26.35.18,1.13-.02,1.61-.77,1.91-5.81,5.43-8.39,5.39Z"/>
    <path class="cls-29" d="M350.52,99.11c-1.29.01-2.03-1.03-1.29-1.96,1.14-1.43,2.48-2.75,3.95-3.84,1.03-.76,2.37-1.23,3.64-1.5.73-.15,1.6.35,2.4.56-.26.64-.39,1.38-.8,1.89-1.88,2.29-4.22,3.94-7.14,4.64-.28.07-.56.16-.75.21Z"/>
    <path class="cls-30" d="M421.88,104.27c.28-1.62.4-2.89.75-4.1.15-.52.72-1.19,1.19-1.27.43-.07,1.21.44,1.44.9,1.56,3.15,1.61,6.4.3,9.64-.19.46-.91,1.09-1.25,1.01-.48-.11-1.04-.73-1.2-1.24-.52-1.71-.88-3.47-1.24-4.94Z"/>
    <path class="cls-28" d="M388.19,76.29c3.46.59,6.18,1.96,8.25,4.4.39.45.49,1.41.29,1.99-.1.3-1.2.46-1.78.35-2.95-.57-5.61-1.8-7.67-4.05-.42-.46-.73-1.38-.57-1.93.13-.42,1.09-.58,1.47-.76Z"/>
  </g>
  <circle class="cls-1" cx="206.47" cy="123.57" r="71.25"/>
  <circle class="cls-1" cx="111.88" cy="122.14" r="71.25"/>
  <g>
    <path class="cls-26" d="M148.89,120.6c-.24,3.16-1.51,5.73-3.97,7.53-.95.7-2.35.96-3.59,1.09-2.9.29-3.7.91-4.49,3.74-1.06,3.79-3.48,6.29-7.43,6.79-1.28.16-2.68-.6-4.01-1-.6-.18-1.13-.58-1.73-.8-2.3-.86-3.85.2-3.98,2.68-.21,3.93,1.59,5.43,5.34,4.24,3.5-1.11,6.25-.08,8.57,2.55.96,1.09.91,2.16-.01,3.29-2.77,3.43-7.26,4.14-10.65,2.7-1.25-.53-2.28-1.82-3.14-2.96-1.36-1.79-2.44-2.42-4.63-1.91-2.34.54-4.65.9-6.9-.25-2.65-1.36-4.73-3.13-4.58-6.53.05-1.04-.3-2.1-.53-3.14-.23-1.04-1.06-1.34-2.01-1.39-1.61-.09-4.16,1.41-4.53,2.98-.21.88.02,2.06.47,2.86.62,1.08,1.54,2.05,2.51,2.86,1.99,1.66,1.53,6.72.03,8.35-.33.36-1.07.49-1.62.48-4.54-.12-8.42-4.77-8.26-9.12.03-.79.45-1.6.8-2.35,1.4-2.97,1.35-3.74-.91-6.17-2.35-2.53-3.2-5.37-2.49-8.8.35-1.69,1.37-2.63,2.64-3.51.85-.59,1.74-1.13,2.5-1.82,1.23-1.12,1.38-2.71.11-3.74-1.09-.89-2.48-1.63-3.85-1.91-1.49-.31-2.35.99-2.9,2.25-.35.8-.51,1.69-.74,2.54-.7,2.56-3.64,4.91-6.27,5.06-1.22.07-2.05-.38-2.61-1.49-2.22-4.44,1.07-12.18,6.71-11.99,2.56.09,3.98-1.31,4.6-3.85.8-3.28,2.91-5.21,5.94-6.36,1.73-.65,3.32-.56,4.93.42.91.56,1.92.99,2.93,1.32,1.32.43,2.36-.08,2.85-1.38.63-1.67.67-3.36-.26-4.96-.65-1.12-1.75-1.37-2.93-1.27-.73.06-1.46.24-2.16.46-2.99.9-6.23-.09-8.12-2.53-.93-1.2-.91-2.29.07-3.47,2.73-3.31,8.28-4.24,11.8-1.91.66.44,1.2,1.17,1.62,1.86,1.4,2.34,2.37,2.78,5.1,2.44,1.68-.21,3.44-.55,5.07-.27,3.75.64,5.82,3.18,6.15,6.94.08.93.13,1.88.38,2.76.47,1.65,1.72,2.33,3.29,1.68,1.06-.44,2.07-1.12,2.94-1.88,1.02-.89,1.12-2.36.33-3.48-.64-.92-1.4-1.77-2.16-2.6-2.07-2.25-2.49-5.38-1.15-8.15.49-1.02,1.22-1.32,2.24-1.27,4.52.21,8.7,5.25,8,9.73-.12.75-.5,1.48-.88,2.16-1.15,2.09-1.04,3.66.66,5.34,1.92,1.9,3.15,3.95,3.18,6.82.03,3.1-1.24,5.13-3.83,6.56-.6.33-1.22.7-1.66,1.2-.39.45-.72,1.09-.78,1.67-.16,1.78,1.59,3.42,3.96,3.83,1.82.32,3.05-.46,3.65-2.34.26-.79.48-1.6.69-2.41.64-2.43,3.62-4.83,6.14-4.97,1.27-.07,2.25.3,2.65,1.59.33,1.06.59,2.15.88,3.23ZM127.97,121.94c-.52-.92-.8-1.54-1.2-2.07-.32-.42-.75-.8-1.19-1.09-2.83-1.87-3.94-4.59-4.13-7.87-.16-2.76-1.53-3.55-4.16-2.79-1.86.54-3.79,1.09-5.69,1.1-1.44,0-2.88-.84-4.32-1.3-2.56-.82-3.66-.16-4.13,2.47-.09.48-.16.97-.24,1.45-.44,2.67-1.79,4.73-4.03,6.24-.53.35-1.02.77-1.47,1.21-1.22,1.19-1.31,2.18-.23,3.47.59.71,1.3,1.34,2.03,1.91,2.33,1.84,3.34,4.27,3.44,7.17.1,2.91,1.72,3.95,4.4,2.84,2.11-.88,4.27-1.56,6.57-.9,1.08.31,2.08.84,3.13,1.25,2.35.9,3.79.09,4.27-2.4.16-.82.2-1.66.37-2.47.57-2.62,2.37-4.3,4.42-5.83.83-.63,1.43-1.57,2.16-2.4Z"/>
    <path class="cls-27" d="M76.82,137.8c-.4,1.42-.63,2.97-1.27,4.34-.55,1.17-1.49,1.17-2.12.05-.62-1.13-1.2-2.45-1.23-3.69-.04-2.01.3-4.05.68-6.04.1-.51.88-1.08,1.45-1.22.27-.07.97.75,1.14,1.27.52,1.66.87,3.38,1.35,5.29Z"/>
    <path class="cls-9" d="M110.2,165.45c-3.5-.62-6.29-1.99-8.32-4.62-.34-.43-.4-1.36-.17-1.85.15-.32,1.11-.43,1.66-.34,2.81.46,5.29,1.66,7.46,3.49.11.09.28.17.33.29.27.75.77,1.53.67,2.24-.05.36-1.16.58-1.64.8Z"/>
    <path class="cls-6" d="M140.85,150.12c-.52-.29-1.21-.47-1.51-.91-.19-.27.06-1.06.36-1.41,2.16-2.49,4.64-4.53,8.02-5.09.5-.08,1.29.07,1.55.41.26.35.18,1.13-.02,1.61-.77,1.91-5.81,5.43-8.39,5.39Z"/>
    <path class="cls-7" d="M76.11,100.34c-1.29.01-2.03-1.03-1.29-1.96,1.14-1.43,2.48-2.75,3.95-3.84,1.03-.76,2.37-1.23,3.64-1.5.73-.15,1.6.35,2.4.56-.26.64-.39,1.38-.8,1.89-1.88,2.29-4.22,3.94-7.14,4.64-.28.07-.56.16-.75.21Z"/>
    <path class="cls-8" d="M147.47,105.5c.28-1.62.4-2.89.75-4.1.15-.52.72-1.19,1.19-1.27.43-.07,1.21.44,1.44.9,1.56,3.15,1.61,6.4.3,9.64-.19.46-.91,1.09-1.25,1.01-.48-.11-1.04-.73-1.2-1.24-.52-1.71-.88-3.47-1.24-4.94Z"/>
    <path class="cls-17" d="M113.78,77.52c3.46.59,6.18,1.96,8.25,4.4.39.45.49,1.41.29,1.99-.1.3-1.2.46-1.78.35-2.95-.57-5.61-1.8-7.67-4.05-.42-.46-.73-1.38-.57-1.93.13-.42,1.09-.58,1.47-.76Z"/>
  </g>
  <g>
    <path class="cls-13" d="M252.92,120.03c-.29,3.81-1.82,6.92-4.79,9.09-1.15.85-2.84,1.16-4.33,1.31-3.5.35-4.47,1.1-5.42,4.51-1.28,4.58-4.2,7.59-8.97,8.19-1.54.19-3.24-.72-4.84-1.21-.73-.22-1.37-.7-2.09-.97-2.78-1.03-4.65.24-4.81,3.24-.25,4.75,1.92,6.56,6.45,5.12,4.23-1.34,7.54-.09,10.35,3.08,1.16,1.31,1.09,2.6-.01,3.97-3.34,4.14-8.77,5-12.86,3.26-1.51-.64-2.75-2.2-3.8-3.58-1.64-2.16-2.95-2.92-5.6-2.31-2.83.65-5.62,1.09-8.33-.3-3.21-1.64-5.71-3.77-5.53-7.88.05-1.25-.36-2.54-.64-3.79-.28-1.26-1.28-1.62-2.43-1.68-1.95-.11-5.02,1.7-5.47,3.6-.25,1.07.02,2.48.57,3.45.74,1.31,1.86,2.48,3.03,3.45,2.41,2.01,1.85,8.12.03,10.08-.4.43-1.29.6-1.95.58-5.48-.15-10.17-5.76-9.97-11.01.04-.96.54-1.94.97-2.84,1.69-3.59,1.63-4.51-1.1-7.45-2.84-3.06-3.87-6.48-3-10.63.43-2.04,1.65-3.18,3.18-4.24,1.02-.71,2.1-1.36,3.02-2.19,1.48-1.35,1.66-3.28.14-4.52-1.32-1.07-3-1.97-4.65-2.31-1.81-.37-2.84,1.2-3.5,2.72-.42.97-.61,2.04-.9,3.07-.85,3.09-4.39,5.93-7.57,6.11-1.48.09-2.48-.46-3.15-1.8-2.67-5.36,1.29-14.71,8.1-14.48,3.09.11,4.81-1.58,5.56-4.64.96-3.96,3.51-6.29,7.18-7.68,2.09-.79,4.01-.67,5.95.51,1.1.67,2.32,1.19,3.54,1.6,1.6.52,2.85-.09,3.44-1.66.76-2.01.81-4.06-.32-5.99-.79-1.35-2.12-1.66-3.54-1.54-.88.07-1.76.29-2.6.55-3.61,1.09-7.52-.11-9.8-3.05-1.12-1.45-1.1-2.77.08-4.19,3.29-3.99,9.99-5.12,14.25-2.3.8.53,1.44,1.41,1.95,2.25,1.7,2.83,2.86,3.36,6.16,2.94,2.03-.26,4.15-.66,6.12-.33,4.53.78,7.02,3.84,7.42,8.38.1,1.12.15,2.27.46,3.33.57,1.99,2.08,2.81,3.98,2.03,1.28-.53,2.5-1.35,3.55-2.27,1.23-1.07,1.35-2.85.4-4.2-.78-1.11-1.69-2.14-2.61-3.14-2.5-2.72-3-6.49-1.39-9.84.59-1.23,1.48-1.6,2.7-1.54,5.46.25,10.5,6.33,9.66,11.74-.14.9-.61,1.79-1.06,2.6-1.39,2.52-1.25,4.42.8,6.44,2.32,2.29,3.8,4.77,3.84,8.24.04,3.74-1.5,6.2-4.63,7.92-.72.4-1.47.84-2,1.45-.47.54-.87,1.32-.94,2.02-.2,2.15,1.92,4.13,4.79,4.63,2.19.39,3.68-.55,4.41-2.82.31-.96.58-1.93.83-2.9.77-2.94,4.37-5.84,7.41-6.01,1.53-.09,2.71.36,3.2,1.92.4,1.29.71,2.6,1.06,3.9ZM227.66,121.64c-.63-1.11-.97-1.86-1.45-2.5-.39-.51-.9-.96-1.44-1.32-3.42-2.26-4.76-5.55-4.98-9.51-.19-3.34-1.85-4.28-5.03-3.36-2.24.65-4.57,1.32-6.87,1.33-1.73,0-3.47-1.01-5.21-1.57-3.09-1-4.42-.2-4.98,2.99-.1.58-.2,1.17-.29,1.75-.53,3.22-2.16,5.71-4.87,7.53-.63.43-1.23.93-1.78,1.47-1.47,1.44-1.58,2.63-.28,4.19.71.85,1.57,1.61,2.45,2.3,2.81,2.22,4.03,5.15,4.15,8.66.12,3.52,2.08,4.77,5.31,3.43,2.55-1.06,5.16-1.89,7.94-1.08,1.3.38,2.52,1.02,3.79,1.51,2.84,1.09,4.58.11,5.16-2.9.19-.99.24-2,.45-2.98.69-3.16,2.87-5.19,5.34-7.05,1.01-.76,1.73-1.89,2.61-2.89Z"/>
    <path class="cls-11" d="M165.9,140.8c-.48,1.71-.76,3.59-1.53,5.24-.66,1.41-1.8,1.42-2.55.06-.75-1.36-1.45-2.95-1.48-4.46-.05-2.43.37-4.89.82-7.29.12-.62,1.06-1.31,1.75-1.48.32-.08,1.18.9,1.37,1.54.63,2.01,1.05,4.08,1.63,6.39Z"/>
    <path class="cls-10" d="M206.21,174.18c-4.22-.75-7.59-2.41-10.05-5.58-.4-.52-.48-1.64-.2-2.23.18-.38,1.34-.52,2.01-.41,3.39.55,6.39,2,9.01,4.21.14.11.34.2.39.35.33.9.93,1.85.81,2.7-.06.44-1.41.7-1.98.96Z"/>
    <path class="cls-16" d="M243.22,155.68c-.63-.35-1.46-.57-1.83-1.1-.23-.32.07-1.28.43-1.7,2.6-3.01,5.61-5.47,9.68-6.14.61-.1,1.56.08,1.87.49.32.42.21,1.36-.02,1.95-.93,2.31-7.02,6.56-10.14,6.51Z"/>
    <path class="cls-12" d="M165.04,95.57c-1.55.01-2.45-1.24-1.56-2.37,1.37-1.72,3-3.32,4.76-4.63,1.24-.92,2.86-1.49,4.4-1.81.88-.19,1.93.42,2.9.67-.31.77-.47,1.67-.97,2.28-2.27,2.77-5.09,4.75-8.63,5.6-.34.08-.68.19-.91.25Z"/>
    <path class="cls-19" d="M251.21,101.79c.34-1.96.48-3.5.9-4.95.18-.63.87-1.44,1.44-1.53.52-.09,1.46.54,1.74,1.08,1.88,3.8,1.94,7.73.37,11.64-.22.56-1.1,1.31-1.51,1.22-.58-.13-1.26-.88-1.45-1.5-.63-2.07-1.06-4.19-1.49-5.96Z"/>
    <path class="cls-15" d="M210.53,68.01c4.18.71,7.46,2.36,9.97,5.31.47.55.59,1.71.35,2.4-.12.36-1.45.55-2.15.42-3.56-.69-6.78-2.17-9.26-4.89-.51-.56-.88-1.66-.68-2.32.15-.5,1.31-.7,1.77-.92Z"/>
  </g>
  <g>
    <path class="cls-18" d="M337.44,121.09c-.24,3.16-1.51,5.73-3.97,7.53-.95.7-2.35.96-3.59,1.09-2.9.29-3.7.91-4.49,3.74-1.06,3.79-3.48,6.29-7.43,6.79-1.28.16-2.68-.6-4.01-1-.6-.18-1.13-.58-1.73-.8-2.3-.86-3.85.2-3.98,2.68-.21,3.93,1.59,5.43,5.34,4.24,3.5-1.11,6.25-.08,8.57,2.55.96,1.09.91,2.16-.01,3.29-2.77,3.43-7.26,4.14-10.65,2.7-1.25-.53-2.28-1.82-3.14-2.96-1.36-1.79-2.44-2.42-4.63-1.91-2.34.54-4.65.9-6.9-.25-2.65-1.36-4.73-3.13-4.58-6.53.05-1.04-.3-2.1-.53-3.14-.23-1.04-1.06-1.34-2.01-1.39-1.61-.09-4.16,1.41-4.53,2.98-.21.88.02,2.06.47,2.86.62,1.08,1.54,2.05,2.51,2.86,1.99,1.66,1.53,6.72.03,8.35-.33.36-1.07.49-1.62.48-4.54-.12-8.42-4.77-8.26-9.12.03-.79.45-1.6.8-2.35,1.4-2.97,1.35-3.74-.91-6.17-2.35-2.53-3.2-5.37-2.49-8.8.35-1.69,1.37-2.63,2.64-3.51.85-.59,1.74-1.13,2.5-1.82,1.23-1.12,1.38-2.71.11-3.74-1.09-.89-2.48-1.63-3.85-1.91-1.49-.31-2.35.99-2.9,2.25-.35.8-.51,1.69-.74,2.54-.7,2.56-3.64,4.91-6.27,5.06-1.22.07-2.05-.38-2.61-1.49-2.22-4.44,1.07-12.18,6.71-11.99,2.56.09,3.98-1.31,4.6-3.85.8-3.28,2.91-5.21,5.94-6.36,1.73-.65,3.32-.56,4.93.42.91.56,1.92.99,2.93,1.32,1.32.43,2.36-.08,2.85-1.38.63-1.67.67-3.36-.26-4.96-.65-1.12-1.75-1.37-2.93-1.27-.73.06-1.46.24-2.16.46-2.99.9-6.23-.09-8.12-2.53-.93-1.2-.91-2.29.07-3.47,2.73-3.31,8.28-4.24,11.8-1.91.66.44,1.2,1.17,1.62,1.86,1.4,2.34,2.37,2.78,5.1,2.44,1.68-.21,3.44-.55,5.07-.27,3.75.64,5.82,3.18,6.15,6.94.08.93.13,1.88.38,2.76.47,1.65,1.72,2.33,3.29,1.68,1.06-.44,2.07-1.12,2.94-1.88,1.02-.89,1.12-2.36.33-3.48-.64-.92-1.4-1.77-2.16-2.6-2.07-2.25-2.49-5.38-1.15-8.15.49-1.02,1.22-1.32,2.24-1.27,4.52.21,8.7,5.25,8,9.73-.12.75-.5,1.48-.88,2.16-1.15,2.09-1.04,3.66.66,5.34,1.92,1.9,3.15,3.95,3.18,6.82.03,3.1-1.24,5.13-3.83,6.56-.6.33-1.22.7-1.66,1.2-.39.45-.72,1.09-.78,1.67-.16,1.78,1.59,3.42,3.96,3.83,1.82.32,3.05-.46,3.65-2.34.26-.79.48-1.6.69-2.41.64-2.43,3.62-4.83,6.14-4.97,1.27-.07,2.25.3,2.65,1.59.33,1.06.59,2.15.88,3.23ZM316.52,122.42c-.52-.92-.8-1.54-1.2-2.07-.32-.42-.75-.8-1.19-1.09-2.83-1.87-3.94-4.59-4.13-7.87-.16-2.76-1.53-3.55-4.16-2.79-1.86.54-3.79,1.09-5.69,1.1-1.44,0-2.88-.84-4.32-1.3-2.56-.82-3.66-.16-4.13,2.47-.09.48-.16.97-.24,1.45-.44,2.67-1.79,4.73-4.03,6.24-.53.35-1.02.77-1.47,1.21-1.22,1.19-1.31,2.18-.23,3.47.59.71,1.3,1.34,2.03,1.91,2.33,1.84,3.34,4.27,3.44,7.17.1,2.91,1.72,3.95,4.4,2.84,2.11-.88,4.27-1.56,6.57-.9,1.08.31,2.08.84,3.13,1.25,2.35.9,3.79.09,4.27-2.4.16-.82.2-1.66.37-2.47.57-2.62,2.37-4.3,4.42-5.83.83-.63,1.43-1.57,2.16-2.4Z"/>
    <path class="cls-14" d="M265.37,138.29c-.4,1.42-.63,2.97-1.27,4.34-.55,1.17-1.49,1.17-2.12.05-.62-1.13-1.2-2.45-1.23-3.69-.04-2.01.3-4.05.68-6.04.1-.51.88-1.08,1.45-1.22.27-.07.97.75,1.14,1.27.52,1.66.87,3.38,1.35,5.29Z"/>
    <path class="cls-21" d="M298.76,165.94c-3.5-.62-6.29-1.99-8.32-4.62-.34-.43-.4-1.36-.17-1.85.15-.32,1.11-.43,1.66-.34,2.81.46,5.29,1.66,7.46,3.49.11.09.28.17.33.29.27.75.77,1.53.67,2.24-.05.36-1.16.58-1.64.8Z"/>
    <path class="cls-5" d="M329.4,150.61c-.52-.29-1.21-.47-1.51-.91-.19-.27.06-1.06.36-1.41,2.16-2.49,4.64-4.53,8.02-5.09.5-.08,1.29.07,1.55.41.26.35.18,1.13-.02,1.61-.77,1.91-5.81,5.43-8.39,5.39Z"/>
    <path class="cls-22" d="M264.66,100.83c-1.29.01-2.03-1.03-1.29-1.96,1.14-1.43,2.48-2.75,3.95-3.84,1.03-.76,2.37-1.23,3.64-1.5.73-.15,1.6.35,2.4.56-.26.64-.39,1.38-.8,1.89-1.88,2.29-4.22,3.94-7.14,4.64-.28.07-.56.16-.75.21Z"/>
    <path class="cls-20" d="M336.02,105.99c.28-1.62.4-2.89.75-4.1.15-.52.72-1.19,1.19-1.27.43-.07,1.21.44,1.44.9,1.56,3.15,1.61,6.4.3,9.64-.19.46-.91,1.09-1.25,1.01-.48-.11-1.04-.73-1.2-1.24-.52-1.71-.88-3.47-1.24-4.94Z"/>
    <path class="cls-4" d="M302.33,78.01c3.46.59,6.18,1.96,8.25,4.4.39.45.49,1.41.29,1.99-.1.3-1.2.46-1.78.35-2.95-.57-5.61-1.8-7.67-4.05-.42-.46-.73-1.38-.57-1.93.13-.42,1.09-.58,1.47-.76Z"/>
  </g>
  <circle class="cls-31" cx="112.49" cy="121.4" r="5.48"/>
  <circle class="cls-31" cx="147.4" cy="121.4" r="5.48"/>
  <circle class="cls-31" cx="181.63" cy="121.4" r="5.48"/>
  <circle class="cls-31" cx="214.49" cy="121.4" r="5.48"/>
  <circle class="cls-31" cx="248.72" cy="121.4" r="5.48"/>
  <circle class="cls-31" cx="282.95" cy="121.4" r="5.48"/>
  <circle class="cls-31" cx="317.86" cy="121.4" r="5.48"/>
  <circle class="cls-31" cx="352.09" cy="121.4" r="5.48"/>
  <circle class="cls-31" cx="384.95" cy="121.4" r="5.48"/>
  <line class="cls-2" x1="112.49" y1="121.4" x2="383.93" y2="121.4"/>
</svg>