<?xml version="1.0" encoding="UTF-8"?>
<svg id="Layer_1" data-name="Layer 1" xmlns="http://www.w3.org/2000/svg" xmlns:xlink="http://www.w3.org/1999/xlink" viewBox="0 0 495 247">
  <defs>
    <style>
      .cls-1 {
        stroke: #d9d9d9;
      }

      .cls-1, .cls-2 {
        fill: none;
        stroke-miterlimit: 10;
      }

      .cls-3 {
        fill: url(#linear-gradient);
      }

      .cls-3, .cls-4, .cls-5, .cls-6, .cls-7, .cls-8, .cls-9, .cls-10, .cls-11, .cls-12, .cls-13, .cls-14, .cls-15, .cls-16, .cls-17 {
        stroke-width: 0px;
      }

      .cls-4 {
        fill: url(#linear-gradient-11);
      }

      .cls-5 {
        fill: url(#linear-gradient-12);
      }

      .cls-6 {
        fill: url(#linear-gradient-13);
      }

      .cls-7 {
        fill: url(#linear-gradient-10);
      }

      .cls-8 {
        fill: url(#linear-gradient-14);
      }

      .cls-2 {
        stroke: #006e8e;
      }

      .cls-9 {
        fill: url(#linear-gradient-4);
      }

      .cls-10 {
        fill: url(#linear-gradient-2);
      }

      .cls-11 {
        fill: url(#linear-gradient-3);
      }

      .cls-12 {
        fill: url(#linear-gradient-8);
      }

      .cls-13 {
        fill: url(#linear-gradient-9);
      }

      .cls-14 {
        fill: url(#linear-gradient-7);
      }

      .cls-15 {
        fill: url(#linear-gradient-5);
      }

      .cls-16 {
        fill: url(#linear-gradient-6);
      }

      .cls-17 {
        fill: #006e8e;
      }
    </style>
    <linearGradient id="linear-gradient" x1="97.47" y1="122.23" x2="196.67" y2="122.23" gradientUnits="userSpaceOnUse">
      <stop offset="0" stop-color="#f2f2f2"/>
      <stop offset="1" stop-color="#006e8e"/>
    </linearGradient>
    <linearGradient id="linear-gradient-2" x1="93.23" y1="143.37" x2="99.45" y2="143.37" xlink:href="#linear-gradient"/>
    <linearGradient id="linear-gradient-3" x1="132.85" y1="176.96" x2="146.71" y2="176.96" xlink:href="#linear-gradient"/>
    <linearGradient id="linear-gradient-4" x1="183.7" y1="155.89" x2="197.4" y2="155.89" xlink:href="#linear-gradient"/>
    <linearGradient id="linear-gradient-5" x1="96.36" y1="88.81" x2="110.22" y2="88.81" xlink:href="#linear-gradient"/>
    <linearGradient id="linear-gradient-6" x1="194.76" y1="101.25" x2="200.97" y2="101.25" xlink:href="#linear-gradient"/>
    <linearGradient id="linear-gradient-7" x1="147.27" y1="67.52" x2="160.97" y2="67.52" xlink:href="#linear-gradient"/>
    <linearGradient id="linear-gradient-8" x1="217.22" y1="121.7" x2="337.02" y2="121.7" xlink:href="#linear-gradient"/>
    <linearGradient id="linear-gradient-9" x1="212.11" y1="147.23" x2="219.63" y2="147.23" xlink:href="#linear-gradient"/>
    <linearGradient id="linear-gradient-10" x1="259.95" y1="187.79" x2="276.69" y2="187.79" xlink:href="#linear-gradient"/>
    <linearGradient id="linear-gradient-11" x1="321.35" y1="162.34" x2="337.89" y2="162.34" xlink:href="#linear-gradient"/>
    <linearGradient id="linear-gradient-12" x1="215.88" y1="81.34" x2="232.63" y2="81.34" xlink:href="#linear-gradient"/>
    <linearGradient id="linear-gradient-13" x1="334.71" y1="96.36" x2="342.21" y2="96.36" xlink:href="#linear-gradient"/>
    <linearGradient id="linear-gradient-14" x1="277.36" y1="55.64" x2="293.91" y2="55.64" xlink:href="#linear-gradient"/>
  </defs>
  <circle class="cls-1" cx="146.75" cy="123.15" r="96.12"/>
  <g>
    <path class="cls-3" d="M196.67,121.07c-.32,4.26-2.04,7.73-5.35,10.16-1.29.94-3.18,1.3-4.84,1.46-3.91.4-4.99,1.23-6.05,5.04-1.43,5.12-4.7,8.48-10.03,9.15-1.72.22-3.62-.81-5.41-1.35-.81-.25-1.53-.79-2.33-1.08-3.1-1.15-5.2.27-5.37,3.61-.28,5.3,2.14,7.33,7.2,5.72,4.72-1.5,8.43-.1,11.56,3.44,1.3,1.47,1.22,2.91-.01,4.44-3.73,4.62-9.79,5.58-14.37,3.64-1.69-.72-3.07-2.46-4.24-4-1.83-2.41-3.29-3.26-6.25-2.58-3.16.73-6.28,1.22-9.3-.33-3.58-1.83-6.38-4.22-6.18-8.81.06-1.4-.4-2.84-.71-4.23-.31-1.41-1.43-1.81-2.71-1.88-2.18-.12-5.61,1.9-6.11,4.02-.28,1.19.02,2.77.64,3.85.83,1.46,2.08,2.77,3.39,3.86,2.69,2.24,2.07,9.07.04,11.26-.45.48-1.45.67-2.18.65-6.12-.16-11.36-6.44-11.14-12.3.04-1.07.6-2.16,1.08-3.17,1.89-4.01,1.83-5.04-1.23-8.32-3.18-3.42-4.32-7.24-3.35-11.87.48-2.28,1.85-3.55,3.56-4.74,1.14-.79,2.35-1.52,3.37-2.45,1.66-1.51,1.86-3.66.15-5.05-1.47-1.2-3.35-2.2-5.19-2.58-2.02-.42-3.18,1.34-3.91,3.03-.47,1.08-.69,2.28-1,3.43-.95,3.45-4.91,6.62-8.46,6.82-1.65.1-2.77-.51-3.52-2.01-2.99-5.99,1.45-16.44,9.05-16.17,3.45.12,5.37-1.76,6.21-5.19,1.08-4.42,3.92-7.03,8.02-8.58,2.34-.88,4.48-.75,6.65.57,1.23.75,2.59,1.33,3.96,1.78,1.78.59,3.19-.11,3.84-1.86.84-2.25.9-4.54-.35-6.69-.88-1.51-2.36-1.85-3.95-1.72-.98.08-1.96.33-2.91.61-4.03,1.22-8.4-.12-10.95-3.41-1.25-1.62-1.23-3.09.09-4.68,3.68-4.46,11.17-5.72,15.92-2.57.89.59,1.61,1.57,2.18,2.51,1.89,3.16,3.2,3.75,6.88,3.29,2.27-.29,4.64-.74,6.84-.36,5.06.87,7.85,4.29,8.29,9.36.11,1.25.17,2.53.51,3.72.63,2.22,2.32,3.14,4.44,2.27,1.43-.59,2.79-1.51,3.97-2.54,1.38-1.19,1.51-3.18.45-4.7-.87-1.24-1.88-2.39-2.91-3.5-2.8-3.04-3.36-7.25-1.55-11,.66-1.37,1.65-1.78,3.02-1.72,6.1.28,11.73,7.08,10.79,13.12-.16,1.01-.68,2-1.18,2.91-1.55,2.82-1.4,4.94.89,7.2,2.6,2.56,4.25,5.33,4.29,9.2.05,4.18-1.67,6.92-5.17,8.85-.81.44-1.65.94-2.24,1.62-.53.61-.97,1.47-1.05,2.26-.22,2.4,2.15,4.61,5.35,5.17,2.45.43,4.11-.62,4.93-3.15.34-1.07.64-2.16.93-3.24.86-3.28,4.88-6.52,8.28-6.71,1.71-.1,3.03.4,3.57,2.14.45,1.44.79,2.9,1.19,4.36ZM168.45,122.88c-.71-1.24-1.08-2.07-1.62-2.79-.43-.57-1.01-1.07-1.61-1.47-3.82-2.52-5.31-6.2-5.57-10.62-.21-3.73-2.07-4.78-5.62-3.76-2.5.72-5.11,1.47-7.67,1.49-1.94,0-3.88-1.13-5.82-1.76-3.45-1.11-4.94-.22-5.57,3.34-.12.65-.22,1.3-.33,1.96-.59,3.6-2.42,6.38-5.44,8.41-.71.48-1.38,1.04-1.99,1.64-1.64,1.61-1.77,2.94-.31,4.68.8.95,1.75,1.8,2.73,2.57,3.14,2.48,4.51,5.76,4.63,9.67.13,3.93,2.33,5.33,5.93,3.83,2.85-1.18,5.76-2.11,8.87-1.21,1.45.42,2.81,1.14,4.23,1.68,3.17,1.22,5.12.13,5.76-3.24.21-1.1.26-2.23.5-3.33.77-3.53,3.2-5.8,5.96-7.87,1.13-.85,1.93-2.12,2.92-3.23Z"/>
    <path class="cls-10" d="M99.45,144.28c-.53,1.91-.85,4.01-1.71,5.85-.74,1.58-2.02,1.58-2.85.07-.84-1.52-1.62-3.3-1.65-4.98-.05-2.71.41-5.46.92-8.14.13-.69,1.19-1.46,1.96-1.65.36-.09,1.31,1.01,1.53,1.72.7,2.24,1.18,4.56,1.82,7.14Z"/>
    <path class="cls-11" d="M144.49,181.58c-4.72-.84-8.48-2.69-11.23-6.24-.45-.58-.54-1.83-.22-2.49.2-.43,1.5-.58,2.24-.46,3.78.61,7.14,2.23,10.07,4.71.15.13.38.23.44.39.37,1.01,1.04,2.07.91,3.02-.07.49-1.57.79-2.21,1.07Z"/>
    <path class="cls-9" d="M185.83,160.9c-.71-.39-1.63-.64-2.04-1.23-.25-.36.08-1.44.48-1.9,2.91-3.36,6.26-6.11,10.82-6.86.68-.11,1.74.09,2.09.55.35.47.24,1.52-.02,2.17-1.04,2.58-7.84,7.33-11.32,7.27Z"/>
    <path class="cls-15" d="M98.49,93.75c-1.73.02-2.74-1.39-1.74-2.65,1.53-1.93,3.35-3.71,5.32-5.17,1.39-1.03,3.2-1.66,4.91-2.03.98-.21,2.15.47,3.24.75-.35.86-.52,1.87-1.08,2.55-2.54,3.09-5.69,5.31-9.64,6.26-.38.09-.76.21-1.01.28Z"/>
    <path class="cls-16" d="M194.76,100.7c.37-2.19.54-3.9,1.01-5.53.2-.7.98-1.61,1.61-1.71.58-.1,1.64.6,1.94,1.21,2.1,4.24,2.17,8.63.41,13-.25.62-1.23,1.47-1.68,1.37-.65-.14-1.41-.98-1.62-1.67-.71-2.31-1.19-4.68-1.67-6.66Z"/>
    <path class="cls-14" d="M149.31,62.96c4.67.79,8.34,2.64,11.13,5.93.52.61.66,1.91.4,2.68-.14.4-1.62.62-2.4.47-3.98-.77-7.57-2.42-10.35-5.46-.57-.63-.99-1.86-.76-2.6.17-.56,1.46-.78,1.98-1.03Z"/>
  </g>
  <g>
    <path class="cls-12" d="M337.02,120.3c-.39,5.15-2.46,9.33-6.46,12.27-1.56,1.14-3.83,1.57-5.84,1.77-4.72.48-6.03,1.49-7.31,6.09-1.72,6.18-5.67,10.24-12.11,11.05-2.08.26-4.37-.97-6.53-1.64-.98-.3-1.85-.95-2.81-1.31-3.75-1.39-6.27.33-6.49,4.36-.34,6.4,2.59,8.85,8.69,6.91,5.7-1.81,10.17-.12,13.96,4.15,1.57,1.77,1.48,3.51-.02,5.36-4.51,5.58-11.83,6.74-17.35,4.39-2.04-.87-3.71-2.97-5.12-4.83-2.21-2.91-3.98-3.94-7.55-3.11-3.81.88-7.58,1.47-11.23-.4-4.32-2.22-7.7-5.09-7.46-10.63.07-1.69-.48-3.42-.86-5.11-.38-1.7-1.73-2.18-3.27-2.27-2.63-.14-6.78,2.3-7.38,4.85-.34,1.44.03,3.35.77,4.65,1,1.76,2.52,3.34,4.09,4.66,3.25,2.71,2.5,10.95.05,13.6-.54.58-1.75.8-2.63.78-7.39-.2-13.72-7.78-13.45-14.85.05-1.29.73-2.61,1.3-3.83,2.28-4.84,2.2-6.09-1.48-10.05-3.84-4.13-5.22-8.75-4.05-14.34.58-2.76,2.23-4.29,4.3-5.72,1.38-.96,2.84-1.84,4.07-2.96,2-1.83,2.24-4.42.19-6.1-1.78-1.45-4.04-2.65-6.27-3.11-2.43-.5-3.84,1.61-4.72,3.66-.57,1.31-.83,2.75-1.21,4.14-1.14,4.17-5.93,7.99-10.21,8.24-1.99.12-3.35-.62-4.25-2.43-3.61-7.23,1.75-19.85,10.93-19.53,4.16.14,6.49-2.13,7.5-6.27,1.3-5.34,4.73-8.49,9.68-10.36,2.82-1.07,5.41-.91,8.02.69,1.48.91,3.12,1.61,4.78,2.15,2.15.71,3.85-.13,4.64-2.24,1.02-2.72,1.09-5.48-.43-8.08-1.06-1.82-2.85-2.23-4.77-2.07-1.18.1-2.37.4-3.51.74-4.86,1.47-10.14-.15-13.22-4.12-1.51-1.95-1.48-3.73.11-5.66,4.44-5.38,13.48-6.91,19.22-3.1,1.08.72,1.95,1.9,2.63,3.04,2.29,3.81,3.86,4.53,8.31,3.97,2.74-.35,5.6-.89,8.25-.44,6.11,1.05,9.47,5.18,10.01,11.3.13,1.51.21,3.06.62,4.5.76,2.69,2.8,3.8,5.36,2.74,1.73-.71,3.37-1.83,4.79-3.06,1.66-1.44,1.82-3.85.54-5.67-1.05-1.5-2.27-2.88-3.51-4.23-3.38-3.67-4.05-8.76-1.88-13.28.8-1.66,1.99-2.15,3.65-2.08,7.36.34,14.17,8.55,13.03,15.84-.19,1.22-.82,2.41-1.43,3.51-1.87,3.4-1.69,5.96,1.08,8.69,3.14,3.09,5.13,6.43,5.18,11.11.05,5.05-2.02,8.36-6.24,10.69-.97.54-1.99,1.14-2.7,1.95-.64.73-1.18,1.78-1.26,2.73-.27,2.9,2.59,5.57,6.46,6.25,2.96.52,4.97-.75,5.95-3.81.42-1.29.78-2.6,1.12-3.92,1.04-3.96,5.89-7.87,9.99-8.1,2.06-.12,3.66.48,4.32,2.59.54,1.73.96,3.51,1.43,5.26ZM302.94,122.48c-.85-1.5-1.31-2.51-1.96-3.37-.52-.69-1.21-1.3-1.94-1.77-4.61-3.05-6.41-7.48-6.72-12.83-.26-4.5-2.49-5.78-6.78-4.54-3.02.87-6.17,1.78-9.27,1.79-2.34.01-4.69-1.37-7.03-2.12-4.17-1.34-5.96-.27-6.72,4.03-.14.79-.27,1.57-.39,2.36-.71,4.34-2.92,7.7-6.56,10.16-.86.58-1.66,1.25-2.4,1.98-1.98,1.94-2.13,3.55-.38,5.65.96,1.15,2.12,2.17,3.3,3.11,3.79,2.99,5.44,6.95,5.6,11.68.16,4.75,2.81,6.43,7.16,4.63,3.44-1.43,6.96-2.55,10.71-1.46,1.75.51,3.4,1.38,5.11,2.03,3.83,1.47,6.18.15,6.95-3.91.25-1.33.32-2.7.61-4.02.94-4.27,3.87-7,7.2-9.5,1.36-1.02,2.33-2.55,3.53-3.9Z"/>
    <path class="cls-13" d="M219.63,148.32c-.64,2.31-1.03,4.84-2.07,7.07-.89,1.9-2.43,1.91-3.45.08-1.01-1.83-1.96-3.98-2-6.01-.07-3.28.49-6.6,1.11-9.83.16-.83,1.44-1.76,2.36-1.99.44-.11,1.59,1.22,1.85,2.07.84,2.71,1.42,5.5,2.19,8.62Z"/>
    <path class="cls-7" d="M274.01,193.36c-5.7-1.01-10.24-3.25-13.56-7.53-.55-.71-.65-2.21-.27-3.01.25-.51,1.81-.7,2.7-.55,4.57.74,8.62,2.7,12.16,5.68.18.15.46.27.53.47.45,1.21,1.25,2.5,1.1,3.65-.08.59-1.9.95-2.67,1.3Z"/>
    <path class="cls-4" d="M323.92,168.39c-.85-.47-1.96-.77-2.47-1.49-.3-.44.09-1.73.58-2.29,3.51-4.06,7.56-7.38,13.06-8.29.82-.14,2.11.11,2.53.66.43.56.29,1.84-.03,2.63-1.25,3.11-9.47,8.85-13.67,8.78Z"/>
    <path class="cls-5" d="M218.46,87.3c-2.09.02-3.31-1.68-2.1-3.2,1.85-2.33,4.04-4.48,6.43-6.25,1.68-1.24,3.86-2.01,5.93-2.45,1.18-.25,2.6.57,3.91.91-.42,1.04-.63,2.25-1.31,3.08-3.06,3.73-6.87,6.41-11.64,7.56-.46.11-.92.26-1.22.34Z"/>
    <path class="cls-6" d="M334.71,95.7c.45-2.64.65-4.71,1.22-6.68.25-.85,1.18-1.94,1.94-2.07.7-.12,1.98.72,2.34,1.46,2.54,5.12,2.62,10.42.49,15.7-.3.75-1.48,1.77-2.03,1.65-.78-.17-1.7-1.18-1.95-2.02-.85-2.79-1.43-5.66-2.01-8.04Z"/>
    <path class="cls-8" d="M279.83,50.13c5.64.95,10.07,3.19,13.44,7.17.63.74.8,2.3.48,3.24-.17.48-1.95.75-2.9.56-4.81-.93-9.14-2.93-12.49-6.59-.69-.76-1.19-2.24-.92-3.14.2-.68,1.77-.95,2.39-1.24Z"/>
  </g>
  <circle class="cls-17" cx="147.58" cy="122.16" r="7.39"/>
  <circle class="cls-17" cx="194.67" cy="122.16" r="7.39"/>
  <circle class="cls-17" cx="240.85" cy="122.16" r="7.39"/>
  <circle class="cls-17" cx="285.17" cy="122.16" r="7.39"/>
  <circle class="cls-17" cx="331.34" cy="122.16" r="7.39"/>
  <circle class="cls-17" cx="377.52" cy="122.16" r="7.39"/>
  <circle class="cls-17" cx="424.61" cy="122.16" r="7.39"/>
  <line class="cls-2" x1="147.58" y1="122.16" x2="424.33" y2="122.16"/>
</svg>