<?xml version="1.0" encoding="UTF-8"?>
<svg id="Layer_1" data-name="Layer 1" xmlns="http://www.w3.org/2000/svg" xmlns:xlink="http://www.w3.org/1999/xlink" viewBox="0 0 892.15 463.01">
  <defs>
    <style>
      .cls-1 {
        fill: url(#linear-gradient);
      }

      .cls-1, .cls-2, .cls-3, .cls-4, .cls-5, .cls-6, .cls-7, .cls-8, .cls-9, .cls-10, .cls-11, .cls-12, .cls-13, .cls-14, .cls-15, .cls-16 {
        stroke-width: 0px;
      }

      .cls-2 {
        fill: url(#linear-gradient-11);
      }

      .cls-3 {
        fill: url(#linear-gradient-12);
      }

      .cls-4 {
        fill: url(#linear-gradient-13);
      }

      .cls-5 {
        fill: url(#linear-gradient-10);
      }

      .cls-6 {
        fill: url(#linear-gradient-16);
      }

      .cls-7 {
        fill: url(#linear-gradient-15);
      }

      .cls-8 {
        fill: url(#linear-gradient-14);
      }

      .cls-9 {
        fill: url(#linear-gradient-4);
      }

      .cls-10 {
        fill: url(#linear-gradient-2);
      }

      .cls-11 {
        fill: url(#linear-gradient-3);
      }

      .cls-12 {
        fill: url(#linear-gradient-8);
      }

      .cls-13 {
        fill: url(#linear-gradient-9);
      }

      .cls-14 {
        fill: url(#linear-gradient-7);
      }

      .cls-15 {
        fill: url(#linear-gradient-5);
      }

      .cls-16 {
        fill: url(#linear-gradient-6);
      }
    </style>
    <linearGradient id="linear-gradient" x1="423" y1="173.77" x2="908.82" y2="281.45" gradientUnits="userSpaceOnUse">
      <stop offset="0" stop-color="#bbd2d1"/>
      <stop offset=".31" stop-color="#99c4d2"/>
      <stop offset=".82" stop-color="#32748b"/>
    </linearGradient>
    <linearGradient id="linear-gradient-2" x1="2376.47" y1="257.39" x2="2376.97" y2="257.39" xlink:href="#linear-gradient"/>
    <linearGradient id="linear-gradient-3" x1="2376.47" y1="60.5" x2="2376.97" y2="60.5" xlink:href="#linear-gradient"/>
    <linearGradient id="linear-gradient-4" x1="2376.47" y1="390.09" x2="2376.97" y2="390.09" xlink:href="#linear-gradient"/>
    <linearGradient id="linear-gradient-5" x1="2376.47" y1="69.82" x2="2376.97" y2="69.82" xlink:href="#linear-gradient"/>
    <linearGradient id="linear-gradient-6" x1="2376.47" y1="53.92" x2="2376.97" y2="53.92" xlink:href="#linear-gradient"/>
    <linearGradient id="linear-gradient-7" x1="2376.47" y1="38.8" x2="2376.97" y2="38.8" xlink:href="#linear-gradient"/>
    <linearGradient id="linear-gradient-8" x1="2376.47" y1="332.21" x2="2376.97" y2="332.21" xlink:href="#linear-gradient"/>
    <linearGradient id="linear-gradient-9" x1="2376.47" y1="14.97" x2="2376.97" y2="14.97" xlink:href="#linear-gradient"/>
    <linearGradient id="linear-gradient-10" x1="2376.47" y1="362.49" x2="2376.97" y2="362.49" xlink:href="#linear-gradient"/>
    <linearGradient id="linear-gradient-11" x1="2376.47" y1="94.22" x2="2376.97" y2="94.22" xlink:href="#linear-gradient"/>
    <linearGradient id="linear-gradient-12" x1="2376.47" y1="35.27" x2="2376.97" y2="35.27" xlink:href="#linear-gradient"/>
    <linearGradient id="linear-gradient-13" x1="2376.47" y1="453.43" x2="2376.97" y2="453.43" xlink:href="#linear-gradient"/>
    <linearGradient id="linear-gradient-14" x1="2376.47" y1="7.12" x2="2376.97" y2="7.12" xlink:href="#linear-gradient"/>
    <linearGradient id="linear-gradient-15" x1="2376.47" y1="431.67" x2="2376.97" y2="431.67" xlink:href="#linear-gradient"/>
    <linearGradient id="linear-gradient-16" x1="2161.24" y1="247.08" x2="2161.74" y2="247.08" gradientTransform="translate(166.28 12.85) rotate(8.52)" xlink:href="#linear-gradient"/>
  </defs>
  <path class="cls-1" d="M390.46,176.04c-.7-.3-.91-1.2-.37-1.75,1.71-1.75,2.87-3.32,4.3-3.62,7.01-1.47,11.54-6.41,16.43-10.86,3.57-3.25,7.18-6.53,10.23-10.24,1.25-1.52,1.96-3.48,2.81-5.69.37-.98,1.78-.9,2.06.1.2.74.38,1.46.51,2.19.44,2.58,1.32,4.35,4.45,4.07,6.51-.59,13.08-.75,19.53-1.73,1.41-.21,2.82-2.96,3.5-4.81,1.06-2.87,2.02-5.15,5.77-4.76,3.14.33,5-1.08,5.11-4.57.12-3.81,2.99-5.08,6.09-6.36,1.59-.66,2.92-1.92,4.3-3.08.51-.43.52-1.2.02-1.64-1.61-1.42-3.15-3.03-5.01-3.63-2.18-.69-4.95-.23-7.28.39-2.8.75-4.5.27-4.19-2.74.53-5.03,1.3-10.05,2.32-15,.63-3.05,2.11-5.92,2.79-8.97.22-.96-.65-2.61-1.52-3.22-.58-.41-2.36.12-3.07.8-1.41,1.35-2.5,3.05-3.64,4.66-2.32,3.29-4.15,7.05-6.96,9.85-4.33,4.32-5.44,7.7-2.54,13.15,2.05,3.87,2.47,7.26-.64,10.96-2.13,2.53-3.67,5.54-5.92,9.29-.42.7-1.44.71-1.86,0-1.21-1.99-2.12-3.44-2.92-4.95-.93-1.74-1.52-3.67-2.55-5.34-1.29-2.09-3.18-2.62-4.86-.5-3.59,4.54-6.33,1.9-7.86-1.41-1.82-3.98-2.86-8.4-3.67-12.73-.67-3.59,1.06-6.46,4.45-8.15,5.79-2.88,9.05-7.82,12.19-13.36,5.3-9.35,11.57-18.15,17.43-27.19.09-.14.19-.33.33-.37,8.52-2.34,16.22-8.4,26.42-6.65.75.13,1.14.98.76,1.64-.69,1.16-1.28,2.16-1.77,2.99-.32.54-.11,1.24.46,1.52,7.34,3.62,14.65,7.22,21.96,10.85.66.33,1.26.74,1.8,1.24,2.55,2.36,5.32,4.9,3.57,8.74-1.21,2.65-9.61,2.68-12.22.5-2-1.68-3.96-3.54-6.27-4.66-1.07-.52-3.62.12-4.2,1.04-.63,1.02-.34,3.65.54,4.4,3.66,3.08,5.19,6.92,6.37,11.45,1.35,5.21,4.71,4.78,8.9,1.19,4.5-3.85,8.62-9,15.48-9.25,1.24-.04,2.46-.46,3.65-.77.41-.11.74-.45.79-.88.38-3.58-6.13-6.76-1.53-10.53.57-.47,1.44-.25,1.71.43.16.4.31.75.52,1.06,1.11,1.66,2.02,4.08,3.57,4.64,1.23.44,3.39-1.26,4.95-2.3,3.15-2.1,6.12-4.48,9.27-6.57.91-.61,2.39-1.19,3.28-.87,8.26,2.99,14.5-1.16,21.01-5.25,1.77-1.11,4.82-.93,7.06-.4,4.41,1.04,5.81-1.16,6.3-4.8.46-3.46,1.16-6.94,1.09-10.39-.09-4.25,3.03-6.03,5.6-8.1.92-.74,3.16-.4,4.51.16.71.3.98,2.11,1.09,3.27.46,4.68.98,9.38,1.12,14.08.16,5.71.29,11.47-.3,17.13-.15,1.45-2.92,3.26-4.78,3.73-2.81.72-5.06,1.58-4.23,4.77.75,2.88,1.29,6.43,6.16,5.08,6.43-1.79,11.68-7.15,12.89-13.75.1-.57.22-1.13.35-1.7l3.65.19c.13,1.09.29,2.18.49,3.27.28,1.52,1.39,4.23,1.74,4.17,2.19-.37,4.53-1.03,6.28-2.33.87-.64,1.02-2.93.74-4.32-.65-3.22-1.89-6.32-2.65-9.53-.68-2.86-1.68-4.7-5.19-4.83-4.57-.17-7.29-2.84-7.57-7.64-.21-3.53-.47-7.06-.74-10.84-.06-.89.93-1.47,1.68-.98,3.52,2.31,6.35,4.28,9.37,5.91,3.26,1.75,3.14,4.61,3.68,7.59.37,2.05,1.84,5.36,3.12,5.51,3.29.38,3.55-2.68,4.23-5.46,1.37-5.56-.54-9.62-4.21-13.5-2.66-2.81-2.75-4.92,1.8-6.35,2.35-.74,4.27-3.22,6.09-5.19,6.01-6.5,11.66-13.35,17.93-19.59,2.7-2.69,11.16-.97,14.28,2.15,2.03,2.03,3.9,4.52,7.2,2.75,3.49-1.87,2.92-5.12,2.61-8.38-.19-2.02.06-5.78.6-5.87,2.91-.49,6.14-1.49,8.56,1.96.87,1.24,3.48,1.88,5.23,1.77,3.75-.23,7.1-.71,9.74,3.07,3.04,4.36,1.71,11.1-3.21,15-2.93,2.32-5.76,4.87-8.18,7.7-.66.78-.51,2.24-.46,3.62.02.63.56,1.11,1.19,1.05,1.26-.13,2.52-.23,3.7-.59,1.06-.32,2.14-1.09,2.87-1.94,3.98-4.71,8.14-3.2,11.61.17,4.26,4.14,8.96,5.96,14.82,5.64,2.27-.13,4.59,1.01,6.87.93,2.7-.09,5.63-.33,8.01-1.45,4.79-2.25,9.71-1.04,9.95,4.31.41,9.29,5.32,10.79,12.8,10.04.65-.07,1.32.11,1.99.19,3.76.45,8.21,2.31,11.07.91,2.42-1.18,3-6.13,4.4-9.41,1.22-2.85,2.99-3.29,5.46-1.35,3.67,2.88,7.41,4.34,12.43,2.99,4.22-1.13,7.61,1.18,9.32,5.6,2.08,5.35,5.74,6.93,11.09,4.63,4.56-1.95,8.22-3.35,10.56,3.17.69,1.93,4.5,2.92,7.03,3.99,6.23,2.64,12.7,4.75,18.78,7.68,5.65,2.72,6.86,2.73,9.91-2.79,1.91-3.45,3.97-4.53,7.94-2.37,7.05,3.84,14.53,6.86,21.65,10.59,1.46.76,2.43,2.98,3.04,4.73,1.85,5.38,2.32,5.44,7.7,3.68,1.17-.38,2.92,1.02,4.53,2,.47.28.65.87.43,1.36-.92,2.04-1.7,4.2-3.1,5.82-.72.83-3.3.72-4.69.17-3.55-1.4-6.83-3.46-10.36-4.9-1.33-.54-3.82-.74-4.48.02-3.13,3.62-7.58,6.73-6.28,12.67,1.01,4.63-.87,7.06-5.52,8.72-3.71,1.33-6.55,4.92-10.15,6.77-6.08,3.12-12.24,6.95-18.78,8.11-7.74,1.37-8.25.65-7.58,8.75.58,7.03.44,13.64-6.91,17.81-1.79,1.02-3.04,3-4.74,5.26-.54.72-1.68.5-1.92-.37-.41-1.55-.76-2.74-.76-3.93-.03-6.8.69-13.01,6.25-18.38,4.02-3.89,6.59-9.28,9.73-14.27.37-.59.1-1.37-.55-1.6-9.63-3.46-13.83-2.08-19.43,6.01-2.5,3.61-4.78,4.98-8.31,1.52-.45-.44-1.26-.96-1.75-.84-7.96,1.97-17.14-2.59-24,2.67-5.31,4.07-9.12,10.38-12.78,16.21-1.83,2.92-2.49,6.89,2.59,9.02,1.68.71,2.93,3.57,3.47,5.68,3.56,14.03-9.29,32.27-19.11,34.94-8.3,2.25-13.06,11.03-11.87,19.81.1.77-.03,1.57-.25,2.49-.23.98-1.58,1.13-2.03.22-1.98-4.02-3.65-7.43-5.41-10.8-.32-.61-1.69-1.39-1.84-1.25-5.04,4.49-8.02-5.53-12.87-1.8-.4.3-.87.56-1.15.96-1.16,1.63-2.29,3.28-3.43,4.92-.37.54-.18,1.28.4,1.58,1.86.94,3.71,1.88,5.58,2.8.33.17.68.31,1.09.48.56.23.82.87.59,1.42-.25.61-.48,1.16-.84,1.62-4.36,5.64-4.62,11.62-1.27,17.98.82,1.56.99,4.21.22,5.74-5.92,11.74-15.74,17.42-28.79,18.04-2.79.13-7.69,1.02-7.88,2.16-.6,3.65.17,7.7,1.2,11.38.73,2.61,2.97,4.76,4.11,7.31,1.77,3.94.25,7.33-3,9.63-3.19,2.26-5.64-.1-7.8-2.25-1.77-1.75-3.6-3.53-4.98-5.57-1.55-2.3-3.55-3.76-5.62-1.7-1.56,1.55-3.18,4.76-2.57,6.44,1.78,4.92,4.62,9.47,7.13,14.12,0,.02.02.03.03.05.6,1.11-.85,2.21-1.72,1.29-4.14-4.34-6.41-9.69-7.08-15.96-.35-3.3-.76-6.59-1.2-9.88-.5-3.65-1.08-7.55-5.83-7.12-1.14.1-2.79-1.29-3.59-2.43-3.09-4.41-5.92-8.48-12.3-8.85-4.03-.23-7.17.09-9.86,3.11-.55.62-1.16,1.26-1.88,1.64-7.66,4-10.83,11.25-14.01,18.66-1.11,2.59-3.05,4.83-5.18,7.73-.5.68-1.54.56-1.87-.22-2.99-7.02-5.75-12.92-7.86-19.04-3.42-9.91-17.12-24.16-29.58-24.68-7.41-.31-14.76-3.44-21.97-5.82-1.88-.62-3.46-3-4.56-4.92-3.13-5.45-5.29-6.8-12.22-5.7-.72.11-1.11.89-.8,1.55,2.36,5.12.99,11.85,8.46,14.1.62.19,1.14,1.14,1.45,1.84,3.05,6.88,4.05,7.14,10.2,2.56.24-.18.54-.28.89-.39.41-.13.86-.02,1.14.3,1.02,1.15,2.01,2.35,3.16,3.36,5.03,4.44,4.98,4.76.24,9.34-8.38,8.09-19.44,9.76-30,12.48-1.3.34-3.92-1.53-4.82-3.04-7.01-11.65-13.64-23.53-20.72-35.13-.66-1.09-2.58-1.41-4.31-1.85-.67-.17-1.33.33-1.34,1.03-.03,1.49-.12,3,.32,4.34,1.98,6.1,4.04,12.19,6.54,18.09,2.18,5.14,4.95,10.03,7.61,14.96.41.77,1.52,1.34,2.43,1.62,3.06.94,4.1,2.93,3.86,6.02-.25,3.09,1.55,3.88,4.18,5.67,5.51,3.77,10.23,1.51,15.98.17.84-.2,1.56.63,1.26,1.44-.79,2.11-1.3,3.83-2.34,5.12-6.47,8.03-12.78,16.25-19.91,23.66-6.19,6.44-7.98,13.11-4.7,21.31.92,2.31,1.58,4.73,2.4,7.08,2.45,7,2.31,7.47-4.08,11.4-1.82,1.12-3.64,2.29-5.59,3.14-3.93,1.71-2.8,5-3.06,8.09-.18,2.14-1.4,4.28-2.49,6.24-1.08,1.94-2.66,3.6-3.85,5.49-3.63,5.72-6.75,11.82-10.91,17.12-3.08,3.92-7.69,6.2-13.09,5.65-.42-.04-.85-.06-1.27-.04-7.76.49-7.68.43-10.53-7.19-4.22-11.27-8.9-22.39-12.69-33.8-1.3-3.92-1.84-8.99-.49-12.71,4.16-11.46-.7-20.92-5.5-30.36-1.83-3.61-3.19-6.74-2.15-10.77.83-3.22.33-5.57-3.81-6.54-2.76-.65-5.46-2.62-7.57-4.64-2.66-2.55-5.16-1.89-8.24-1.4-3.95.63-8.04.43-12.08.46-2.74.02-5.76-.97-8.16-.11-4.87,1.74-8.54.4-11.7-3.02-4.59-4.97-9.05-10.07-13.34-15.3-1.07-1.3-1.86-3.39-1.72-5.02,1.01-11.75-.13-23.79,9.91-33.38,6.06-5.79,9.88-13.9,15.02-20.73.92-1.22,3.56-2.1,5.06-1.73,4.83,1.18,8.97-.44,13.55-1.45,6.87-1.53,14.15-1.69,21.24-1.59,3.7.05,2.87,3.45,1.79,5.75-1.78,3.79-.61,4.78,3.37,5.19,4.9.5,9.67,2.12,14.54,3.04,2.02.38,4.89,1.1,6.09.11,3.31-2.75,5.93-1.21,9.17-.21,6.31,1.94,12.75,3.72,19.27,4.66,6.53.94,13.9-9.03,11.6-15.3-.53-1.43-2.38-2.87-3.91-3.34-2.98-.91-6.3-1.92-9.26-1.48-5.51.82-6.53-2.46-7.21-6.13-.3-1.64.67-3.62,2.14-4.41,5.95-3.21,12.08-5.61,19.2-3.7,2.47.66,5.05,1.16,7.62,1.34,5.5.39,7.44-2.99,4.31-7.53-2.69-3.89-5.53-7.68-8.49-11.36-1.97-2.45-4.51-1.58-5.7,1.58-.19.52-.52.98-.87,1.44s-.96.58-1.44.29c-.66-.4-1.32-.79-1.72-1.37-2.73-3.95-5.52-4.17-8.14.02-2.41,3.87-3.94,8.28-6.28,12.19-1.19,1.99-3.11,4.44-5.1,4.86-4.07.88-5.74,2.78-5.59,6.76.01.38-.3.78-.89,1.68-.41.62-1.31.65-1.76.07-2.19-2.86-4.44-5.17-5.34-7.92-1.58-4.81-4.13-8.11-8.66-10.25-1.74-.82-2.92-2.75-4.61-3.74-1.02-.6-2.26-.84-3.47-1.1-.63-.14-1.25.31-1.31.96-.13,1.43-.36,2.94.28,3.73,2.17,2.62,4.96,4.74,7.59,6.97.85.73,1.83,1.3,2.84,1.93.48.3.65.92.39,1.42-.67,1.3-1.26,2.47-1.77,3.46-.35.68-1.27.79-1.77.22-4.51-5.04-8.95-10.04-13.5-14.95-.96-1.03-3.13-2.55-3.53-2.25-5.52,4.18-15.64.76-17.89,10.26-.07.31-.27.57-.55.72-6.11,3.25-7.84,11.6-15.6,13.18-4.43.9-8.55-.6-9.82-4.97-.37-1.27-.59-2.61-.65-3.93-.61-13.28-1.03-12.61,10.82-10.46,3.66.66,5.32-1,5.75-4.39.61-4.85-.34-8.92-6.05-11.37ZM538.23,190.12c.55,0,1.02-.41,1.08-.96,1.04-9.82-3.02-13.35-12.37-11.33-1.13.24-2.26.55-3.37.89-7.02,2.14-8.8,7.4-5.35,13.86,2.73,5.12,5.5,10.47,6.75,16.05,1.15,5.12,3.08,7.82,8.77,7.55,4.5-.21,6.57-2.61,5.7-7.87-.6-3.67-2.22-7.19-3.57-10.7-.75-1.94-1.7-3.81-2.73-5.93-.35-.72.17-1.56.97-1.56h4.1ZM557.19,179.85c-.2-.14-.43-.22-.68-.21-4.54.18-8.69,3.92-8,7.47.62,3.15,3.42,5.9,5.43,8.7.17.24,2.32-.3,2.5-.83,1.37-4.09,2.78-8.22,3.47-12.45.14-.85-1.85-2.05-2.72-2.68Z"/>
  <path class="cls-10" d="M242.19,178.68c-3.07,1-5.74,1.22-7.53,2.59-4.74,3.63-8.83,8.15-13.7,11.58-5,3.53-7.47,7.72-7.92,13.88-.19,2.53-2.67,5.27-4.77,7.19-5.15,4.71-7.92,10.03-7.02,17.22.29,2.3-.38,4.72-.77,7.11-.09.56-.54.99-1.1,1.08h-.04c-.6.09-1.17-.24-1.41-.8-.56-1.31-1.3-2.69-.92-3.62,1.51-3.74-.65-6.3-3.02-7.57-2.32-1.24-5.62-1.15-8.42-.87-4.01.4-7.94,2.09-11.93,2.18-14.18.32-20.96,11.49-14.36,24.14,3.06,5.87,11.75,8.51,17.68,5.4,1.28-.67,2.58-1.33,3.87-1.98,1.44,1.34,1.48,1.37,2.92,2.71-.14.34-.29.67-.47.99-2.06,3.84-1,6.21,3.34,7.17,9.74,2.14,9.65,2.14,9.36,12.03-.04,1.32,1.15,3.69,2.07,3.85,4.82.83,9.85,1.9,14.59,1.27,1.76-.23,3.39-1.51,5.05-2.95.99-.86,2.49.13,2.1,1.39l-.04.14c-.15.48.28,1.02.84.99,1.64-.09,2.99,0,3.85-.61,6.51-4.59,13.49-1.78,20.19-1.24,2.38.19,4.58,2.89,6.82,4.49,3.01,2.16,5.71,5.06,9.04,6.39,5.54,2.21,9.09,5.94,12.8,10.47,4.04,4.94,9.84,8.55,15.2,12.25,1.21.83,3.83-.27,5.77-.63,5.83-1.09,10.16,1.03,12.97,6.12,2.15,3.9,6.21,7.42,3.1,12.64-.5.84-.87,2.19-1.58,2.41-8.05,2.51-7.84,10.04-9.4,16.09-1.56,6.02-2.65,10.77-10.04,13.04-7.15,2.2-12.43,7.22-13.64,16.44-.79,6.06-5.29,11.64-8.67,17.75-.39.7-1.29.9-1.93.44-1.65-1.21-3.1-2.26-4.85-3.53-.79-.57-1.91-.12-2.08.84-.37,2.19-.72,4.04-.82,5.89-.25,4.69-1.23,8.17-6.94,9.22-2.88.53-5.06,4.21-7.98,5.23-4.96,1.74-2.25,5.47-3.12,8.27-.66,2.11-2.09,4.63-3.9,5.6-3.33,1.79-4.24,3.51-3.74,7.44.52,4.05-.39,8.45-1.5,12.48-1.08,3.96-3.17,7.65-4.87,11.44-.07.16-.2.28-.38.41-.54.39-1.28.31-1.73-.17-3.52-3.8-6.63-7.48-6.28-13.47.39-6.73-1.25-13.5,1.46-20.21.87-2.16.41-5.51-.68-7.68-1.98-3.93-1.03-7.2.24-10.97,3.23-9.57,7.26-19.11,8.67-28.99,1.27-8.87-.34-18.2-1.1-27.29-.15-1.84-1.86-3.92-3.42-5.2-6.28-5.16-11.55-10.96-14.44-18.76-.65-1.75-2.25-3.31-3.76-4.53-2.79-2.24-4.16-5.18-3.09-8.34,1.99-5.87,4.19-11.76,7.17-17.15,2.04-3.69,2.39-10.52-.87-13.21-.65-.54-2.05-.93-2.7-.59-5.78,2.99-8.44-1.82-11.76-4.66-4.4-3.77-8.34-8.11-12.93-11.62-2.4-1.84-5.65-2.99-8.67-3.51-8.7-1.49-16.69-4.44-23.36-10.28-2.32-2.04-4.33-4.56-6.03-7.16-4.09-6.25-7.91-12.68-11.86-19.03-.44-.7-.91-1.56-1.59-1.89-1.23-.61-2.52-1.1-3.82-1.58-.84-.32-1.74.29-1.77,1.18-.05,1.3-.08,2.6.39,3.68,1.67,3.81,3.78,7.42,5.75,11.09.19.36.08.81-.25,1.05h-.01c-.37.27-.88.16-1.13-.22-2.35-3.6-5.2-7.01-6.69-10.94-3.38-8.95-8.34-16.58-15.79-22.56-5.26-4.23-5.63-10.29-6.08-16.27-.46-6.12-.74-12.26-1.02-18.39-.05-1.14-.04-2.45.46-3.41,2.93-5.67.25-9.6-3.96-12.96-4.98-3.97-8-9.13-10.44-14.94-2.17-5.17-4.43-10.75-8.18-14.69-3.41-3.58-8.73-5.57-13.48-7.58-5.63-2.39-11.61-3.92-17.34-6.09-3.37-1.27-5.39-1.11-5.7,3.1-.1,1.38-1.02,2.71-1.56,4.06-.4-.13-.81-.27-1.21-.4.5-2.66,1-5.33,1.59-8.48.2-1.08-.94-1.94-1.9-1.41-4.38,2.38-6,5.96-6.27,9.98-.21,3.18-1.48,4.69-3.89,6.23-3.68,2.35-7.19,4.97-11.38,7.96-.75.54-1.8.16-2.04-.73-1.44-5.29-2.52-9.72-4.01-14-.78-2.23-2.59-4.09-3.84-6.17-1.23-2.06-3.25-4.22-3.16-6.27.06-1.31,3.24-2.59,5.15-3.67,1.13-.64,2.83-.51,3.71-1.33,1.67-1.56,4.02-3.53,4.06-5.37.04-1.84-2.14-4.04-3.84-5.49-1.12-.95-3.13-.82-4.73-1.23-1.42-.37-3.3-.41-4.09-1.34-.82-.96-1.22-2.27-1.63-3.58-.24-.77.25-1.57,1.04-1.69,1.21-.19,2.43-.4,3.31.06,3.44,1.78,6.63,2.59,9-1.09.77-1.19.75-4.07-.12-4.91-2.78-2.68-6.31-4.57-9.2-7.15-2.57-2.29-2.38-4.74.62-6.95,3.32-2.44,6.66-4.94,9.57-7.83,5.89-5.86,12.45-3.68,19.03-2.13,6.62,1.57,13.16,3.84,19.86,4.51,6.29.63,11.6,2.48,16.17,6.67,2.49,2.28,5.03,2.73,7.41.11,3.5-3.85,7.59-5.99,12.9-5.22.64.09,1.24-.31,1.42-.93l.69-2.34c.33-1.11,1.82-1.28,2.4-.28.64,1.1,1.13,1.98,1.49,2.92.92,2.43,1.79,3.68,5.04,3.14,2.5-.42,5.31,1.44,8.04,1.88,7.88,1.26,12.41,8.13,19.21,11.24,3.8,1.74,6.75,1.82,9.11-1.71,2.99-4.47,6.75-4.63,11.31-2.81,3.78,1.51,7.69,2.71,11.59,3.9,2.34.72,11.45-3.69,12.63-6.05,2.26-4.54,1.34-8.36-2.74-11.41-.4-.3-.89-.64-1.03-1.07-.6-1.93-1.22-3.88-1.5-5.87-.05-.35,2.01-1.48,2.21-1.29,1.5,1.4,3.29,2.83,4.03,4.65,2.04,5.02,3.01,10.57,8.38,13.54.63.35.83,1.41,1.36,2.03,1.43,1.68,3.61,4.92,4.26,4.64,2.4-1.01,4.4-3.1,6.32-5.01.75-.74.61-2.45,1.39-3.07.56-.44,2.87.19,2.87.36.07,4.39.07,8.79-.31,13.15-.06.73-1.9,1.57-3.05,1.88-4.77,1.3-9.6,2.39-14.38,3.65-.39.1-.74.33-1.21.68-.75.54-.73,1.66.05,2.17l2.71,1.78c.8.53.79,1.71-.03,2.22-1.55.97-2.91,1.88-4.36,2.07-5.71.75-8.41,4.61-9.97,9.31-1.81,5.49-3.14,11.16-4.29,16.83-.46,2.28.34,5.57,3.48,4.4,5.61-2.1,6.46.51,6.4,5.01,0,.48.12.97.28,1.57.19.68.88,1.09,1.57.94,4.43-.97,6.86,1.53,9.22,5.29,1.22,1.93,4.61,2.83,7.2,3.49,4.06,1.03,7.6,1.25,6.53,7.5-.37,2.17,3.21,5.02,5.38,7.62.29.35.73.54,1.18.48l.74-.09c.47-.06.87-.37,1.05-.81,1.23-2.97,3-5.9,3.19-8.93.49-7.56-.14-15.18.13-22.76.18-5.09.95-10.17,1.57-15.63.09-.78.84-1.32,1.6-1.14,3.92.93,7.31,1.32,9.96,2.93,2.48,1.51,4.65,4.56,5.56,7.37,1.19,3.67,3.06,6.07,6.39,7.74,2.63,1.31,4.86,2.04,5.78-.75.36-1.09,1.84-1.25,2.4-.25,2.51,4.48,4.65,8.36,6.95,12.09,1.45,2.35,3.32,4.44,5.52,6.12,4.03,3.07,5.07,6.48,2.92,11.29-2,4.47-6.24,6.73-11.03,5.19-4.43-1.42-8.58-1.86-12.1,1.53-1.58,1.53-2.41,3.84-3.58,5.8l1.16-.14c.42-.05.85.11,1.13.43,1.71,1.9,3.37,3.84,5.17,5.64,1.02,1.02,2.39,1.69,3.52,2.62M194.17,179.79c.26-.22.23-.64-.06-.82-2.56-1.63-4.45-2.84-6.36-4.04-1.82-1.14-4.54-1.83-5.34-3.47-2.97-6.04-8.67-4.82-13.47-5.35-1.48-.16-3.19,1.82-4.83,3.14-.26.21-.26.59,0,.8,1.31,1.06,2.58,2.5,3.96,2.6,5.3.37,4.78,3.17,3.63,6.82-.74,2.33-1.44,4.85-1.25,7.21.11,1.31,1.65,2.5,2.74,3.73.18.2.46.23.68.08,1.25-.91,2.74-1.68,3.49-2.9,1.11-1.81,1.73-3.92,2.9-7.04.16-.42.75-.44.94-.03,1.18,2.58,2.01,4.37,3.16,6.88.14.31.54.39.79.17,2.88-2.48,5.57-4.8,9.04-7.78ZM103,98.09c-.06.35.25.65.59.58,3.69-.7,7.03-.77,9.58-2.23,3.16-1.81,5.7-4.85,8.09-7.71.48-.58-.5-3.24-1.51-4.07-5.72-4.68-18.06-.14-20.45,7.44-.09.28.1.58.38.64,1.21.26,2.41.52,3.63.78.27.06.44.32.39.58-.23,1.32-.45,2.56-.7,3.99ZM119.99,109.7c-.28-.18-.65-.04-.75.28-.46,1.44-.91,2.48-.98,3.55-.24,3.81,1.35,8.15-3.48,10.49-.33.16-.43,1.89-.07,2.17.66.52,1.98.97,2.62.64,4.86-2.49,9.13-5.69,12.31-10.42.16-.24.09-.56-.15-.72l-9.5-6.01ZM151.85,162.38c.23.3.69.27.86-.07,2.23-4.47,2.07-15.99-.4-17.92-1.19-.93-3.92-.58-5.61.07-.99.39-1.98,3.61-1.84,3.7,3.63,2.22,2.97,5.88,3.64,9.22.35,1.74,1.97,3.23,3.34,4.99Z"/>
  <path class="cls-11" d="M344.02,55.08c-1.75-1.64-3.38-3.18-4.99-4.69-.47-.44-1.19-.46-1.69-.06-2.52,2.03-4.9,3.95-7.45,6-.74.6-.6,1.76.26,2.16,3.81,1.79,7.54,3.54,11.89,5.59.89.42,1,1.65.2,2.22-1.44,1.02-2.58,1.86-3.85,2.35-10.38,3.99-19.17,9.74-26.26,18.74-4.01,5.09-9.27,9.26-12.21,15.29-1.04,2.14-1.96,4.36-2.79,6.6-1.21,3.24-1.81,7.14-6.19,7.45-4.54.32-8.67-.55-10.39-5.73-2.83-8.51-6.38-16.85-8.37-25.55-.81-3.54.93-8.28,2.88-11.69,2.63-4.61,3.4-8.06-1.27-11.6-.7-.53-1.16-1.38-1.76-2.55-.51-1,.42-2.13,1.5-1.82l1.88.55c.79.23,1.56-.24,1.68-1,.85-5.41-2.47-9.19-8.03-9.01-.59.02-1.11-.38-1.26-.95-1.42-5.47-2.87-10.97-4.27-16.47-1.23-4.82-2.26-9.69-3.62-14.47-1.34-4.7-5.2-6.34-9.56-6.71-3.47-.3-7.01.27-10.47-.08-1.56-.16-3.03-1.1-4.52-1.87-.52-.27-.8-.86-.66-1.43v-.05c.13-.51.54-.89,1.05-.98,1.41-.25,2.82-.58,4.24-.58,35.66-.21,71.32-.38,106.99-.51,4.34-.02,6.91,6.51,4.14,10.89-1.97,3.13-4.31,5.65-1.77,9.91.57.96-2.6,5-4.81,6.48-1.86,1.24-4.88.59-7.3,1.15-2.69.63-3.17,2.16-1.09,4.25.88.89,2.4,2.09,2.26,2.89-.75,4.11,2.2,5.4,4.68,7.39,2.32,1.86,4.97,3.97,2.93,7.59-.41.73-1.4.87-2.01.3Z"/>
  <path class="cls-9" d="M705.36,412.28c-1.68.32-3.35-.64-3.94-2.24-2.56-7-4.52-12.81-6.98-18.41-3.79-8.64-.69-16.49,8.55-17.47,9.03-.96,14-7.37,20.49-11.9,1.43-.99,3.67-.78,5.5-1.24,2.72-.68,5.62-1.07,8.07-2.3,3.36-1.69,6.2-4.45,9.6-6.04,3.62-1.69,6.06.27,6.22,4.31.22,5.52,7.95,11.98,13.14,10.59,1.21-.32,2.28-2.47,2.72-3.98,0-.02.01-.04.02-.06.7-2.49,3.65-3.51,5.64-1.86,3.02,2.5,5.9,5.05,6.44,9.88.35,3.12,4.79,6.08,7.83,8.54,10.58,8.55,13.5,18.82,7.23,29.65-2.96,5.12-5.7,10.38-8.91,15.34-1.94,3-4.91,2.98-8.61,3.02-6.39.07-9.31-3.36-12.81-7.52-2.03-2.41-5.4-3.77-6.04-7.01-.28-1.4-1.46-2.47-2.87-2.72-.97-.17-1.87-.22-2.48.17-2.83,1.83-3.95,1.55-6.38-1.05-2.16-2.31-6.19-3.48-9.54-3.87-2.97-.35-6.13,1.11-9.22,1.7-8.09,1.54-16.18,3.06-23.69,4.47Z"/>
  <path class="cls-15" d="M216.9,68.28c-6.37-4.43-12.37-9.55-21.02-9.61-3.99-.03-10.84-5.93-11.43-9.18-1.27-7.07.14-12.4,4.43-15.56.64-.47,1.55-.14,1.78.61s.43,1.41.66,2.1c.33,1.01.69,2.02,1.04,3.03.23.68,1.02.98,1.65.64,1-.55,2-1.09,2.97-1.69.34-.21.65-.47,1.03-.82.61-.55,1.6-.31,1.87.47,2.82,8.42,10.79,5.71,16.75,6.52,4.87.66,7.56,1.42,6.77,6.98-.15,1.05,1.23,2.89,2.36,3.45,6.84,3.34,8.65,6.17,8.58,13.78,0,.94.69,2.22,1.47,2.78,4.4,3.18,9.27,5.81,13.26,9.42,1.86,1.68,2.44,5.09,2.85,7.83.08.52-3.31,2.1-5.18,2.28-5.78.55-6.01.69-4.85,6.2.22,1.04.27,2.11.33,3.28.04.8-.72,1.4-1.49,1.18-.67-.2-1.29-.38-1.88-.55l-1.98,2.66.04.06c.52.81-.11,1.86-1.07,1.79-6.72-.56-7.14-1.25-12.63-7.63-1.47-1.71-4.08-2.44-6.19-3.59-1.56-.85-3.13-1.68-4.7-2.5-.68-.36-.82-1.28-.28-1.83,1.42-1.47,2.79-3.1,4.52-3.7,6.41-2.24,7.94-6.34,3.73-12-.41-.55-1.21-.64-1.72-.18-.9.81-1.78,1.64-2.83,2.16-.98.49-2.45.51-3.5.15-.67-.23-1.55-1.82-1.31-2.29.45-.9,1.53-1.73,2.53-2.06.89-.3,1.81-.5,2.75-.68l.72-3.5Z"/>
  <path class="cls-16" d="M123.36,61.28s.09-.05.14-.07l-1.28-5.14h-2.11c-.85,0-1.58-.6-1.75-1.43-1.98-9.34,2.25-15.27,10.4-14.4,3.34.36,6.98,2.35,9.55,4.64,4.77,4.24,9.13,9.04,13.05,14.08,1.2,1.54.9,4.8.25,6.96-.26.86-3.28,1.14-5.08,1.27-4.29.29-8.6.28-12.9.48-3.86.18-7.13-.99-10.47-3.34-1.1-.77-1.01-2.43.18-3.06Z"/>
  <path class="cls-14" d="M107.01,27.7c.74-.02,1.48.08,2.21.21,2.32.42,4.72.63,6.84,1.53,6.2,2.61,6.55,5.98,1.59,10.43-2.07,1.86-3.88,4.05-5.57,6.26-2.38,3.12-8.12,5.01-10.49,2.85-2.94-2.66-4.15-5.82-1.24-9.62,1-1.31,1.36-3.43,1.3-5.17-.13-4.3,1.51-6.4,5.35-6.49Z"/>
  <path class="cls-12" d="M742.17,321.13c2.59,1.65,5,3.87,7.83,4.8,2.75.9,6.02.11,8.91.73,2.7.58,5.3,1.85,7.78,3.15,2.97,1.56,5.75,3.47,8.62,5.23,1.95,1.19,4.12,2.14,5.79,3.64,1.5,1.35,2.44,3.32,3.35,4.62-5.11-.9-10.28-1.32-15.12-2.79-4.81-1.46-9.37-3.82-13.88-6.1-3.49-1.76-6.94-3.75-10.02-6.15-1.87-1.46-2.99-3.87-4.45-5.86.4-.42.8-.85,1.19-1.27Z"/>
  <path class="cls-13" d="M170.34,4.63c.32-.45.9-.6,1.41-.39,3.23,1.34,7.13,2.17,8.96,4.58,2.56,3.37,5.53,4.48,9.07,5.23,4.21.89,8.54,1.28,12.67,2.43,1.32.37,2.4,1.55,3.52,2.64.52.51.46,1.36-.14,1.77-1.41,1-2.81,2.06-4.38,2.63-2.52.92-5.37.91-7.91,1.81-5.5,1.95-14.26-2.66-14.9-8.28-.56-4.91-1.87-9.05-7.57-10.32l-.77-2.02.06-.08Z"/>
  <path class="cls-5" d="M519.08,375.55c-2.62,2.52-6.98.94-7.76-2.62-.93-4.22.78-8.39.67-12.38-.03-.95,2.08-2.42,3.45-2.84,3.06-.95,5.51-2.05,5.8-5.77.08-1.03.86-2.38,1.73-2.88,1.16-.67,2.81-1.06,4.05-.76.59.14,1.28,2.35.97,3.31-2.52,7.68-5,15.4-8.12,22.85-.17.4-.44.76-.78,1.09Z"/>
  <path class="cls-2" d="M345.45,95.45c-.89-1.97-.44-4.36,1.26-5.69.29-.23.59-.39.91-.47,3.23-.76,6.6-1.04,9.93-1.18,2.24-.09,4.78-.19,6.69.73,2.94,1.43,3.95,3.67.92,6.6-5.68,5.51-11.74,6.59-18.08,2.37-.7-.47-1.15-1.32-1.63-2.36Z"/>
  <path class="cls-3" d="M175.76,31.4l.26.15c2.52,1.48,2.9,4.96.76,6.95l-.08.08c-2.19,2.04-5.71,1.31-6.95-1.41-.35-.77-.63-1.55-.77-2.35-.13-.71.47-1.56,1.28-2.51,1.37-1.59,3.69-1.97,5.5-.9Z"/>
  <path class="cls-4" d="M852.44,446.2c-.42,1.6-.33,4.06-1.34,4.66-3.91,2.32-8.16,4.05-7.2,10.66-.69-.26-1.38-.52-2.07-.78-.69-1.45-2.3-3.24-1.91-4.29,1.97-5.35,6.35-8.46,11.03-11.11.5.29.99.57,1.49.86Z"/>
  <path class="cls-8" d="M193.5,4.5c5,.23,10,.37,14.98.79.61.05,1.69,2.12,1.55,2.26-.92.92-2.34,2.41-3.17,2.18-4.44-1.24-8.75-2.92-13.11-4.45-.09-.26-.18-.51-.26-.77Z"/>
  <path class="cls-7" d="M865.66,433.89c-2.22.85-4.12,1.58-6.01,2.31-.51-2.87-1.02-5.75-1.54-8.62.5-.14,1-.28,1.49-.43,1.76,1.97,3.53,3.93,6.05,6.74Z"/>
  <path class="cls-6" d="M652.41,324.35c2.32,2.02,4.37,4.57,7.03,5.9,2.59,1.3,5.93,1,8.71,2.04,2.58.97,4.97,2.62,7.22,4.27,2.71,1.98,5.18,4.29,7.75,6.45,1.75,1.47,3.76,2.73,5.19,4.46,1.28,1.56,1.92,3.64,2.63,5.06-4.92-1.64-9.97-2.83-14.54-5-4.54-2.16-8.7-5.17-12.83-8.09-3.19-2.26-6.31-4.74-9-7.57-1.63-1.72-2.38-4.27-3.53-6.45.46-.36.91-.72,1.37-1.08Z"/>
</svg>