<?xml version="1.0" encoding="UTF-8"?>
<svg id="Layer_1" data-name="Layer 1" xmlns="http://www.w3.org/2000/svg" viewBox="0 0 630 600">
  <defs>
    <style>
      .cls-1 {
        opacity: .26;
      }

      .cls-2 {
        fill: #d9d9d9;
        stroke-width: 0px;
      }
    </style>
  </defs>
  <g class="cls-1">
    <g>
      <path class="cls-2" d="M227.68,58.06c21.39-5.07,41.06-2.07,58.16,10.39,6.64,4.84,11.31,13.55,14.72,21.43,8.04,18.55,13.84,22.55,34.17,21.81,27.31-1,48.9,9.79,60.52,34.88,3.75,8.1,1.7,19.01,1.8,28.64.05,4.36-1.47,8.73-1.68,13.12-.81,17.02,9.43,25.06,26.1,20.7,26.44-6.91,32.58-21.94,16.82-44.23-14.71-20.82-13.64-41.15-1.18-62.04,5.17-8.66,12.35-10.53,21.79-6.86,28.49,11.1,42.65,39.31,40.26,64.78-.88,9.38-7.26,18.89-12.98,27.04-8.95,12.75-10.84,21.23-2.88,34.68,8.5,14.34,15.76,28.88,12.88,46.13-3.41,20.42-10.73,37.84-33.54,44.02-6.96,1.89-13.28,6.39-19.65,10.1-6.41,3.74-6.63,9.83-4.98,16.22,2.81,10.86,18.09,24.54,29.24,23.68,6.27-.49,13.57-4.45,17.9-9.15,5.87-6.36,10.32-14.53,13.62-22.64,6.8-16.68,41.24-24.3,55.16-17.75,3.07,1.45,5.52,6.05,6.57,9.68,8.75,30.25-13.84,65.76-42.91,73.78-5.32,1.47-11.55.41-17.24-.34-22.61-2.98-27.56-1.09-38.9,19.01-11.8,20.91-28.78,32.48-52.99,34.96-11.94,1.22-20.29-3.52-28.77-10.05-5.66-4.36-11.12-9.14-17.27-12.69-10-5.77-20.84-3.39-24.99,7.12-3.59,9.1-5.54,19.85-4.53,29.48,1.1,10.54,11.51,13.49,20.98,14.45,6.05.61,12.24-.19,18.37-.44,18.41-.74,40.12,13.74,46.65,30.81,3.04,7.94,1.83,14.38-4.37,20.4-24.68,23.99-82.85,18.56-93.41-19.14-4.79-17.1-17.01-23.59-35.13-22.34-23.35,1.61-40.59-8.24-54.59-25.93-7.97-10.07-10.69-20.81-7.58-33.47,1.77-7.18,2.49-14.77,2.56-22.18.09-9.66-5.49-15.45-15.1-15.95-12.34-.63-23.65,2.65-32.25,12.17-6.02,6.66-5.38,14.48-2.25,22.05,1.94,4.68,4.67,9.11,7.55,13.31,12.27,17.85,12.5,41.37.35,59.01-5.97,8.67-13.24,10.83-23.11,6.87-27.6-11.07-45.47-45.82-37.44-74.04,1.51-5.31,5.19-10.37,8.92-14.61,12.52-14.21,13.42-21.54,5.37-38.87-4.95-10.66-10.87-21.59-12.45-32.94-3.64-26.16,8.8-45.17,32.95-55.25,5.95-2.48,12.14-4.8,17.46-8.32,9.92-6.57,11.79-16.28,4.21-25.33-5.12-6.11-11.77-11.33-18.62-15.51-8-4.88-17.97-2.44-23.73,5.13-4.72,6.2-8.76,12.96-12.64,19.74-10.53,18.45-30.33,27.77-51.49,24.78-7.75-1.1-11.31-5.31-13.14-12.13-8.13-30.33,16.39-68.57,47.49-73.39,5.19-.8,10.84.21,16.11,1.26,16.23,3.21,26.4-.83,33.9-15.61,8.5-16.72,19.49-29.13,38.44-35.39,20.44-6.75,36.55-2.61,51.47,11.54,3.43,3.26,7.18,6.61,11.42,8.46,3.79,1.65,8.73,2.48,12.7,1.61,12.12-2.67,19.25-17.72,17.02-34.28-1.71-12.69-9.44-19.2-23.15-19.24-5.79-.02-11.58.21-17.36.51-17.42.9-39.58-13.76-45.81-30.11-3.13-8.23-2.76-15.49,4.93-20.87,6.34-4.44,13-8.43,19.51-12.62ZM280.55,193.61c-4.97,5.4-8.48,8.55-11.14,12.3-2.13,3-3.69,6.6-4.7,10.17-6.41,22.67-22.1,35.71-43.39,43.86-17.94,6.87-20.23,17.59-9.67,33.4,7.45,11.15,15.19,22.75,19.25,35.3,3.07,9.49.51,20.79.47,31.28-.07,18.65,6.63,24.56,25.05,22.09,3.37-.45,6.74-.95,10.1-1.45,18.55-2.73,35.05,1.9,49.74,13.52,3.45,2.73,7.24,5.13,11.13,7.2,10.44,5.54,17.18,4.07,23.43-5.76,3.43-5.4,6.1-11.4,8.36-17.41,7.25-19.25,21.19-31.08,40.19-37.81,19.07-6.76,22.49-19.72,9.53-35.05-10.25-12.12-19.33-24.96-19.76-41.58-.2-7.77,1.2-15.56,1.66-23.36,1.03-17.44-7.36-25.29-24.86-23.19-5.73.69-11.36,2.19-17.09,2.72-18.53,1.71-33.41-6.66-47.9-16.97-5.9-4.2-13.39-6.18-20.4-9.27Z"/>
      <path class="cls-2" d="M493.13,498.5c10.21-.37,20.99-2.09,31.37-.73,8.88,1.17,10.91,7.42,4.79,13.88-6.13,6.49-13.65,13.09-21.84,15.88-13.22,4.5-27.41,6.52-41.36,8.21-3.57.43-9.01-3.55-11.15-7.01-1.01-1.64,2.9-8.02,6.02-10.2,9.91-6.92,20.5-12.88,32.17-20.04Z"/>
      <path class="cls-2" d="M605.74,219.5c3.24,24.44.04,45.79-13.05,64.78-2.16,3.13-8.12,5.51-11.88,4.99-2.41-.33-5.18-6.44-5.75-10.27-2.89-19.51-.18-38.47,7.36-56.71.39-.94.51-2.22,1.21-2.76,4.35-3.39,8.53-8.32,13.39-9.18,2.51-.44,6.31,6.47,8.71,9.15Z"/>
      <path class="cls-2" d="M439.87,49.09c-.82,4.08-.58,8.97-2.86,11.93-1.38,1.8-7.16,1.86-10.06.61-21.02-9.02-39.73-21.18-50.54-42.33-1.61-3.15-2.29-8.69-.57-11.11,1.74-2.46,7.08-3.55,10.7-3.28,14.25,1.06,48.18,27.02,53.33,44.17Z"/>
      <path class="cls-2" d="M246.89,582.06c2.78,8.48-2.53,15.6-10.27,12.66-11.83-4.51-23.4-10.63-33.67-18.03-7.22-5.2-13.13-13.08-17.59-20.92-2.55-4.49-1.04-11.29-1.36-17.05,4.76.38,9.96-.36,14.2,1.33,19.11,7.62,34.91,19.6,45.73,37.49,1.05,1.74,2.23,3.4,2.97,4.52Z"/>
      <path class="cls-2" d="M130.78,99.22c-11.31,1.58-19.98,3.45-28.7,3.69-3.76.1-9.4-2.28-10.91-5.22-1.38-2.69.38-8.95,2.92-11.4,17.53-16.91,38.94-24.11,63.12-22.3,3.44.26,9.11,3.74,9.32,6.12.3,3.4-2.62,8.42-5.68,10.54-10.22,7.06-21.11,13.13-30.07,18.56Z"/>
      <path class="cls-2" d="M16.64,380.92c-3.41-24.14-.07-44.99,11.72-63.85,2.19-3.51,8.31-6.22,12.54-6.12,2.17.05,5.55,6.96,6.03,11.05,2.43,20.72-.07,40.91-10.63,59.24-2.18,3.78-7.57,7.74-11.54,7.8-3.02.04-6.13-5.96-8.12-8.11Z"/>
    </g>
  </g>
</svg>