<?xml version="1.0" encoding="UTF-8"?>
<svg id="Layer_1" data-name="Layer 1" xmlns="http://www.w3.org/2000/svg" xmlns:xlink="http://www.w3.org/1999/xlink" viewBox="0 0 1080 611">
  <defs>
    <style>
      .cls-1 {
        fill: url(#linear-gradient);
      }

      .cls-1, .cls-2 {
        stroke-width: 0px;
      }

      .cls-3 {
        opacity: .37;
      }

      .cls-2 {
        fill: #fff;
      }
    </style>
    <linearGradient id="linear-gradient" x1="539" y1="611" x2="539" y2="-3" gradientUnits="userSpaceOnUse">
      <stop offset="0" stop-color="#fff"/>
      <stop offset="1" stop-color="#024959"/>
    </linearGradient>
  </defs>
  <rect class="cls-1" x="-1" y="-3" width="1080" height="614"/>
  <g class="cls-3">
    <g>
      <path class="cls-2" d="M1179.52-30.37c-1.34,17.77-8.5,32.23-22.33,42.37-5.37,3.94-13.25,5.41-20.17,6.11-16.3,1.65-20.82,5.15-25.25,21.03-5.94,21.34-19.59,35.37-41.82,38.18-7.18.91-15.1-3.36-22.56-5.65-3.38-1.04-6.38-3.28-9.72-4.52-12.95-4.81-21.67,1.12-22.41,15.08-1.16,22.12,8.94,30.56,30.03,23.87,19.7-6.25,35.14-.43,48.21,14.34,5.42,6.12,5.1,12.13-.06,18.52-15.58,19.28-40.85,23.29-59.93,15.17-7.03-2.99-12.8-10.25-17.69-16.67-7.65-10.04-13.74-13.6-26.08-10.75-13.17,3.04-26.18,5.07-38.8-1.39-14.94-7.65-26.59-17.59-25.76-36.73.25-5.84-1.67-11.83-2.97-17.66-1.31-5.87-5.96-7.54-11.3-7.84-9.08-.5-23.41,7.94-25.48,16.77-1.17,4.96.1,11.57,2.67,16.08,3.47,6.09,8.69,11.54,14.14,16.09,11.21,9.35,8.63,37.83.16,46.97-1.87,2.02-6.03,2.78-9.1,2.7-25.52-.68-47.39-26.86-46.45-51.29.17-4.47,2.52-9.02,4.5-13.24,7.86-16.73,7.61-21.02-5.12-34.72-13.25-14.25-18.02-30.21-13.98-49.53,1.99-9.53,7.7-14.81,14.84-19.76,4.76-3.3,9.8-6.34,14.05-10.22,6.91-6.31,7.74-15.27.64-21.05-6.15-5.01-13.97-9.16-21.66-10.75-8.41-1.74-13.25,5.57-16.32,12.65-1.96,4.52-2.86,9.5-4.18,14.3-3.95,14.4-20.48,27.61-35.27,28.47-6.88.4-11.56-2.13-14.68-8.39-12.46-24.96,6.03-68.56,37.75-67.46,14.39.5,22.4-7.34,25.89-21.64,4.49-18.43,16.35-29.33,33.45-35.8,9.74-3.68,18.7-3.14,27.72,2.38,5.11,3.13,10.79,5.56,16.5,7.43,7.44,2.44,13.29-.44,16.03-7.75,3.52-9.38,3.76-18.92-1.48-27.9-3.67-6.28-9.86-7.72-16.48-7.16-4.09.35-8.19,1.36-12.14,2.56-16.8,5.09-35.03-.51-45.67-14.23-5.23-6.74-5.11-12.89.37-19.54,15.34-18.6,46.57-23.86,66.4-10.72,3.73,2.47,6.73,6.56,9.09,10.48,7.9,13.17,13.34,15.66,28.71,13.71,9.45-1.2,19.35-3.09,28.51-1.52,21.1,3.62,32.73,17.9,34.58,39.04.46,5.21.72,10.56,2.14,15.54,2.64,9.28,9.68,13.11,18.53,9.48,5.98-2.45,11.65-6.31,16.56-10.57,5.74-4.98,6.3-13.28,1.87-19.59-3.63-5.17-7.85-9.96-12.14-14.61-11.66-12.67-14-30.26-6.48-45.87,2.75-5.72,6.88-7.44,12.6-7.17,25.43,1.18,48.94,29.52,45.02,54.73-.65,4.21-2.83,8.32-4.93,12.13-6.47,11.75-5.85,20.6,3.72,30.03,10.83,10.68,17.71,22.22,17.89,38.39.19,17.45-6.97,28.88-21.56,36.92-3.36,1.85-6.87,3.92-9.34,6.74-2.21,2.52-4.06,6.13-4.36,9.42-.92,10.02,8.96,19.22,22.3,21.58,10.22,1.8,17.15-2.58,20.56-13.16,1.44-4.47,2.69-9,3.88-13.53,3.59-13.68,20.36-27.19,34.52-27.98,7.13-.4,12.64,1.67,14.91,8.94,1.87,5.99,3.32,12.11,4.95,18.18ZM1061.81-22.85c-2.95-5.17-4.52-8.65-6.77-11.63-1.8-2.38-4.19-4.47-6.7-6.13-15.94-10.52-22.16-25.85-23.22-44.3-.89-15.55-8.62-19.95-23.42-15.68-10.44,3.02-21.31,6.14-32,6.19-8.08.04-16.18-4.72-24.28-7.33-14.39-4.64-20.6-.92-23.23,13.92-.48,2.72-.92,5.44-1.36,8.16-2.45,15-10.08,26.61-22.67,35.1-2.96,2-5.74,4.33-8.29,6.83-6.85,6.71-7.37,12.27-1.31,19.52,3.33,3.98,7.31,7.51,11.4,10.74,13.09,10.33,18.8,24.01,19.33,40.34.54,16.4,9.7,22.22,24.73,15.98,11.88-4.94,24.03-8.79,36.98-5.05,6.05,1.75,11.73,4.75,17.64,7.03,13.22,5.09,21.34.53,24.02-13.51.88-4.59,1.1-9.31,2.1-13.87,3.23-14.74,13.35-24.17,24.88-32.83,4.7-3.53,8.06-8.82,12.18-13.48Z"/>
      <path class="cls-2" d="M774.02,66.43c-2.22,7.97-3.55,16.73-7.15,24.41-3.08,6.57-8.41,6.6-11.9.29-3.5-6.33-6.76-13.76-6.9-20.78-.23-11.32,1.7-22.78,3.83-33.97.54-2.87,4.96-6.09,8.16-6.89,1.51-.38,5.48,4.21,6.4,7.16,2.91,9.36,4.91,19,7.57,29.78Z"/>
      <path class="cls-2" d="M961.87,222c-19.67-3.51-35.38-11.22-46.83-26.01-1.89-2.44-2.26-7.63-.93-10.4.85-1.78,6.25-2.42,9.34-1.91,15.79,2.56,29.76,9.31,42,19.63.63.53,1.59.94,1.83,1.61,1.55,4.19,4.33,8.63,3.8,12.6-.28,2.05-6.55,3.29-9.21,4.48Z"/>
    </g>
  </g>
</svg>