<?xml version="1.0" encoding="UTF-8"?>
<svg id="Layer_1" data-name="Layer 1" xmlns="http://www.w3.org/2000/svg" xmlns:xlink="http://www.w3.org/1999/xlink" viewBox="0 0 495 496">
  <defs>
    <style>
      .cls-1 {
        stroke: #d9d9d9;
      }

      .cls-1, .cls-2 {
        fill: none;
        stroke-miterlimit: 10;
      }

      .cls-3 {
        fill: url(#linear-gradient);
      }

      .cls-3, .cls-4, .cls-5, .cls-6, .cls-7, .cls-8, .cls-9, .cls-10, .cls-11, .cls-12, .cls-13, .cls-14, .cls-15, .cls-16, .cls-17, .cls-18, .cls-19, .cls-20, .cls-21, .cls-22, .cls-23, .cls-24, .cls-25, .cls-26, .cls-27, .cls-28, .cls-29, .cls-30, .cls-31 {
        stroke-width: 0px;
      }

      .cls-4 {
        fill: url(#linear-gradient-28);
      }

      .cls-5 {
        fill: url(#linear-gradient-25);
      }

      .cls-6 {
        fill: url(#linear-gradient-11);
      }

      .cls-7 {
        fill: url(#linear-gradient-12);
      }

      .cls-8 {
        fill: url(#linear-gradient-13);
      }

      .cls-9 {
        fill: url(#linear-gradient-10);
      }

      .cls-10 {
        fill: url(#linear-gradient-17);
      }

      .cls-11 {
        fill: url(#linear-gradient-16);
      }

      .cls-12 {
        fill: url(#linear-gradient-19);
      }

      .cls-13 {
        fill: url(#linear-gradient-15);
      }

      .cls-14 {
        fill: url(#linear-gradient-23);
      }

      .cls-15 {
        fill: url(#linear-gradient-21);
      }

      .cls-16 {
        fill: url(#linear-gradient-18);
      }

      .cls-17 {
        fill: url(#linear-gradient-14);
      }

      .cls-18 {
        fill: url(#linear-gradient-22);
      }

      .cls-19 {
        fill: url(#linear-gradient-20);
      }

      .cls-20 {
        fill: url(#linear-gradient-27);
      }

      .cls-21 {
        fill: url(#linear-gradient-24);
      }

      .cls-22 {
        fill: url(#linear-gradient-26);
      }

      .cls-2 {
        stroke: #006e8e;
      }

      .cls-23 {
        fill: url(#linear-gradient-4);
      }

      .cls-24 {
        fill: url(#linear-gradient-2);
      }

      .cls-25 {
        fill: url(#linear-gradient-3);
      }

      .cls-26 {
        fill: url(#linear-gradient-8);
      }

      .cls-27 {
        fill: url(#linear-gradient-9);
      }

      .cls-28 {
        fill: url(#linear-gradient-7);
      }

      .cls-29 {
        fill: url(#linear-gradient-5);
      }

      .cls-30 {
        fill: url(#linear-gradient-6);
      }

      .cls-31 {
        fill: #006e8e;
      }
    </style>
    <linearGradient id="linear-gradient" x1="355.7" y1="252.56" x2="434.78" y2="252.56" gradientUnits="userSpaceOnUse">
      <stop offset="0" stop-color="#f2f2f2"/>
      <stop offset="1" stop-color="#006e8e"/>
    </linearGradient>
    <linearGradient id="linear-gradient-2" x1="352.33" y1="269.41" x2="357.29" y2="269.41" xlink:href="#linear-gradient"/>
    <linearGradient id="linear-gradient-3" x1="383.91" y1="296.19" x2="394.96" y2="296.19" xlink:href="#linear-gradient"/>
    <linearGradient id="linear-gradient-4" x1="424.43" y1="279.39" x2="435.35" y2="279.39" xlink:href="#linear-gradient"/>
    <linearGradient id="linear-gradient-5" x1="354.82" y1="225.92" x2="365.87" y2="225.92" xlink:href="#linear-gradient"/>
    <linearGradient id="linear-gradient-6" x1="433.25" y1="235.84" x2="438.21" y2="235.84" xlink:href="#linear-gradient"/>
    <linearGradient id="linear-gradient-7" x1="395.4" y1="208.96" x2="406.32" y2="208.96" xlink:href="#linear-gradient"/>
    <linearGradient id="linear-gradient-8" x1="60.65" y1="253.88" x2="139.72" y2="253.88" xlink:href="#linear-gradient"/>
    <linearGradient id="linear-gradient-9" x1="57.27" y1="270.74" x2="62.24" y2="270.74" xlink:href="#linear-gradient"/>
    <linearGradient id="linear-gradient-10" x1="88.85" y1="297.51" x2="99.9" y2="297.51" xlink:href="#linear-gradient"/>
    <linearGradient id="linear-gradient-11" x1="129.38" y1="280.71" x2="140.3" y2="280.71" xlink:href="#linear-gradient"/>
    <linearGradient id="linear-gradient-12" x1="59.77" y1="227.24" x2="70.82" y2="227.24" xlink:href="#linear-gradient"/>
    <linearGradient id="linear-gradient-13" x1="138.2" y1="237.16" x2="143.15" y2="237.16" xlink:href="#linear-gradient"/>
    <linearGradient id="linear-gradient-14" x1="100.35" y1="210.28" x2="111.27" y2="210.28" xlink:href="#linear-gradient"/>
    <linearGradient id="linear-gradient-15" x1="156.11" y1="253.46" x2="251.59" y2="253.46" xlink:href="#linear-gradient"/>
    <linearGradient id="linear-gradient-16" x1="152.03" y1="273.81" x2="158.02" y2="273.81" xlink:href="#linear-gradient"/>
    <linearGradient id="linear-gradient-17" x1="190.16" y1="306.14" x2="203.5" y2="306.14" xlink:href="#linear-gradient"/>
    <linearGradient id="linear-gradient-18" x1="239.1" y1="285.85" x2="252.28" y2="285.85" xlink:href="#linear-gradient"/>
    <linearGradient id="linear-gradient-19" x1="155.04" y1="221.29" x2="168.38" y2="221.29" xlink:href="#linear-gradient"/>
    <linearGradient id="linear-gradient-20" x1="249.74" y1="233.26" x2="255.73" y2="233.26" xlink:href="#linear-gradient"/>
    <linearGradient id="linear-gradient-21" x1="204.04" y1="200.81" x2="217.23" y2="200.81" xlink:href="#linear-gradient"/>
    <linearGradient id="linear-gradient-22" x1="263.38" y1="254.41" x2="342.45" y2="254.41" xlink:href="#linear-gradient"/>
    <linearGradient id="linear-gradient-23" x1="260" y1="271.26" x2="264.97" y2="271.26" xlink:href="#linear-gradient"/>
    <linearGradient id="linear-gradient-24" x1="291.58" y1="298.04" x2="302.64" y2="298.04" xlink:href="#linear-gradient"/>
    <linearGradient id="linear-gradient-25" x1="332.11" y1="281.24" x2="343.03" y2="281.24" xlink:href="#linear-gradient"/>
    <linearGradient id="linear-gradient-26" x1="262.5" y1="227.77" x2="273.55" y2="227.77" xlink:href="#linear-gradient"/>
    <linearGradient id="linear-gradient-27" x1="340.93" y1="237.69" x2="345.88" y2="237.69" xlink:href="#linear-gradient"/>
    <linearGradient id="linear-gradient-28" x1="303.08" y1="210.81" x2="314" y2="210.81" xlink:href="#linear-gradient"/>
  </defs>
  <circle class="cls-1" cx="302.78" cy="256.2" r="76.61"/>
  <g>
    <path class="cls-3" d="M434.78,251.64c-.26,3.4-1.62,6.16-4.27,8.1-1.03.75-2.53,1.03-3.85,1.17-3.12.32-3.98.98-4.82,4.02-1.14,4.08-3.74,6.76-7.99,7.3-1.37.17-2.89-.64-4.31-1.08-.65-.2-1.22-.63-1.86-.86-2.47-.92-4.14.21-4.28,2.88-.22,4.23,1.71,5.84,5.74,4.56,3.77-1.19,6.72-.08,9.21,2.74,1.04,1.17.97,2.32-.01,3.54-2.98,3.68-7.81,4.45-11.45,2.9-1.34-.57-2.45-1.96-3.38-3.19-1.46-1.92-2.63-2.6-4.98-2.05-2.52.58-5,.97-7.41-.27-2.85-1.46-5.08-3.36-4.92-7.02.05-1.12-.32-2.26-.57-3.38-.25-1.12-1.14-1.44-2.16-1.5-1.74-.1-4.47,1.52-4.87,3.2-.22.95.02,2.21.51,3.07.66,1.16,1.66,2.21,2.7,3.07,2.14,1.79,1.65,7.23.03,8.98-.36.39-1.15.53-1.74.52-4.88-.13-9.06-5.13-8.88-9.8.03-.85.48-1.72.86-2.53,1.5-3.2,1.46-4.02-.98-6.63-2.53-2.72-3.44-5.77-2.67-9.46.38-1.82,1.47-2.83,2.84-3.78.91-.63,1.87-1.21,2.68-1.95,1.32-1.21,1.48-2.92.12-4.02-1.17-.96-2.67-1.75-4.14-2.05-1.61-.33-2.53,1.07-3.12,2.42-.37.86-.55,1.82-.8,2.73-.76,2.75-3.91,5.28-6.74,5.44-1.32.08-2.21-.41-2.81-1.6-2.38-4.77,1.15-13.1,7.21-12.89,2.75.1,4.28-1.4,4.95-4.14.86-3.52,3.12-5.6,6.39-6.84,1.86-.7,3.57-.6,5.3.45.98.6,2.06,1.06,3.15,1.42,1.42.47,2.54-.08,3.06-1.48.67-1.79.72-3.62-.28-5.33-.7-1.2-1.88-1.47-3.15-1.37-.78.07-1.56.26-2.32.49-3.21.97-6.69-.1-8.73-2.72-1-1.29-.98-2.46.07-3.73,2.93-3.55,8.9-4.56,12.69-2.05.71.47,1.29,1.25,1.74,2,1.51,2.52,2.55,2.99,5.49,2.62,1.81-.23,3.7-.59,5.45-.29,4.03.69,6.25,3.42,6.61,7.46.09,1,.14,2.02.41,2.97.5,1.77,1.85,2.51,3.54,1.81,1.14-.47,2.23-1.21,3.16-2.02,1.1-.95,1.2-2.54.36-3.74-.69-.99-1.5-1.9-2.32-2.79-2.23-2.42-2.68-5.78-1.24-8.76.53-1.09,1.32-1.42,2.41-1.37,4.86.22,9.35,5.64,8.6,10.46-.12.8-.54,1.59-.94,2.32-1.24,2.24-1.12,3.94.71,5.74,2.07,2.04,3.39,4.25,3.42,7.34.04,3.33-1.33,5.52-4.12,7.06-.64.35-1.31.75-1.78,1.29-.42.48-.78,1.17-.83,1.8-.18,1.91,1.71,3.67,4.26,4.12,1.95.34,3.28-.49,3.93-2.51.27-.85.51-1.72.74-2.59.69-2.61,3.89-5.2,6.6-5.35,1.36-.08,2.42.32,2.85,1.71.36,1.14.63,2.31.95,3.47ZM412.28,253.08c-.56-.99-.86-1.65-1.29-2.22-.34-.46-.8-.86-1.28-1.17-3.05-2.01-4.23-4.94-4.44-8.47-.17-2.97-1.65-3.81-4.48-3-2,.58-4.07,1.17-6.12,1.18-1.54,0-3.09-.9-4.64-1.4-2.75-.89-3.94-.18-4.44,2.66-.09.52-.18,1.04-.26,1.56-.47,2.87-1.93,5.08-4.33,6.71-.57.38-1.1.83-1.59,1.31-1.31,1.28-1.41,2.35-.25,3.73.64.76,1.4,1.44,2.18,2.05,2.5,1.97,3.59,4.59,3.69,7.71.1,3.13,1.85,4.25,4.73,3.05,2.27-.94,4.59-1.68,7.07-.96,1.16.33,2.24.91,3.37,1.34,2.53.97,4.08.1,4.59-2.58.17-.88.21-1.78.4-2.65.62-2.82,2.55-4.62,4.75-6.27.9-.67,1.54-1.69,2.33-2.58Z"/>
    <path class="cls-24" d="M357.29,270.14c-.43,1.52-.68,3.2-1.37,4.67-.59,1.26-1.61,1.26-2.27.06-.67-1.21-1.29-2.63-1.32-3.97-.04-2.16.33-4.35.73-6.49.1-.55.95-1.16,1.56-1.32.29-.07,1.05.81,1.22,1.37.56,1.79.94,3.63,1.45,5.69Z"/>
    <path class="cls-25" d="M393.18,299.86c-3.76-.67-6.76-2.14-8.95-4.97-.36-.47-.43-1.46-.18-1.99.16-.34,1.19-.46,1.79-.37,3.02.49,5.69,1.78,8.03,3.75.12.1.3.18.35.31.3.8.83,1.65.73,2.41-.05.39-1.25.63-1.76.86Z"/>
    <path class="cls-23" d="M426.13,283.38c-.56-.31-1.3-.51-1.63-.98-.2-.29.06-1.14.38-1.51,2.32-2.68,4.99-4.87,8.62-5.47.54-.09,1.39.07,1.67.44.28.37.19,1.21-.02,1.73-.83,2.05-6.25,5.84-9.03,5.8Z"/>
    <path class="cls-29" d="M356.52,229.86c-1.38.01-2.18-1.11-1.39-2.11,1.22-1.54,2.67-2.96,4.24-4.12,1.11-.82,2.55-1.32,3.91-1.61.78-.17,1.72.38,2.58.6-.28.68-.42,1.49-.86,2.03-2.02,2.46-4.53,4.23-7.68,4.99-.31.07-.61.17-.81.23Z"/>
    <path class="cls-30" d="M433.25,235.4c.3-1.74.43-3.11.8-4.41.16-.56.78-1.28,1.28-1.37.46-.08,1.3.48,1.55.97,1.67,3.38,1.73,6.88.33,10.36-.2.5-.98,1.17-1.34,1.09-.52-.11-1.12-.78-1.29-1.33-.56-1.84-.95-3.73-1.33-5.31Z"/>
    <path class="cls-28" d="M397.03,205.32c3.72.63,6.64,2.1,8.87,4.73.42.49.53,1.52.31,2.14-.11.32-1.29.49-1.91.37-3.17-.61-6.04-1.93-8.25-4.35-.46-.5-.79-1.48-.61-2.07.14-.45,1.17-.62,1.58-.82Z"/>
  </g>
  <circle class="cls-1" cx="201.64" cy="256.16" r="76.61"/>
  <circle class="cls-1" cx="99.94" cy="254.61" r="76.61"/>
  <g>
    <path class="cls-26" d="M139.72,252.96c-.26,3.4-1.62,6.16-4.27,8.1-1.03.75-2.53,1.03-3.85,1.17-3.12.32-3.98.98-4.82,4.02-1.14,4.08-3.74,6.76-7.99,7.3-1.37.17-2.89-.64-4.31-1.08-.65-.2-1.22-.63-1.86-.86-2.47-.92-4.14.21-4.28,2.88-.22,4.23,1.71,5.84,5.74,4.56,3.77-1.19,6.72-.08,9.21,2.74,1.04,1.17.97,2.32-.01,3.54-2.98,3.68-7.81,4.45-11.45,2.9-1.34-.57-2.45-1.96-3.38-3.19-1.46-1.92-2.63-2.6-4.98-2.05-2.52.58-5,.97-7.41-.27-2.85-1.46-5.08-3.36-4.92-7.02.05-1.12-.32-2.26-.57-3.38-.25-1.12-1.14-1.44-2.16-1.5-1.74-.1-4.47,1.52-4.87,3.2-.22.95.02,2.21.51,3.07.66,1.16,1.66,2.21,2.7,3.07,2.14,1.79,1.65,7.23.03,8.98-.36.39-1.15.53-1.74.52-4.88-.13-9.06-5.13-8.88-9.8.03-.85.48-1.72.86-2.53,1.5-3.2,1.46-4.02-.98-6.63-2.53-2.72-3.44-5.77-2.67-9.46.38-1.82,1.47-2.83,2.84-3.78.91-.63,1.87-1.21,2.68-1.95,1.32-1.21,1.48-2.92.12-4.02-1.17-.96-2.67-1.75-4.14-2.05-1.61-.33-2.53,1.07-3.12,2.42-.37.86-.55,1.82-.8,2.73-.76,2.75-3.91,5.28-6.74,5.44-1.32.08-2.21-.41-2.81-1.6-2.38-4.77,1.15-13.1,7.21-12.89,2.75.1,4.28-1.4,4.95-4.14.86-3.52,3.12-5.6,6.39-6.84,1.86-.7,3.57-.6,5.3.45.98.6,2.06,1.06,3.15,1.42,1.42.47,2.54-.08,3.06-1.48.67-1.79.72-3.62-.28-5.33-.7-1.2-1.88-1.47-3.15-1.37-.78.07-1.56.26-2.32.49-3.21.97-6.69-.1-8.73-2.72-1-1.29-.98-2.46.07-3.73,2.93-3.55,8.9-4.56,12.69-2.05.71.47,1.29,1.25,1.74,2,1.51,2.52,2.55,2.99,5.49,2.62,1.81-.23,3.7-.59,5.45-.29,4.03.69,6.25,3.42,6.61,7.46.09,1,.14,2.02.41,2.97.5,1.77,1.85,2.51,3.54,1.81,1.14-.47,2.23-1.21,3.16-2.02,1.1-.95,1.2-2.54.36-3.74-.69-.99-1.5-1.9-2.32-2.79-2.23-2.42-2.68-5.78-1.24-8.76.53-1.09,1.32-1.42,2.41-1.37,4.86.22,9.35,5.64,8.6,10.46-.12.8-.54,1.59-.94,2.32-1.24,2.24-1.12,3.94.71,5.74,2.07,2.04,3.39,4.25,3.42,7.34.04,3.33-1.33,5.52-4.12,7.06-.64.35-1.31.75-1.78,1.29-.42.48-.78,1.17-.83,1.8-.18,1.91,1.71,3.67,4.26,4.12,1.95.34,3.28-.49,3.93-2.51.27-.85.51-1.72.74-2.59.69-2.61,3.89-5.2,6.6-5.35,1.36-.08,2.42.32,2.85,1.71.36,1.14.63,2.31.95,3.47ZM117.23,254.4c-.56-.99-.86-1.65-1.29-2.22-.34-.46-.8-.86-1.28-1.17-3.05-2.01-4.23-4.94-4.44-8.47-.17-2.97-1.65-3.81-4.48-3-2,.58-4.07,1.17-6.12,1.18-1.54,0-3.09-.9-4.64-1.4-2.75-.89-3.94-.18-4.44,2.66-.09.52-.18,1.04-.26,1.56-.47,2.87-1.93,5.08-4.33,6.71-.57.38-1.1.83-1.59,1.31-1.31,1.28-1.41,2.35-.25,3.73.64.76,1.4,1.44,2.18,2.05,2.5,1.97,3.59,4.59,3.69,7.71.1,3.13,1.85,4.25,4.73,3.05,2.27-.94,4.59-1.68,7.07-.96,1.16.33,2.24.91,3.37,1.34,2.53.97,4.08.1,4.59-2.58.17-.88.21-1.78.4-2.65.62-2.82,2.55-4.62,4.75-6.27.9-.67,1.54-1.69,2.33-2.58Z"/>
    <path class="cls-27" d="M62.24,271.46c-.43,1.52-.68,3.2-1.37,4.67-.59,1.26-1.61,1.26-2.27.06-.67-1.21-1.29-2.63-1.32-3.97-.04-2.16.33-4.35.73-6.49.1-.55.95-1.16,1.56-1.32.29-.07,1.05.81,1.22,1.37.56,1.79.94,3.63,1.45,5.69Z"/>
    <path class="cls-9" d="M98.13,301.19c-3.76-.67-6.76-2.14-8.95-4.97-.36-.47-.43-1.46-.18-1.99.16-.34,1.19-.46,1.79-.37,3.02.49,5.69,1.78,8.03,3.75.12.1.3.18.35.31.3.8.83,1.65.73,2.41-.05.39-1.25.63-1.76.86Z"/>
    <path class="cls-6" d="M131.08,284.71c-.56-.31-1.3-.51-1.63-.98-.2-.29.06-1.14.38-1.51,2.32-2.68,4.99-4.87,8.62-5.47.54-.09,1.39.07,1.67.44.28.37.19,1.21-.02,1.73-.83,2.05-6.25,5.84-9.03,5.8Z"/>
    <path class="cls-7" d="M61.47,231.18c-1.38.01-2.18-1.11-1.39-2.11,1.22-1.54,2.67-2.96,4.24-4.12,1.11-.82,2.55-1.32,3.91-1.61.78-.17,1.72.38,2.58.6-.28.68-.42,1.49-.86,2.03-2.02,2.46-4.53,4.23-7.68,4.99-.31.07-.61.17-.81.23Z"/>
    <path class="cls-8" d="M138.2,236.72c.3-1.74.43-3.11.8-4.41.16-.56.78-1.28,1.28-1.37.46-.08,1.3.48,1.55.97,1.67,3.38,1.73,6.88.33,10.36-.2.5-.98,1.17-1.34,1.09-.52-.11-1.12-.78-1.29-1.33-.56-1.84-.95-3.73-1.33-5.31Z"/>
    <path class="cls-17" d="M101.98,206.64c3.72.63,6.64,2.1,8.87,4.73.42.49.53,1.52.31,2.14-.11.32-1.29.49-1.91.37-3.17-.61-6.04-1.93-8.25-4.35-.46-.5-.79-1.48-.61-2.07.14-.45,1.17-.62,1.58-.82Z"/>
  </g>
  <g>
    <path class="cls-13" d="M251.59,252.34c-.31,4.1-1.96,7.44-5.15,9.78-1.24.91-3.06,1.25-4.65,1.41-3.76.38-4.8,1.19-5.83,4.85-1.37,4.93-4.52,8.16-9.65,8.81-1.66.21-3.48-.78-5.21-1.3-.78-.24-1.47-.76-2.24-1.04-2.99-1.11-5,.26-5.17,3.48-.27,5.1,2.06,7.05,6.93,5.51,4.55-1.44,8.11-.1,11.13,3.31,1.25,1.41,1.18,2.8-.01,4.27-3.59,4.45-9.43,5.37-13.83,3.5-1.62-.69-2.95-2.37-4.08-3.85-1.76-2.32-3.17-3.14-6.02-2.48-3.04.7-6.04,1.17-8.95-.32-3.45-1.77-6.14-4.06-5.94-8.47.06-1.35-.38-2.73-.69-4.08-.3-1.36-1.38-1.74-2.61-1.81-2.1-.12-5.4,1.83-5.88,3.87-.27,1.15.02,2.67.62,3.71.8,1.41,2,2.66,3.26,3.71,2.59,2.16,1.99,8.73.04,10.84-.43.47-1.39.64-2.1.62-5.89-.16-10.94-6.2-10.72-11.83.04-1.03.58-2.08,1.04-3.05,1.81-3.86,1.76-4.85-1.18-8.01-3.06-3.29-4.16-6.97-3.23-11.43.46-2.2,1.78-3.42,3.42-4.56,1.1-.76,2.26-1.46,3.24-2.36,1.6-1.46,1.79-3.52.15-4.86-1.42-1.16-3.22-2.11-5-2.48-1.94-.4-3.06,1.29-3.76,2.92-.45,1.04-.66,2.19-.96,3.3-.91,3.32-4.73,6.37-8.14,6.57-1.59.09-2.67-.49-3.39-1.94-2.88-5.76,1.39-15.82,8.71-15.57,3.32.12,5.17-1.69,5.97-4.99,1.04-4.25,3.77-6.77,7.72-8.26,2.25-.85,4.32-.73,6.4.55,1.18.72,2.49,1.28,3.81,1.72,1.72.56,3.07-.1,3.7-1.79.81-2.16.87-4.37-.34-6.44-.85-1.45-2.28-1.78-3.8-1.65-.94.08-1.89.31-2.8.59-3.88,1.17-8.08-.12-10.54-3.28-1.21-1.56-1.18-2.97.09-4.51,3.54-4.29,10.75-5.51,15.32-2.47.86.57,1.55,1.51,2.1,2.42,1.82,3.04,3.08,3.61,6.62,3.16,2.18-.28,4.47-.71,6.58-.35,4.87.84,7.55,4.13,7.98,9.01.11,1.2.17,2.44.49,3.58.61,2.14,2.23,3.03,4.28,2.19,1.38-.57,2.69-1.46,3.82-2.44,1.32-1.15,1.45-3.07.43-4.52-.84-1.19-1.81-2.3-2.8-3.37-2.69-2.92-3.23-6.98-1.5-10.58.64-1.32,1.59-1.72,2.91-1.65,5.87.27,11.29,6.81,10.39,12.63-.15.97-.65,1.92-1.14,2.8-1.49,2.71-1.35,4.75.86,6.93,2.5,2.46,4.09,5.13,4.13,8.86.04,4.03-1.61,6.66-4.98,8.52-.78.43-1.59.9-2.16,1.56-.51.58-.94,1.41-1.01,2.17-.21,2.31,2.07,4.44,5.15,4.98,2.36.42,3.96-.59,4.74-3.04.33-1.03.62-2.08.89-3.12.83-3.16,4.7-6.27,7.97-6.46,1.64-.09,2.92.39,3.44,2.06.43,1.38.77,2.79,1.14,4.19ZM224.42,254.08c-.68-1.19-1.04-2-1.56-2.68-.41-.55-.97-1.03-1.55-1.41-3.68-2.43-5.11-5.96-5.36-10.22-.21-3.59-1.99-4.6-5.4-3.62-2.41.7-4.92,1.42-7.38,1.43-1.86,0-3.73-1.09-5.6-1.69-3.32-1.07-4.75-.21-5.36,3.21-.11.63-.21,1.25-.31,1.88-.56,3.46-2.33,6.14-5.23,8.1-.68.46-1.33,1-1.91,1.58-1.58,1.55-1.7,2.83-.3,4.5.77.92,1.69,1.73,2.63,2.48,3.02,2.38,4.34,5.54,4.46,9.31.12,3.78,2.24,5.13,5.71,3.69,2.74-1.14,5.55-2.03,8.53-1.16,1.4.4,2.71,1.1,4.07,1.62,3.05,1.17,4.93.12,5.54-3.12.2-1.06.25-2.15.49-3.2.75-3.4,3.08-5.58,5.74-7.58,1.08-.81,1.86-2.04,2.81-3.11Z"/>
    <path class="cls-11" d="M158.02,274.68c-.51,1.84-.82,3.86-1.65,5.63-.71,1.52-1.94,1.52-2.75.07-.81-1.46-1.56-3.18-1.59-4.79-.05-2.61.39-5.26.88-7.84.13-.66,1.14-1.4,1.88-1.59.35-.09,1.26.97,1.48,1.65.67,2.16,1.13,4.39,1.75,6.87Z"/>
    <path class="cls-10" d="M201.36,310.58c-4.54-.81-8.16-2.59-10.81-6-.44-.56-.52-1.76-.22-2.4.2-.41,1.44-.56,2.16-.44,3.64.59,6.87,2.15,9.69,4.53.15.12.37.22.42.37.36.97,1,1.99.88,2.91-.06.47-1.51.76-2.12,1.03Z"/>
    <path class="cls-16" d="M241.15,290.68c-.68-.38-1.56-.61-1.96-1.19-.24-.35.07-1.38.46-1.83,2.8-3.24,6.03-5.88,10.41-6.61.65-.11,1.68.08,2.01.53.34.45.23,1.46-.02,2.09-1,2.48-7.55,7.06-10.9,7Z"/>
    <path class="cls-12" d="M157.09,226.05c-1.67.01-2.64-1.34-1.67-2.55,1.47-1.85,3.22-3.57,5.12-4.98,1.34-.99,3.08-1.6,4.73-1.95.94-.2,2.07.45,3.12.72-.34.83-.5,1.8-1.04,2.45-2.44,2.97-5.47,5.11-9.28,6.03-.37.09-.73.2-.97.27Z"/>
    <path class="cls-19" d="M249.74,232.74c.36-2.11.52-3.76.97-5.32.2-.68.94-1.55,1.55-1.65.56-.09,1.57.58,1.87,1.17,2.02,4.08,2.09,8.31.39,12.52-.24.6-1.18,1.41-1.62,1.31-.62-.14-1.35-.94-1.56-1.61-.68-2.22-1.14-4.51-1.6-6.41Z"/>
    <path class="cls-15" d="M206,196.41c4.5.76,8.02,2.54,10.72,5.71.5.59.64,1.83.38,2.58-.13.38-1.56.59-2.31.45-3.83-.74-7.29-2.33-9.96-5.26-.55-.6-.95-1.79-.74-2.5.16-.54,1.41-.75,1.91-.99Z"/>
  </g>
  <g>
    <path class="cls-18" d="M342.45,253.49c-.26,3.4-1.62,6.16-4.27,8.1-1.03.75-2.53,1.03-3.85,1.17-3.12.32-3.98.98-4.82,4.02-1.14,4.08-3.74,6.76-7.99,7.3-1.37.17-2.89-.64-4.31-1.08-.65-.2-1.22-.63-1.86-.86-2.47-.92-4.14.21-4.28,2.88-.22,4.23,1.71,5.84,5.74,4.56,3.77-1.19,6.72-.08,9.21,2.74,1.04,1.17.97,2.32-.01,3.54-2.98,3.68-7.81,4.45-11.45,2.9-1.34-.57-2.45-1.96-3.38-3.19-1.46-1.92-2.63-2.6-4.98-2.05-2.52.58-5,.97-7.41-.27-2.85-1.46-5.08-3.36-4.92-7.02.05-1.12-.32-2.26-.57-3.38-.25-1.12-1.14-1.44-2.16-1.5-1.74-.1-4.47,1.52-4.87,3.2-.22.95.02,2.21.51,3.07.66,1.16,1.66,2.21,2.7,3.07,2.14,1.79,1.65,7.23.03,8.98-.36.39-1.15.53-1.74.52-4.88-.13-9.06-5.13-8.88-9.8.03-.85.48-1.72.86-2.53,1.5-3.2,1.46-4.02-.98-6.63-2.53-2.72-3.44-5.77-2.67-9.46.38-1.82,1.47-2.83,2.84-3.78.91-.63,1.87-1.21,2.68-1.95,1.32-1.21,1.48-2.92.12-4.02-1.17-.96-2.67-1.75-4.14-2.05-1.61-.33-2.53,1.07-3.12,2.42-.37.86-.55,1.82-.8,2.73-.76,2.75-3.91,5.28-6.74,5.44-1.32.08-2.21-.41-2.81-1.6-2.38-4.77,1.15-13.1,7.21-12.89,2.75.1,4.28-1.4,4.95-4.14.86-3.52,3.12-5.6,6.39-6.84,1.86-.7,3.57-.6,5.3.45.98.6,2.06,1.06,3.15,1.42,1.42.47,2.54-.08,3.06-1.48.67-1.79.72-3.62-.28-5.33-.7-1.2-1.88-1.47-3.15-1.37-.78.07-1.56.26-2.32.49-3.21.97-6.69-.1-8.73-2.72-1-1.29-.98-2.46.07-3.73,2.93-3.55,8.9-4.56,12.69-2.05.71.47,1.29,1.25,1.74,2,1.51,2.52,2.55,2.99,5.49,2.62,1.81-.23,3.7-.59,5.45-.29,4.03.69,6.25,3.42,6.61,7.46.09,1,.14,2.02.41,2.97.5,1.77,1.85,2.51,3.54,1.81,1.14-.47,2.23-1.21,3.16-2.02,1.1-.95,1.2-2.54.36-3.74-.69-.99-1.5-1.9-2.32-2.79-2.23-2.42-2.68-5.78-1.24-8.76.53-1.09,1.32-1.42,2.41-1.37,4.86.22,9.35,5.64,8.6,10.46-.12.8-.54,1.59-.94,2.32-1.24,2.24-1.12,3.94.71,5.74,2.07,2.04,3.39,4.25,3.42,7.34.04,3.33-1.33,5.52-4.12,7.06-.64.35-1.31.75-1.78,1.29-.42.48-.78,1.17-.83,1.8-.18,1.91,1.71,3.67,4.26,4.12,1.95.34,3.28-.49,3.93-2.51.27-.85.51-1.72.74-2.59.69-2.61,3.89-5.2,6.6-5.35,1.36-.08,2.42.32,2.85,1.71.36,1.14.63,2.31.95,3.47ZM319.96,254.92c-.56-.99-.86-1.65-1.29-2.22-.34-.46-.8-.86-1.28-1.17-3.05-2.01-4.23-4.94-4.44-8.47-.17-2.97-1.65-3.81-4.48-3-2,.58-4.07,1.17-6.12,1.18-1.54,0-3.09-.9-4.64-1.4-2.75-.89-3.94-.18-4.44,2.66-.09.52-.18,1.04-.26,1.56-.47,2.87-1.93,5.08-4.33,6.71-.57.38-1.1.83-1.59,1.31-1.31,1.28-1.41,2.35-.25,3.73.64.76,1.4,1.44,2.18,2.05,2.5,1.97,3.59,4.59,3.69,7.71.1,3.13,1.85,4.25,4.73,3.05,2.27-.94,4.59-1.68,7.07-.96,1.16.33,2.24.91,3.37,1.34,2.53.97,4.08.1,4.59-2.58.17-.88.21-1.78.4-2.65.62-2.82,2.55-4.62,4.75-6.27.9-.67,1.54-1.69,2.33-2.58Z"/>
    <path class="cls-14" d="M264.97,271.98c-.43,1.52-.68,3.2-1.37,4.67-.59,1.26-1.61,1.26-2.27.06-.67-1.21-1.29-2.63-1.32-3.97-.04-2.16.33-4.35.73-6.49.1-.55.95-1.16,1.56-1.32.29-.07,1.05.81,1.22,1.37.56,1.79.94,3.63,1.45,5.69Z"/>
    <path class="cls-21" d="M300.86,301.71c-3.76-.67-6.76-2.14-8.95-4.97-.36-.47-.43-1.46-.18-1.99.16-.34,1.19-.46,1.79-.37,3.02.49,5.69,1.78,8.03,3.75.12.1.3.18.35.31.3.8.83,1.65.73,2.41-.05.39-1.25.63-1.76.86Z"/>
    <path class="cls-5" d="M333.81,285.23c-.56-.31-1.3-.51-1.63-.98-.2-.29.06-1.14.38-1.51,2.32-2.68,4.99-4.87,8.62-5.47.54-.09,1.39.07,1.67.44.28.37.19,1.21-.02,1.73-.83,2.05-6.25,5.84-9.03,5.8Z"/>
    <path class="cls-22" d="M264.2,231.71c-1.38.01-2.18-1.11-1.39-2.11,1.22-1.54,2.67-2.96,4.24-4.12,1.11-.82,2.55-1.32,3.91-1.61.78-.17,1.72.38,2.58.6-.28.68-.42,1.49-.86,2.03-2.02,2.46-4.53,4.23-7.68,4.99-.31.07-.61.17-.81.23Z"/>
    <path class="cls-20" d="M340.93,237.25c.3-1.74.43-3.11.8-4.41.16-.56.78-1.28,1.28-1.37.46-.08,1.3.48,1.55.97,1.67,3.38,1.73,6.88.33,10.36-.2.5-.98,1.17-1.34,1.09-.52-.11-1.12-.78-1.29-1.33-.56-1.84-.95-3.73-1.33-5.31Z"/>
    <path class="cls-4" d="M304.71,207.17c3.72.63,6.64,2.1,8.87,4.73.42.49.53,1.52.31,2.14-.11.32-1.29.49-1.91.37-3.17-.61-6.04-1.93-8.25-4.35-.46-.5-.79-1.48-.61-2.07.14-.45,1.17-.62,1.58-.82Z"/>
  </g>
  <circle class="cls-31" cx="100.59" cy="253.82" r="5.89"/>
  <circle class="cls-31" cx="138.13" cy="253.82" r="5.89"/>
  <circle class="cls-31" cx="174.93" cy="253.82" r="5.89"/>
  <circle class="cls-31" cx="210.26" cy="253.82" r="5.89"/>
  <circle class="cls-31" cx="247.06" cy="253.82" r="5.89"/>
  <circle class="cls-31" cx="283.87" cy="253.82" r="5.89"/>
  <circle class="cls-31" cx="321.4" cy="253.82" r="5.89"/>
  <circle class="cls-31" cx="358.21" cy="253.82" r="5.89"/>
  <circle class="cls-31" cx="393.54" cy="253.82" r="5.89"/>
  <line class="cls-2" x1="100.59" y1="253.82" x2="466.45" y2="253.82"/>
  <circle class="cls-31" cx="429.87" cy="254.03" r="5.89"/>
  <circle class="cls-31" cx="466.58" cy="254.03" r="5.89"/>
</svg>