<?xml version="1.0" encoding="UTF-8"?>
<svg id="Layer_1" data-name="Layer 1" xmlns="http://www.w3.org/2000/svg" xmlns:xlink="http://www.w3.org/1999/xlink" viewBox="0 0 165 176">
  <defs>
    <style>
      .cls-1 {
        fill: url(#New_Gradient_Swatch_1);
      }

      .cls-1, .cls-2, .cls-3, .cls-4, .cls-5, .cls-6, .cls-7, .cls-8, .cls-9, .cls-10, .cls-11, .cls-12 {
        stroke-width: 0px;
      }

      .cls-2 {
        fill: url(#New_Gradient_Swatch_1-7);
      }

      .cls-3 {
        fill: url(#New_Gradient_Swatch_1-4);
      }

      .cls-4 {
        fill: url(#New_Gradient_Swatch_1-6);
      }

      .cls-5 {
        fill: url(#New_Gradient_Swatch_1-9);
      }

      .cls-6 {
        fill: url(#New_Gradient_Swatch_1-3);
      }

      .cls-7 {
        fill: url(#New_Gradient_Swatch_1-2);
      }

      .cls-8 {
        fill: url(#New_Gradient_Swatch_1-8);
      }

      .cls-9 {
        fill: url(#New_Gradient_Swatch_1-5);
      }

      .cls-10 {
        fill: url(#New_Gradient_Swatch_1-12);
      }

      .cls-11 {
        fill: url(#New_Gradient_Swatch_1-11);
      }

      .cls-12 {
        fill: url(#New_Gradient_Swatch_1-10);
      }
    </style>
    <linearGradient id="New_Gradient_Swatch_1" data-name="New Gradient Swatch 1" x1="36.13" y1="90.3" x2="138.82" y2="90.3" gradientUnits="userSpaceOnUse">
      <stop offset="0" stop-color="#f2f2f2"/>
      <stop offset="1" stop-color="#006e8e"/>
    </linearGradient>
    <linearGradient id="New_Gradient_Swatch_1-2" data-name="New Gradient Swatch 1" x1="31.75" y1="112.18" x2="38.19" y2="112.18" xlink:href="#New_Gradient_Swatch_1"/>
    <linearGradient id="New_Gradient_Swatch_1-3" data-name="New Gradient Swatch 1" x1="72.76" y1="146.95" x2="87.11" y2="146.95" xlink:href="#New_Gradient_Swatch_1"/>
    <linearGradient id="New_Gradient_Swatch_1-4" data-name="New Gradient Swatch 1" x1="125.39" y1="125.14" x2="139.57" y2="125.14" xlink:href="#New_Gradient_Swatch_1"/>
    <linearGradient id="New_Gradient_Swatch_1-5" data-name="New Gradient Swatch 1" x1="34.99" y1="55.7" x2="49.34" y2="55.7" xlink:href="#New_Gradient_Swatch_1"/>
    <linearGradient id="New_Gradient_Swatch_1-6" data-name="New Gradient Swatch 1" x1="136.84" y1="68.58" x2="143.27" y2="68.58" xlink:href="#New_Gradient_Swatch_1"/>
    <linearGradient id="New_Gradient_Swatch_1-7" data-name="New Gradient Swatch 1" x1="87.68" y1="33.68" x2="101.87" y2="33.68" xlink:href="#New_Gradient_Swatch_1"/>
    <linearGradient id="New_Gradient_Swatch_1-8" data-name="New Gradient Swatch 1" x1="-213.55" y1="1314.99" x2="-191.18" y2="1314.99" gradientTransform="translate(-959.11 -732.32) rotate(-60.76)" xlink:href="#New_Gradient_Swatch_1"/>
    <linearGradient id="New_Gradient_Swatch_1-9" data-name="New Gradient Swatch 1" x1="-217.31" y1="1313.46" x2="-199.42" y2="1313.46" gradientTransform="translate(-959.11 -732.32) rotate(-60.76)" xlink:href="#New_Gradient_Swatch_1"/>
    <linearGradient id="New_Gradient_Swatch_1-10" data-name="New Gradient Swatch 1" x1="-220.48" y1="1315.52" x2="-200.56" y2="1315.52" gradientTransform="translate(-959.11 -732.32) rotate(-60.76)" xlink:href="#New_Gradient_Swatch_1"/>
    <linearGradient id="New_Gradient_Swatch_1-11" data-name="New Gradient Swatch 1" x1="-206.02" y1="1314.74" x2="-195.38" y2="1314.74" gradientTransform="translate(-959.11 -732.32) rotate(-60.76)" xlink:href="#New_Gradient_Swatch_1"/>
    <linearGradient id="New_Gradient_Swatch_1-12" data-name="New Gradient Swatch 1" x1="3.6" y1="86.2" x2="162.69" y2="86.2" xlink:href="#New_Gradient_Swatch_1"/>
  </defs>
  <g>
    <path class="cls-1" d="M138.82,89.1c-.33,4.41-2.11,8-5.54,10.51-1.33.98-3.29,1.34-5.01,1.52-4.05.41-5.17,1.28-6.26,5.22-1.47,5.3-4.86,8.78-10.38,9.47-1.78.23-3.75-.83-5.6-1.4-.84-.26-1.58-.81-2.41-1.12-3.21-1.19-5.38.28-5.56,3.74-.29,5.49,2.22,7.58,7.45,5.92,4.89-1.55,8.72-.11,11.96,3.56,1.35,1.52,1.27,3.01-.02,4.6-3.87,4.78-10.14,5.78-14.87,3.77-1.75-.74-3.18-2.54-4.39-4.14-1.9-2.49-3.41-3.37-6.47-2.67-3.27.75-6.5,1.26-9.63-.35-3.71-1.9-6.6-4.36-6.39-9.11.06-1.45-.41-2.94-.74-4.38-.33-1.46-1.48-1.87-2.8-1.94-2.25-.12-5.81,1.97-6.32,4.16-.29,1.23.02,2.87.66,3.99.86,1.51,2.16,2.86,3.51,3.99,2.78,2.32,2.14,9.39.04,11.66-.46.5-1.5.69-2.26.67-6.33-.17-11.76-6.66-11.53-12.73.04-1.11.62-2.24,1.12-3.28,1.95-4.15,1.89-5.22-1.27-8.62-3.29-3.54-4.47-7.5-3.47-12.29.49-2.36,1.91-3.67,3.68-4.9,1.18-.82,2.43-1.57,3.49-2.54,1.72-1.57,1.92-3.79.16-5.22-1.53-1.24-3.47-2.27-5.38-2.67-2.09-.43-3.29,1.38-4.05,3.14-.49,1.12-.71,2.36-1.04,3.55-.98,3.57-5.08,6.85-8.75,7.06-1.71.1-2.87-.53-3.64-2.08-3.09-6.19,1.5-17.01,9.37-16.74,3.57.12,5.56-1.82,6.42-5.37,1.12-4.57,4.06-7.28,8.3-8.88,2.42-.91,4.64-.78,6.88.59,1.27.78,2.68,1.38,4.1,1.84,1.85.61,3.3-.11,3.98-1.92.87-2.33.93-4.7-.37-6.92-.91-1.56-2.45-1.91-4.09-1.78-1.02.09-2.03.34-3.01.64-4.17,1.26-8.69-.13-11.33-3.53-1.3-1.67-1.27-3.2.09-4.85,3.81-4.62,11.56-5.92,16.48-2.66.93.61,1.67,1.63,2.26,2.6,1.96,3.27,3.31,3.89,7.12,3.4,2.35-.3,4.8-.77,7.07-.38,5.24.9,8.12,4.44,8.58,9.69.11,1.29.18,2.62.53,3.86.65,2.3,2.4,3.25,4.6,2.35,1.48-.61,2.89-1.57,4.11-2.62,1.42-1.24,1.56-3.3.46-4.86-.9-1.28-1.95-2.47-3.01-3.63-2.89-3.14-3.47-7.51-1.61-11.38.68-1.42,1.71-1.84,3.13-1.78,6.31.29,12.14,7.32,11.17,13.58-.16,1.04-.7,2.07-1.22,3.01-1.61,2.92-1.45,5.11.92,7.45,2.69,2.65,4.4,5.51,4.44,9.53.05,4.33-1.73,7.17-5.35,9.16-.83.46-1.7.97-2.32,1.67-.55.63-1.01,1.52-1.08,2.34-.23,2.49,2.22,4.77,5.53,5.35,2.54.45,4.26-.64,5.1-3.26.36-1.11.67-2.23.96-3.36.89-3.39,5.05-6.75,8.57-6.94,1.77-.1,3.14.42,3.7,2.22.46,1.49.82,3.01,1.23,4.51ZM109.61,90.97c-.73-1.28-1.12-2.15-1.68-2.89-.45-.59-1.04-1.11-1.66-1.52-3.96-2.61-5.5-6.41-5.76-10.99-.22-3.86-2.14-4.95-5.81-3.89-2.59.75-5.29,1.52-7.94,1.54-2.01,0-4.02-1.17-6.03-1.82-3.57-1.15-5.11-.23-5.76,3.45-.12.67-.23,1.35-.34,2.02-.61,3.72-2.5,6.6-5.63,8.71-.73.5-1.43,1.07-2.06,1.69-1.7,1.66-1.83,3.05-.33,4.84.83.99,1.81,1.86,2.83,2.66,3.25,2.56,4.66,5.96,4.8,10.01.13,4.07,2.41,5.51,6.14,3.96,2.95-1.23,5.96-2.18,9.18-1.25,1.5.43,2.91,1.18,4.38,1.74,3.28,1.26,5.3.13,5.96-3.35.22-1.14.27-2.31.52-3.44.8-3.66,3.31-6,6.17-8.15,1.17-.88,2-2.19,3.02-3.34Z"/>
    <path class="cls-7" d="M38.19,113.12c-.55,1.98-.88,4.15-1.77,6.06-.77,1.63-2.09,1.64-2.95.07-.87-1.57-1.68-3.42-1.71-5.16-.06-2.81.42-5.65.95-8.43.14-.71,1.23-1.51,2.02-1.71.38-.09,1.36,1.05,1.59,1.78.72,2.32,1.22,4.72,1.88,7.39Z"/>
    <path class="cls-6" d="M84.81,151.73c-4.88-.87-8.78-2.78-11.62-6.45-.47-.6-.56-1.89-.23-2.58.21-.44,1.55-.6,2.32-.48,3.92.64,7.39,2.31,10.42,4.87.16.13.39.23.46.4.38,1.04,1.07,2.14.94,3.13-.07.51-1.62.82-2.29,1.11Z"/>
    <path class="cls-3" d="M127.59,130.33c-.73-.41-1.68-.66-2.11-1.28-.26-.37.08-1.49.5-1.97,3.01-3.48,6.48-6.32,11.2-7.11.7-.12,1.81.09,2.17.57.36.48.25,1.57-.02,2.25-1.07,2.67-8.12,7.59-11.72,7.53Z"/>
    <path class="cls-9" d="M37.2,60.82c-1.79.02-2.84-1.44-1.8-2.74,1.59-1.99,3.46-3.84,5.51-5.35,1.44-1.07,3.31-1.72,5.08-2.1,1.02-.22,2.23.49,3.35.78-.36.89-.54,1.93-1.12,2.64-2.63,3.2-5.89,5.5-9.98,6.48-.4.1-.79.22-1.05.29Z"/>
    <path class="cls-4" d="M136.84,68.02c.39-2.27.56-4.04,1.04-5.73.21-.73,1.01-1.66,1.67-1.77.6-.1,1.69.62,2.01,1.25,2.17,4.39,2.25,8.94.42,13.46-.26.64-1.27,1.52-1.74,1.41-.67-.15-1.45-1.01-1.67-1.73-.73-2.39-1.23-4.85-1.72-6.9Z"/>
    <path class="cls-2" d="M89.8,28.95c4.84.82,8.63,2.73,11.52,6.14.54.63.69,1.97.41,2.78-.14.41-1.67.64-2.49.48-4.12-.8-7.84-2.51-10.71-5.65-.59-.65-1.02-1.92-.79-2.69.18-.58,1.52-.81,2.05-1.06Z"/>
  </g>
  <g id="dgXEtr">
    <g>
      <path class="cls-8" d="M86.57,87.94c1.27-2.06,4.01-2.06,5.33-.12,1.92,2.83.76,6.45-2.54,7.95-3.15,1.43-6.97.44-9.28-2.4-3.84-4.73-3.15-11.29,1.59-15.08,4.09-3.27,9.35-3.84,13.43-1.46,4.31,2.51,6.71,7.64,5.81,12.5-.16.89-.5,1.74-.96,2.57.06-.71.14-1.41.18-2.12.27-5.01-2.65-9.67-7.05-11.26-5.6-2.03-12.72,2.81-12.88,8.76-.08,2.96,2.16,6.13,4.95,7.04,2.16.7,5.09-.52,6.09-2.54.59-1.2.25-3.15-.76-4.02-1.28-1.1-2.58-.72-3.9.2Z"/>
      <path class="cls-5" d="M74.41,88.85c1.22,5.93,5.68,8.46,9.34,9.09,2.5.43,4.83-.1,6.95-1.42,2.36-1.47,3.93-3.55,3.73-6.44-.2-2.77-1.7-4.76-4.44-5.68.04-.11.08-.22.12-.34.82.26,1.71.37,2.44.79,3.79,2.17,4.68,7.22,2,11.01-2.47,3.5-7.57,4.98-12.14,3.54-4.44-1.4-7.74-5.42-7.99-9.73-.02-.27,0-.55,0-.82Z"/>
      <path class="cls-12" d="M73.18,94.63c4.71,6.81,10.12,7.62,15.22,6.13,6.66-1.95,8.64-5.43,9.22-11.77,2.03,4.28-1.13,10.54-6.49,12.89-7.19,3.14-15.01,0-17.94-7.25Z"/>
      <path class="cls-11" d="M97.41,84.78c-5.68-6.21-13.47-3.93-14.07,2.48-.76-3.14,1.34-6.39,4.83-7.49,2.96-.93,7.93,1.76,9.23,5.02Z"/>
    </g>
  </g>
  <path class="cls-10" d="M162.1,86.14c-3.54-39.48-39.46-71.97-81.81-68.24-34.53,3.05-62.63,31.05-65.76,65.52-3.86,42.39,28.61,78.52,68.22,82.1-10.45.59-20.62-.93-30.21-5.06C23.75,148.09,7.17,126.13,4.02,95.06-.39,51.55,30.44,13.38,73.79,7.48c40.92-5.57,79.22,21.57,87.23,61.99,1.08,5.44,1.14,11.07,1.67,16.62-.2.02-.39.04-.59.05Z"/>
</svg>