<?xml version="1.0" encoding="UTF-8"?>
<svg id="Layer_1" data-name="Layer 1" xmlns="http://www.w3.org/2000/svg" xmlns:xlink="http://www.w3.org/1999/xlink" viewBox="0 0 165 176">
  <defs>
    <style>
      .cls-1 {
        fill: url(#New_Gradient_Swatch_1);
      }

      .cls-1, .cls-2, .cls-3, .cls-4, .cls-5 {
        stroke-width: 0px;
      }

      .cls-2 {
        fill: url(#New_Gradient_Swatch_1-7);
      }

      .cls-3 {
        fill: url(#New_Gradient_Swatch_1-9);
      }

      .cls-4 {
        fill: url(#New_Gradient_Swatch_1-8);
      }

      .cls-5 {
        fill: url(#New_Gradient_Swatch_1-10);
      }

      .cls-6 {
        stroke: url(#New_Gradient_Swatch_1-3);
      }

      .cls-6, .cls-7, .cls-8, .cls-9, .cls-10 {
        fill: none;
        stroke-miterlimit: 10;
      }

      .cls-7 {
        stroke: url(#New_Gradient_Swatch_1-2);
      }

      .cls-8 {
        stroke: url(#New_Gradient_Swatch_1-4);
      }

      .cls-9 {
        stroke: url(#New_Gradient_Swatch_1-6);
      }

      .cls-10 {
        stroke: url(#New_Gradient_Swatch_1-5);
      }
    </style>
    <linearGradient id="New_Gradient_Swatch_1" data-name="New Gradient Swatch 1" x1="41.46" y1="83.15" x2="126.83" y2="83.15" gradientUnits="userSpaceOnUse">
      <stop offset="0" stop-color="#f2f2f2"/>
      <stop offset="1" stop-color="#006e8e"/>
    </linearGradient>
    <linearGradient id="New_Gradient_Swatch_1-2" data-name="New Gradient Swatch 1" x1="37.32" y1="101.34" x2="43.69" y2="101.34" xlink:href="#New_Gradient_Swatch_1"/>
    <linearGradient id="New_Gradient_Swatch_1-3" data-name="New Gradient Swatch 1" x1="71.41" y1="130.26" x2="84.34" y2="130.26" xlink:href="#New_Gradient_Swatch_1"/>
    <linearGradient id="New_Gradient_Swatch_1-4" data-name="New Gradient Swatch 1" x1="115.17" y1="112.11" x2="127.96" y2="112.11" xlink:href="#New_Gradient_Swatch_1"/>
    <linearGradient id="New_Gradient_Swatch_1-5" data-name="New Gradient Swatch 1" x1="40.01" y1="54.38" x2="53.12" y2="54.38" xlink:href="#New_Gradient_Swatch_1"/>
    <linearGradient id="New_Gradient_Swatch_1-6" data-name="New Gradient Swatch 1" x1="124.68" y1="65.09" x2="131.04" y2="65.09" xlink:href="#New_Gradient_Swatch_1"/>
    <linearGradient id="New_Gradient_Swatch_1-7" data-name="New Gradient Swatch 1" x1="84.32" y1="36.07" x2="96.11" y2="36.07" xlink:href="#New_Gradient_Swatch_1"/>
    <linearGradient id="New_Gradient_Swatch_1-8" data-name="New Gradient Swatch 1" x1="-305.84" y1="1470.49" x2="-287.24" y2="1470.49" gradientTransform="translate(-1053.76 -893.76) rotate(-60.76)" xlink:href="#New_Gradient_Swatch_1"/>
    <linearGradient id="New_Gradient_Swatch_1-9" data-name="New Gradient Swatch 1" x1="-299.59" y1="1470.28" x2="-290.74" y2="1470.28" gradientTransform="translate(-1053.76 -893.76) rotate(-60.76)" xlink:href="#New_Gradient_Swatch_1"/>
    <linearGradient id="New_Gradient_Swatch_1-10" data-name="New Gradient Swatch 1" x1="6.42" y1="83.26" x2="159" y2="83.26" xlink:href="#New_Gradient_Swatch_1"/>
  </defs>
  <g>
    <path class="cls-1" d="M126.83,82.15c-.28,3.67-1.75,6.65-4.61,8.74-1.11.81-2.73,1.12-4.16,1.26-3.36.34-4.3,1.06-5.21,4.34-1.23,4.4-4.04,7.3-8.63,7.88-1.48.19-3.12-.69-4.66-1.17-.7-.21-1.32-.68-2.01-.93-2.67-.99-4.47.23-4.62,3.11-.24,4.56,1.84,6.3,6.2,4.92,4.07-1.29,7.25-.09,9.95,2.96,1.12,1.26,1.05,2.5-.01,3.82-3.21,3.98-8.43,4.8-12.37,3.13-1.45-.62-2.64-2.11-3.65-3.44-1.58-2.07-2.83-2.8-5.38-2.22-2.72.63-5.4,1.05-8.01-.29-3.08-1.58-5.49-3.63-5.31-7.58.05-1.2-.34-2.44-.61-3.64-.27-1.21-1.23-1.56-2.33-1.62-1.87-.1-4.83,1.64-5.26,3.46-.24,1.02.02,2.39.55,3.32.72,1.26,1.79,2.38,2.92,3.32,2.31,1.93,1.78,7.81.03,9.69-.39.42-1.24.57-1.88.56-5.26-.14-9.78-5.54-9.58-10.58.04-.92.52-1.86.93-2.73,1.62-3.45,1.57-4.34-1.06-7.16-2.73-2.94-3.72-6.23-2.89-10.22.41-1.97,1.59-3.05,3.06-4.08.98-.68,2.02-1.31,2.9-2.11,1.43-1.3,1.6-3.15.13-4.34-1.27-1.03-2.88-1.89-4.47-2.22-1.74-.36-2.73,1.15-3.37,2.61-.4.93-.59,1.96-.86,2.95-.82,2.97-4.22,5.7-7.28,5.87-1.42.08-2.38-.44-3.03-1.73-2.57-5.15,1.24-14.14,7.79-13.92,2.97.1,4.62-1.52,5.34-4.47.93-3.8,3.37-6.05,6.9-7.39,2.01-.76,3.86-.65,5.72.49,1.05.65,2.23,1.15,3.41,1.53,1.53.5,2.74-.09,3.31-1.6.73-1.94.78-3.9-.3-5.76-.76-1.3-2.03-1.59-3.4-1.48-.84.07-1.69.28-2.5.53-3.47,1.05-7.23-.11-9.42-2.94-1.08-1.39-1.05-2.66.08-4.03,3.16-3.84,9.61-4.92,13.7-2.21.77.51,1.39,1.35,1.88,2.16,1.63,2.72,2.75,3.23,5.92,2.83,1.95-.25,3.99-.64,5.88-.31,4.35.75,6.75,3.69,7.13,8.05.09,1.07.15,2.18.44,3.21.54,1.91,2,2.71,3.82,1.96,1.23-.51,2.4-1.3,3.42-2.18,1.18-1.03,1.3-2.74.39-4.04-.75-1.07-1.62-2.05-2.5-3.01-2.41-2.61-2.89-6.24-1.34-9.46.57-1.18,1.42-1.53,2.6-1.48,5.25.24,10.1,6.09,9.29,11.29-.13.87-.58,1.72-1.02,2.5-1.33,2.42-1.21,4.25.77,6.2,2.23,2.2,3.65,4.58,3.69,7.92.04,3.6-1.44,5.96-4.45,7.62-.69.38-1.42.81-1.93,1.39-.46.52-.84,1.27-.9,1.94-.19,2.07,1.85,3.97,4.6,4.45,2.11.37,3.54-.53,4.24-2.71.3-.92.55-1.86.8-2.79.74-2.82,4.2-5.61,7.12-5.77,1.47-.08,2.61.35,3.08,1.84.39,1.24.68,2.5,1.02,3.75ZM102.55,83.7c-.61-1.07-.93-1.79-1.4-2.4-.37-.49-.87-.92-1.38-1.26-3.29-2.17-4.57-5.33-4.79-9.14-.18-3.21-1.78-4.12-4.83-3.23-2.15.62-4.4,1.27-6.6,1.28-1.67,0-3.34-.97-5.01-1.51-2.97-.96-4.25-.19-4.79,2.87-.1.56-.19,1.12-.28,1.68-.51,3.09-2.08,5.49-4.68,7.24-.61.41-1.18.89-1.71,1.41-1.41,1.38-1.52,2.53-.27,4.03.69.82,1.51,1.55,2.35,2.22,2.7,2.13,3.88,4.95,3.99,8.32.11,3.38,2,4.59,5.1,3.3,2.45-1.02,4.96-1.81,7.63-1.04,1.25.36,2.42.98,3.64,1.45,2.73,1.05,4.4.11,4.96-2.79.18-.95.23-1.92.43-2.86.67-3.04,2.76-4.99,5.13-6.77.97-.73,1.66-1.82,2.51-2.78Z"/>
    <path class="cls-7" d="M43.17,102.12c-.46,1.65-.73,3.45-1.48,5.04-.64,1.36-1.74,1.36-2.46.06-.72-1.31-1.39-2.84-1.42-4.29-.05-2.33.35-4.7.79-7.01.11-.59,1.02-1.26,1.68-1.42.31-.08,1.13.87,1.32,1.48.6,1.93,1.01,3.92,1.56,6.14Z"/>
    <path class="cls-6" d="M81.93,134.22c-4.06-.72-7.3-2.32-9.66-5.37-.39-.5-.47-1.57-.19-2.15.18-.37,1.29-.5,1.93-.39,3.26.53,6.14,1.92,8.67,4.05.13.11.33.19.38.33.32.87.89,1.78.78,2.6-.06.42-1.35.68-1.9.92Z"/>
    <path class="cls-8" d="M117.5,116.42c-.61-.34-1.4-.55-1.76-1.06-.22-.31.07-1.24.41-1.64,2.5-2.89,5.39-5.26,9.31-5.91.58-.1,1.5.08,1.8.47.3.4.21,1.31-.02,1.87-.89,2.22-6.75,6.31-9.75,6.26Z"/>
    <path class="cls-10" d="M42.35,58.64c-1.49.01-2.36-1.2-1.5-2.28,1.32-1.66,2.88-3.19,4.58-4.45,1.2-.89,2.75-1.43,4.23-1.74.84-.18,1.85.41,2.79.65-.3.74-.45,1.61-.93,2.19-2.18,2.66-4.89,4.57-8.29,5.39-.33.08-.65.18-.87.24Z"/>
    <path class="cls-9" d="M125.19,64.62c.32-1.88.46-3.36.87-4.76.17-.6.84-1.38,1.38-1.47.5-.08,1.41.51,1.67,1.04,1.81,3.65,1.87,7.43.35,11.19-.22.53-1.06,1.26-1.45,1.17-.56-.12-1.21-.84-1.39-1.44-.61-1.99-1.02-4.03-1.43-5.73Z"/>
    <path class="cls-2" d="M86.08,32.14c4.02.68,7.17,2.27,9.58,5.11.45.53.57,1.64.34,2.31-.12.34-1.39.53-2.07.4-3.43-.66-6.52-2.09-8.9-4.7-.49-.54-.85-1.6-.66-2.23.15-.48,1.26-.67,1.7-.88Z"/>
  </g>
  <g id="dgXEtr">
    <g>
      <path class="cls-4" d="M82.11,84.4c1.05-1.71,3.33-1.71,4.43-.1,1.6,2.35.64,5.36-2.11,6.61-2.62,1.19-5.79.37-7.71-2-3.2-3.93-2.62-9.39,1.32-12.54,3.4-2.72,7.77-3.2,11.16-1.22,3.58,2.09,5.58,6.35,4.83,10.39-.14.74-.41,1.45-.8,2.14.05-.59.12-1.18.15-1.76.22-4.16-2.2-8.04-5.86-9.36-4.66-1.69-10.58,2.34-10.71,7.29-.06,2.46,1.79,5.1,4.12,5.85,1.79.58,4.23-.44,5.06-2.11.49-.99.21-2.62-.63-3.34-1.07-.91-2.14-.59-3.25.16Z"/>
      <path class="cls-3" d="M91.13,81.78c-4.72-5.17-11.2-3.27-11.69,2.06-.63-2.61,1.11-5.31,4.02-6.23,2.46-.78,6.6,1.47,7.68,4.17Z"/>
    </g>
  </g>
  <g id="_84rjus" data-name="84rjus">
    <path class="cls-5" d="M158.44,83.2c-3.39-37.87-30.15-76.25-81.75-72.89C43.57,13.24,9.39,50.02,9.39,83.22c0,50.47,34.95,72.69,72.94,76.12-10.02.57-19.77-.9-28.97-4.85-27.61-11.87-43.51-32.94-46.54-62.74C2.59,50.02,32.16,13.41,73.74,7.76c39.25-5.34,75.98,20.69,83.66,59.46,1.03,5.21,1.09,10.62,1.6,15.94-.19.02-.38.03-.56.05Z"/>
  </g>
</svg>