<?xml version="1.0" encoding="UTF-8"?>
<svg id="Layer_1" data-name="Layer 1" xmlns="http://www.w3.org/2000/svg" xmlns:xlink="http://www.w3.org/1999/xlink" viewBox="0 0 495 496">
  <defs>
    <style>
      .cls-1 {
        stroke: #d9d9d9;
      }

      .cls-1, .cls-2 {
        fill: none;
        stroke-miterlimit: 10;
      }

      .cls-3 {
        fill: url(#linear-gradient);
      }

      .cls-3, .cls-4, .cls-5, .cls-6, .cls-7, .cls-8, .cls-9, .cls-10, .cls-11, .cls-12, .cls-13, .cls-14, .cls-15, .cls-16, .cls-17, .cls-18, .cls-19, .cls-20, .cls-21, .cls-22, .cls-23, .cls-24 {
        stroke-width: 0px;
      }

      .cls-4 {
        fill: url(#linear-gradient-11);
      }

      .cls-5 {
        fill: url(#linear-gradient-12);
      }

      .cls-6 {
        fill: url(#linear-gradient-13);
      }

      .cls-7 {
        fill: url(#linear-gradient-10);
      }

      .cls-8 {
        fill: url(#linear-gradient-17);
      }

      .cls-9 {
        fill: url(#linear-gradient-16);
      }

      .cls-10 {
        fill: url(#linear-gradient-19);
      }

      .cls-11 {
        fill: url(#linear-gradient-15);
      }

      .cls-12 {
        fill: url(#linear-gradient-21);
      }

      .cls-13 {
        fill: url(#linear-gradient-18);
      }

      .cls-14 {
        fill: url(#linear-gradient-14);
      }

      .cls-15 {
        fill: url(#linear-gradient-20);
      }

      .cls-2 {
        stroke: #006e8e;
      }

      .cls-16 {
        fill: url(#linear-gradient-4);
      }

      .cls-17 {
        fill: url(#linear-gradient-2);
      }

      .cls-18 {
        fill: url(#linear-gradient-3);
      }

      .cls-19 {
        fill: url(#linear-gradient-8);
      }

      .cls-20 {
        fill: url(#linear-gradient-9);
      }

      .cls-21 {
        fill: url(#linear-gradient-7);
      }

      .cls-22 {
        fill: url(#linear-gradient-5);
      }

      .cls-23 {
        fill: url(#linear-gradient-6);
      }

      .cls-24 {
        fill: #006e8e;
      }
    </style>
    <linearGradient id="linear-gradient" x1="75.88" y1="257.63" x2="161.33" y2="257.63" gradientUnits="userSpaceOnUse">
      <stop offset="0" stop-color="#f2f2f2"/>
      <stop offset="1" stop-color="#006e8e"/>
    </linearGradient>
    <linearGradient id="linear-gradient-2" x1="72.23" y1="275.84" x2="77.59" y2="275.84" xlink:href="#linear-gradient"/>
    <linearGradient id="linear-gradient-3" x1="106.36" y1="304.78" x2="118.3" y2="304.78" xlink:href="#linear-gradient"/>
    <linearGradient id="linear-gradient-4" x1="150.16" y1="286.62" x2="161.96" y2="286.62" xlink:href="#linear-gradient"/>
    <linearGradient id="linear-gradient-5" x1="74.92" y1="228.84" x2="86.87" y2="228.84" xlink:href="#linear-gradient"/>
    <linearGradient id="linear-gradient-6" x1="159.69" y1="239.55" x2="165.04" y2="239.55" xlink:href="#linear-gradient"/>
    <linearGradient id="linear-gradient-7" x1="118.78" y1="210.51" x2="130.58" y2="210.51" xlink:href="#linear-gradient"/>
    <linearGradient id="linear-gradient-8" x1="179.04" y1="257.17" x2="282.23" y2="257.17" xlink:href="#linear-gradient"/>
    <linearGradient id="linear-gradient-9" x1="174.63" y1="279.16" x2="181.11" y2="279.16" xlink:href="#linear-gradient"/>
    <linearGradient id="linear-gradient-10" x1="215.84" y1="314.1" x2="230.26" y2="314.1" xlink:href="#linear-gradient"/>
    <linearGradient id="linear-gradient-11" x1="268.73" y1="292.18" x2="282.98" y2="292.18" xlink:href="#linear-gradient"/>
    <linearGradient id="linear-gradient-12" x1="177.88" y1="222.4" x2="192.31" y2="222.4" xlink:href="#linear-gradient"/>
    <linearGradient id="linear-gradient-13" x1="280.24" y1="235.34" x2="286.7" y2="235.34" xlink:href="#linear-gradient"/>
    <linearGradient id="linear-gradient-14" x1="230.84" y1="200.27" x2="245.1" y2="200.27" xlink:href="#linear-gradient"/>
    <linearGradient id="linear-gradient-15" x1="294.97" y1="258.2" x2="380.43" y2="258.2" xlink:href="#linear-gradient"/>
    <linearGradient id="linear-gradient-16" x1="291.32" y1="276.41" x2="296.69" y2="276.41" xlink:href="#linear-gradient"/>
    <linearGradient id="linear-gradient-17" x1="325.45" y1="305.34" x2="337.4" y2="305.34" xlink:href="#linear-gradient"/>
    <linearGradient id="linear-gradient-18" x1="369.25" y1="287.19" x2="381.06" y2="287.19" xlink:href="#linear-gradient"/>
    <linearGradient id="linear-gradient-19" x1="294.02" y1="229.4" x2="305.97" y2="229.4" xlink:href="#linear-gradient"/>
    <linearGradient id="linear-gradient-20" x1="378.78" y1="240.12" x2="384.14" y2="240.12" xlink:href="#linear-gradient"/>
    <linearGradient id="linear-gradient-21" x1="337.88" y1="211.07" x2="349.68" y2="211.07" xlink:href="#linear-gradient"/>
  </defs>
  <circle class="cls-1" cx="228.25" cy="260.09" r="82.8"/>
  <circle class="cls-1" cx="118.33" cy="258.42" r="82.8"/>
  <g>
    <path class="cls-3" d="M161.33,256.63c-.28,3.67-1.75,6.66-4.61,8.75-1.11.81-2.74,1.12-4.17,1.26-3.37.34-4.3,1.06-5.21,4.34-1.23,4.41-4.04,7.3-8.64,7.88-1.48.19-3.12-.69-4.66-1.17-.7-.21-1.32-.68-2.01-.93-2.67-.99-4.48.23-4.63,3.11-.24,4.57,1.85,6.31,6.2,4.93,4.07-1.29,7.26-.09,9.96,2.96,1.12,1.26,1.05,2.5-.01,3.82-3.22,3.98-8.44,4.81-12.38,3.13-1.45-.62-2.64-2.12-3.65-3.44-1.58-2.07-2.84-2.81-5.39-2.22-2.72.63-5.41,1.05-8.01-.29-3.08-1.58-5.49-3.63-5.32-7.58.05-1.21-.34-2.44-.61-3.65-.27-1.21-1.23-1.56-2.33-1.62-1.88-.1-4.83,1.64-5.26,3.46-.24,1.03.02,2.39.55,3.32.72,1.26,1.79,2.38,2.92,3.32,2.32,1.93,1.78,7.81.03,9.7-.39.42-1.25.57-1.88.56-5.27-.14-9.79-5.55-9.59-10.59.04-.92.52-1.86.93-2.73,1.62-3.45,1.57-4.34-1.06-7.17-2.74-2.94-3.72-6.24-2.89-10.23.41-1.97,1.59-3.06,3.06-4.08.98-.68,2.02-1.31,2.9-2.11,1.43-1.3,1.6-3.15.13-4.35-1.27-1.03-2.89-1.89-4.47-2.22-1.74-.36-2.74,1.15-3.37,2.61-.4.93-.59,1.96-.86,2.95-.82,2.97-4.23,5.7-7.28,5.88-1.42.08-2.39-.44-3.03-1.73-2.57-5.16,1.25-14.16,7.8-13.93,2.97.1,4.63-1.52,5.35-4.47.93-3.81,3.38-6.06,6.91-7.39,2.01-.76,3.86-.65,5.72.49,1.06.65,2.23,1.15,3.41,1.54,1.54.5,2.74-.09,3.31-1.6.73-1.94.78-3.91-.3-5.76-.76-1.3-2.04-1.59-3.4-1.48-.85.07-1.69.28-2.51.53-3.47,1.05-7.23-.11-9.43-2.94-1.08-1.39-1.06-2.66.08-4.03,3.17-3.84,9.62-4.93,13.71-2.21.77.51,1.39,1.35,1.88,2.17,1.63,2.72,2.75,3.23,5.93,2.83,1.95-.25,4-.64,5.89-.31,4.36.75,6.76,3.7,7.14,8.06.09,1.08.15,2.18.44,3.21.54,1.92,2,2.71,3.83,1.96,1.24-.51,2.41-1.3,3.42-2.18,1.18-1.03,1.3-2.74.39-4.05-.75-1.07-1.62-2.06-2.51-3.02-2.41-2.62-2.89-6.25-1.34-9.47.57-1.18,1.42-1.54,2.6-1.48,5.25.24,10.11,6.1,9.3,11.3-.14.87-.58,1.72-1.02,2.51-1.34,2.43-1.21,4.25.77,6.2,2.24,2.2,3.66,4.59,3.69,7.93.04,3.6-1.44,5.96-4.45,7.63-.69.38-1.42.81-1.93,1.39-.46.52-.84,1.27-.9,1.94-.19,2.07,1.85,3.97,4.61,4.46,2.11.37,3.54-.53,4.25-2.72.3-.92.55-1.86.8-2.79.74-2.82,4.2-5.62,7.13-5.78,1.47-.08,2.61.35,3.08,1.85.39,1.24.68,2.5,1.02,3.75ZM137.02,258.18c-.61-1.07-.93-1.79-1.4-2.4-.37-.49-.87-.92-1.38-1.27-3.29-2.17-4.58-5.34-4.79-9.15-.18-3.21-1.78-4.12-4.84-3.24-2.16.62-4.4,1.27-6.61,1.28-1.67,0-3.34-.97-5.01-1.51-2.97-.96-4.25-.19-4.8,2.87-.1.56-.19,1.12-.28,1.69-.51,3.1-2.08,5.49-4.68,7.25-.61.41-1.19.89-1.71,1.41-1.41,1.38-1.52,2.53-.27,4.03.69.82,1.51,1.55,2.35,2.22,2.7,2.13,3.88,4.96,3.99,8.33.11,3.39,2,4.59,5.11,3.3,2.45-1.02,4.96-1.82,7.64-1.04,1.25.36,2.42.98,3.64,1.45,2.73,1.05,4.41.11,4.96-2.79.18-.95.23-1.92.43-2.87.67-3.04,2.76-4.99,5.14-6.78.97-.73,1.66-1.82,2.51-2.78Z"/>
    <path class="cls-17" d="M77.59,276.62c-.46,1.65-.73,3.46-1.48,5.04-.64,1.36-1.74,1.36-2.46.06-.72-1.31-1.4-2.84-1.42-4.29-.05-2.34.35-4.7.79-7.02.11-.59,1.02-1.26,1.68-1.42.31-.08,1.13.87,1.32,1.48.6,1.93,1.01,3.92,1.56,6.15Z"/>
    <path class="cls-18" d="M116.38,308.75c-4.06-.72-7.31-2.32-9.67-5.37-.39-.5-.47-1.58-.19-2.15.18-.37,1.29-.5,1.93-.4,3.26.53,6.15,1.92,8.67,4.05.13.11.33.19.38.33.32.87.89,1.78.78,2.6-.06.42-1.35.68-1.9.93Z"/>
    <path class="cls-16" d="M151.99,290.94c-.61-.34-1.4-.55-1.76-1.06-.22-.31.07-1.24.41-1.64,2.51-2.9,5.4-5.26,9.32-5.91.59-.1,1.5.08,1.8.47.3.4.21,1.31-.02,1.87-.89,2.22-6.76,6.31-9.75,6.27Z"/>
    <path class="cls-22" d="M76.76,233.09c-1.49.01-2.36-1.2-1.5-2.28,1.32-1.66,2.88-3.19,4.59-4.46,1.2-.89,2.75-1.43,4.23-1.74.85-.18,1.85.41,2.79.65-.3.74-.45,1.61-.93,2.2-2.19,2.66-4.9,4.57-8.3,5.39-.33.08-.66.18-.87.24Z"/>
    <path class="cls-23" d="M159.69,239.08c.32-1.89.46-3.36.87-4.77.17-.61.84-1.38,1.39-1.48.5-.08,1.41.51,1.67,1.04,1.81,3.66,1.87,7.44.35,11.2-.22.54-1.06,1.26-1.45,1.18-.56-.12-1.21-.84-1.39-1.44-.61-1.99-1.02-4.04-1.44-5.74Z"/>
    <path class="cls-21" d="M120.54,206.57c4.03.68,7.18,2.27,9.59,5.11.45.53.57,1.64.34,2.31-.12.34-1.39.53-2.07.4-3.43-.66-6.52-2.09-8.91-4.7-.49-.54-.85-1.6-.66-2.24.15-.48,1.26-.67,1.71-.88Z"/>
  </g>
  <g>
    <path class="cls-19" d="M282.23,255.96c-.34,4.43-2.12,8.04-5.57,10.57-1.34.98-3.3,1.35-5.03,1.52-4.07.41-5.19,1.28-6.3,5.24-1.48,5.32-4.88,8.82-10.43,9.52-1.79.23-3.77-.84-5.63-1.41-.84-.26-1.59-.82-2.42-1.13-3.23-1.2-5.4.28-5.59,3.76-.29,5.52,2.23,7.62,7.49,5.95,4.91-1.56,8.76-.11,12.02,3.58,1.35,1.53,1.27,3.02-.02,4.62-3.88,4.81-10.19,5.81-14.95,3.78-1.75-.75-3.19-2.56-4.41-4.16-1.91-2.5-3.43-3.39-6.5-2.68-3.28.76-6.53,1.27-9.68-.35-3.72-1.91-6.63-4.39-6.42-9.16.06-1.46-.42-2.95-.74-4.4-.33-1.46-1.49-1.88-2.82-1.95-2.26-.12-5.84,1.98-6.35,4.18-.29,1.24.03,2.89.66,4.01.87,1.52,2.17,2.88,3.53,4.01,2.8,2.33,2.15,9.43.04,11.71-.47.5-1.5.69-2.27.67-6.36-.17-11.82-6.7-11.58-12.79.04-1.12.63-2.25,1.12-3.3,1.96-4.17,1.9-5.24-1.28-8.66-3.3-3.55-4.49-7.53-3.49-12.35.5-2.38,1.92-3.69,3.7-4.93,1.19-.82,2.44-1.58,3.5-2.55,1.72-1.57,1.93-3.81.16-5.25-1.53-1.25-3.48-2.28-5.4-2.68-2.1-.43-3.3,1.39-4.07,3.16-.49,1.13-.71,2.37-1.04,3.57-.99,3.59-5.11,6.89-8.8,7.1-1.72.1-2.88-.53-3.66-2.09-3.11-6.23,1.5-17.1,9.41-16.82,3.59.12,5.59-1.83,6.46-5.4,1.12-4.6,4.08-7.31,8.34-8.93,2.43-.92,4.66-.78,6.91.59,1.28.78,2.69,1.39,4.12,1.85,1.86.61,3.31-.11,4-1.93.88-2.34.94-4.72-.37-6.96-.91-1.57-2.46-1.92-4.11-1.78-1.02.09-2.04.34-3.03.64-4.19,1.27-8.74-.13-11.39-3.55-1.3-1.68-1.27-3.21.09-4.87,3.83-4.64,11.61-5.95,16.56-2.67.93.62,1.68,1.63,2.27,2.61,1.97,3.28,3.33,3.91,7.16,3.42,2.36-.3,4.83-.77,7.11-.38,5.26.9,8.16,4.46,8.62,9.73.11,1.3.18,2.63.53,3.87.66,2.31,2.41,3.27,4.62,2.36,1.49-.61,2.9-1.57,4.13-2.64,1.43-1.24,1.57-3.31.47-4.89-.9-1.29-1.96-2.48-3.03-3.64-2.91-3.16-3.49-7.55-1.62-11.44.69-1.43,1.72-1.85,3.14-1.79,6.34.29,12.2,7.36,11.23,13.65-.16,1.05-.71,2.08-1.23,3.03-1.61,2.93-1.46,5.14.93,7.49,2.7,2.66,4.42,5.54,4.46,9.57.05,4.35-1.74,7.2-5.38,9.21-.84.46-1.71.98-2.33,1.68-.55.63-1.01,1.53-1.09,2.35-.23,2.5,2.23,4.79,5.56,5.38,2.55.45,4.28-.64,5.13-3.28.36-1.11.67-2.24.97-3.37.89-3.41,5.08-6.78,8.61-6.98,1.78-.1,3.15.42,3.72,2.23.47,1.49.83,3.02,1.23,4.53ZM252.87,257.84c-.74-1.29-1.13-2.16-1.69-2.9-.45-.59-1.05-1.12-1.67-1.53-3.97-2.62-5.53-6.45-5.79-11.05-.22-3.88-2.15-4.98-5.84-3.91-2.6.75-5.31,1.53-7.98,1.54-2.02,0-4.04-1.18-6.06-1.83-3.59-1.16-5.14-.23-5.79,3.47-.12.68-.23,1.36-.34,2.03-.61,3.74-2.51,6.64-5.65,8.75-.74.5-1.43,1.08-2.07,1.7-1.71,1.67-1.84,3.06-.33,4.87.83.99,1.82,1.87,2.84,2.68,3.26,2.58,4.69,5.99,4.82,10.06.13,4.09,2.42,5.54,6.17,3.98,2.96-1.23,5.99-2.19,9.22-1.26,1.51.44,2.92,1.19,4.4,1.75,3.3,1.27,5.32.13,5.99-3.37.22-1.15.28-2.32.52-3.46.81-3.68,3.33-6.03,6.2-8.19,1.17-.88,2.01-2.2,3.04-3.36Z"/>
    <path class="cls-20" d="M181.11,280.1c-.55,1.99-.88,4.17-1.78,6.09-.77,1.64-2.1,1.65-2.97.07-.87-1.58-1.69-3.43-1.72-5.18-.06-2.82.42-5.68.95-8.47.14-.72,1.24-1.52,2.03-1.72.38-.09,1.37,1.05,1.6,1.78.73,2.33,1.23,4.74,1.89,7.43Z"/>
    <path class="cls-7" d="M227.95,318.9c-4.91-.87-8.82-2.8-11.68-6.49-.47-.61-.56-1.9-.23-2.59.21-.44,1.56-.6,2.33-.48,3.94.64,7.42,2.32,10.47,4.89.16.13.4.23.46.4.39,1.05,1.08,2.15.95,3.14-.07.51-1.63.82-2.3,1.12Z"/>
    <path class="cls-4" d="M270.95,297.39c-.74-.41-1.69-.66-2.12-1.28-.26-.38.08-1.49.5-1.98,3.03-3.5,6.52-6.35,11.25-7.14.71-.12,1.81.09,2.18.57.37.49.25,1.58-.02,2.26-1.08,2.68-8.16,7.62-11.78,7.57Z"/>
    <path class="cls-5" d="M180.11,227.54c-1.8.02-2.85-1.44-1.81-2.76,1.59-2,3.48-3.86,5.54-5.38,1.44-1.07,3.32-1.73,5.11-2.11,1.02-.22,2.24.49,3.37.78-.36.89-.54,1.94-1.13,2.65-2.64,3.21-5.91,5.52-10.02,6.51-.4.1-.79.22-1.05.29Z"/>
    <path class="cls-6" d="M280.24,234.78c.39-2.28.56-4.06,1.05-5.75.21-.73,1.02-1.67,1.67-1.78.6-.1,1.7.62,2.02,1.26,2.18,4.41,2.26,8.98.43,13.53-.26.65-1.28,1.53-1.75,1.42-.67-.15-1.46-1.02-1.68-1.74-.73-2.4-1.24-4.87-1.73-6.93Z"/>
    <path class="cls-14" d="M232.97,195.52c4.86.82,8.67,2.74,11.58,6.17.54.64.69,1.98.41,2.79-.14.42-1.68.64-2.5.48-4.14-.8-7.88-2.52-10.76-5.68-.59-.65-1.03-1.93-.79-2.7.18-.58,1.52-.81,2.06-1.07Z"/>
  </g>
  <g>
    <path class="cls-11" d="M380.43,257.2c-.28,3.67-1.75,6.66-4.61,8.75-1.11.81-2.74,1.12-4.17,1.26-3.37.34-4.3,1.06-5.21,4.34-1.23,4.41-4.04,7.3-8.64,7.88-1.48.19-3.12-.69-4.66-1.17-.7-.21-1.32-.68-2.01-.93-2.67-.99-4.48.23-4.63,3.11-.24,4.57,1.85,6.31,6.2,4.93,4.07-1.29,7.26-.09,9.96,2.96,1.12,1.26,1.05,2.5-.01,3.82-3.22,3.98-8.44,4.81-12.38,3.13-1.45-.62-2.64-2.12-3.65-3.44-1.58-2.07-2.84-2.81-5.39-2.22-2.72.63-5.41,1.05-8.01-.29-3.08-1.58-5.49-3.63-5.32-7.58.05-1.21-.34-2.44-.61-3.65-.27-1.21-1.23-1.56-2.33-1.62-1.88-.1-4.83,1.64-5.26,3.46-.24,1.03.02,2.39.55,3.32.72,1.26,1.79,2.38,2.92,3.32,2.32,1.93,1.78,7.81.03,9.7-.39.42-1.25.57-1.88.56-5.27-.14-9.79-5.55-9.59-10.59.04-.92.52-1.86.93-2.73,1.62-3.45,1.57-4.34-1.06-7.17-2.74-2.94-3.72-6.24-2.89-10.23.41-1.97,1.59-3.06,3.06-4.08.98-.68,2.02-1.31,2.9-2.11,1.43-1.3,1.6-3.15.13-4.35-1.27-1.03-2.89-1.89-4.47-2.22-1.74-.36-2.74,1.15-3.37,2.61-.4.93-.59,1.96-.86,2.95-.82,2.97-4.23,5.7-7.28,5.88-1.42.08-2.39-.44-3.03-1.73-2.57-5.16,1.25-14.16,7.8-13.93,2.97.1,4.63-1.52,5.35-4.47.93-3.81,3.38-6.06,6.91-7.39,2.01-.76,3.86-.65,5.72.49,1.06.65,2.23,1.15,3.41,1.54,1.54.5,2.74-.09,3.31-1.6.73-1.94.78-3.91-.3-5.76-.76-1.3-2.04-1.59-3.4-1.48-.85.07-1.69.28-2.51.53-3.47,1.05-7.23-.11-9.43-2.94-1.08-1.39-1.06-2.66.08-4.03,3.17-3.84,9.62-4.93,13.71-2.21.77.51,1.39,1.35,1.88,2.17,1.63,2.72,2.75,3.23,5.93,2.83,1.95-.25,4-.64,5.89-.31,4.36.75,6.76,3.7,7.14,8.06.09,1.08.15,2.18.44,3.21.54,1.92,2,2.71,3.83,1.96,1.24-.51,2.41-1.3,3.42-2.18,1.18-1.03,1.3-2.74.39-4.05-.75-1.07-1.62-2.06-2.51-3.02-2.41-2.62-2.89-6.25-1.34-9.47.57-1.18,1.42-1.54,2.6-1.48,5.25.24,10.11,6.1,9.3,11.3-.14.87-.58,1.72-1.02,2.51-1.34,2.43-1.21,4.25.77,6.2,2.24,2.2,3.66,4.59,3.69,7.93.04,3.6-1.44,5.96-4.45,7.63-.69.38-1.42.81-1.93,1.39-.46.52-.84,1.27-.9,1.94-.19,2.07,1.85,3.97,4.61,4.46,2.11.37,3.54-.53,4.25-2.72.3-.92.55-1.86.8-2.79.74-2.82,4.2-5.62,7.13-5.78,1.47-.08,2.61.35,3.08,1.85.39,1.24.68,2.5,1.02,3.75ZM356.12,258.75c-.61-1.07-.93-1.79-1.4-2.4-.37-.49-.87-.92-1.38-1.27-3.29-2.17-4.58-5.34-4.79-9.15-.18-3.21-1.78-4.12-4.84-3.24-2.16.62-4.4,1.27-6.61,1.28-1.67,0-3.34-.97-5.01-1.51-2.97-.96-4.25-.19-4.8,2.87-.1.56-.19,1.12-.28,1.69-.51,3.1-2.08,5.49-4.68,7.25-.61.41-1.19.89-1.71,1.41-1.41,1.38-1.52,2.53-.27,4.03.69.82,1.51,1.55,2.35,2.22,2.7,2.13,3.88,4.96,3.99,8.33.11,3.39,2,4.59,5.11,3.3,2.45-1.02,4.96-1.82,7.64-1.04,1.25.36,2.42.98,3.64,1.45,2.73,1.05,4.41.11,4.96-2.79.18-.95.23-1.92.43-2.87.67-3.04,2.76-4.99,5.14-6.78.97-.73,1.66-1.82,2.51-2.78Z"/>
    <path class="cls-9" d="M296.69,277.19c-.46,1.65-.73,3.46-1.48,5.04-.64,1.36-1.74,1.36-2.46.06-.72-1.31-1.4-2.84-1.42-4.29-.05-2.34.35-4.7.79-7.02.11-.59,1.02-1.26,1.68-1.42.31-.08,1.13.87,1.32,1.48.6,1.93,1.01,3.92,1.56,6.15Z"/>
    <path class="cls-8" d="M335.48,309.32c-4.06-.72-7.31-2.32-9.67-5.37-.39-.5-.47-1.58-.19-2.15.18-.37,1.29-.5,1.93-.4,3.26.53,6.15,1.92,8.67,4.05.13.11.33.19.38.33.32.87.89,1.78.78,2.6-.06.42-1.35.68-1.9.93Z"/>
    <path class="cls-13" d="M371.09,291.51c-.61-.34-1.4-.55-1.76-1.06-.22-.31.07-1.24.41-1.64,2.51-2.9,5.4-5.26,9.32-5.91.59-.1,1.5.08,1.8.47.3.4.21,1.31-.02,1.87-.89,2.22-6.76,6.31-9.75,6.27Z"/>
    <path class="cls-10" d="M295.86,233.66c-1.49.01-2.36-1.2-1.5-2.28,1.32-1.66,2.88-3.19,4.59-4.46,1.2-.89,2.75-1.43,4.23-1.74.85-.18,1.85.41,2.79.65-.3.74-.45,1.61-.93,2.2-2.19,2.66-4.9,4.57-8.3,5.39-.33.08-.66.18-.87.24Z"/>
    <path class="cls-15" d="M378.78,239.65c.32-1.89.46-3.36.87-4.77.17-.61.84-1.38,1.39-1.48.5-.08,1.41.51,1.67,1.04,1.81,3.66,1.87,7.44.35,11.2-.22.54-1.06,1.26-1.45,1.18-.56-.12-1.21-.84-1.39-1.44-.61-1.99-1.02-4.04-1.44-5.74Z"/>
    <path class="cls-12" d="M339.64,207.14c4.03.68,7.18,2.27,9.59,5.11.45.53.57,1.64.34,2.31-.12.34-1.39.53-2.07.4-3.43-.66-6.52-2.09-8.91-4.7-.49-.54-.85-1.6-.66-2.24.15-.48,1.26-.67,1.71-.88Z"/>
  </g>
  <circle class="cls-24" cx="119.04" cy="257.56" r="6.36"/>
  <circle class="cls-24" cx="159.61" cy="257.56" r="6.36"/>
  <circle class="cls-24" cx="199.38" cy="257.56" r="6.36"/>
  <circle class="cls-24" cx="237.57" cy="257.56" r="6.36"/>
  <circle class="cls-24" cx="277.34" cy="257.56" r="6.36"/>
  <circle class="cls-24" cx="317.11" cy="257.56" r="6.36"/>
  <circle class="cls-24" cx="357.68" cy="257.56" r="6.36"/>
  <circle class="cls-24" cx="397.45" cy="257.56" r="6.36"/>
  <circle class="cls-24" cx="435.64" cy="257.56" r="6.36"/>
  <line class="cls-2" x1="119.04" y1="257.56" x2="435.64" y2="257.56"/>
</svg>