<?xml version="1.0" encoding="UTF-8"?>
<svg id="Layer_1" data-name="Layer 1" xmlns="http://www.w3.org/2000/svg" xmlns:xlink="http://www.w3.org/1999/xlink" viewBox="0 0 165 176">
  <defs>
    <style>
      .cls-1 {
        fill: url(#New_Gradient_Swatch_1);
      }

      .cls-1, .cls-2, .cls-3, .cls-4, .cls-5, .cls-6, .cls-7, .cls-8, .cls-9 {
        stroke-width: 0px;
      }

      .cls-2 {
        fill: url(#New_Gradient_Swatch_1-7);
      }

      .cls-3 {
        fill: url(#New_Gradient_Swatch_1-4);
      }

      .cls-4 {
        fill: url(#New_Gradient_Swatch_1-6);
      }

      .cls-5 {
        fill: url(#New_Gradient_Swatch_1-9);
      }

      .cls-6 {
        fill: url(#New_Gradient_Swatch_1-3);
      }

      .cls-7 {
        fill: url(#New_Gradient_Swatch_1-8);
      }

      .cls-8 {
        fill: url(#New_Gradient_Swatch_1-11);
      }

      .cls-9 {
        fill: url(#New_Gradient_Swatch_1-10);
      }

      .cls-10 {
        stroke: url(#New_Gradient_Swatch_1-2);
      }

      .cls-10, .cls-11 {
        fill: none;
        stroke-miterlimit: 10;
      }

      .cls-11 {
        stroke: url(#New_Gradient_Swatch_1-5);
      }
    </style>
    <linearGradient id="New_Gradient_Swatch_1" data-name="New Gradient Swatch 1" x1="38.73" y1="87.11" x2="129.81" y2="87.11" gradientUnits="userSpaceOnUse">
      <stop offset="0" stop-color="#f2f2f2"/>
      <stop offset="1" stop-color="#006e8e"/>
    </linearGradient>
    <linearGradient id="New_Gradient_Swatch_1-2" data-name="New Gradient Swatch 1" x1="34.34" y1="106.52" x2="41.08" y2="106.52" xlink:href="#New_Gradient_Swatch_1"/>
    <linearGradient id="New_Gradient_Swatch_1-3" data-name="New Gradient Swatch 1" x1="71.22" y1="137.36" x2="83.94" y2="137.36" xlink:href="#New_Gradient_Swatch_1"/>
    <linearGradient id="New_Gradient_Swatch_1-4" data-name="New Gradient Swatch 1" x1="117.89" y1="118.01" x2="130.47" y2="118.01" xlink:href="#New_Gradient_Swatch_1"/>
    <linearGradient id="New_Gradient_Swatch_1-5" data-name="New Gradient Swatch 1" x1="37.21" y1="56.43" x2="51.12" y2="56.43" xlink:href="#New_Gradient_Swatch_1"/>
    <linearGradient id="New_Gradient_Swatch_1-6" data-name="New Gradient Swatch 1" x1="128.05" y1="67.85" x2="133.76" y2="67.85" xlink:href="#New_Gradient_Swatch_1"/>
    <linearGradient id="New_Gradient_Swatch_1-7" data-name="New Gradient Swatch 1" x1="84.45" y1="36.89" x2="97.03" y2="36.89" xlink:href="#New_Gradient_Swatch_1"/>
    <linearGradient id="New_Gradient_Swatch_1-8" data-name="New Gradient Swatch 1" x1="-402.58" y1="1634.49" x2="-382.74" y2="1634.49" gradientTransform="translate(-1148.4 -1055.19) rotate(-60.76)" xlink:href="#New_Gradient_Swatch_1"/>
    <linearGradient id="New_Gradient_Swatch_1-9" data-name="New Gradient Swatch 1" x1="-405.92" y1="1633.12" x2="-390.05" y2="1633.12" gradientTransform="translate(-1148.4 -1055.19) rotate(-60.76)" xlink:href="#New_Gradient_Swatch_1"/>
    <linearGradient id="New_Gradient_Swatch_1-10" data-name="New Gradient Swatch 1" x1="-395.9" y1="1634.26" x2="-386.47" y2="1634.26" gradientTransform="translate(-1148.4 -1055.19) rotate(-60.76)" xlink:href="#New_Gradient_Swatch_1"/>
    <linearGradient id="New_Gradient_Swatch_1-11" data-name="New Gradient Swatch 1" x1="2.84" y1="83.79" x2="161.92" y2="83.79" xlink:href="#New_Gradient_Swatch_1"/>
  </defs>
  <g>
    <path class="cls-1" d="M129.81,86.05c-.3,3.91-1.87,7.09-4.91,9.33-1.18.87-2.92,1.19-4.44,1.34-3.59.36-4.58,1.13-5.56,4.63-1.31,4.7-4.31,7.78-9.2,8.4-1.58.2-3.32-.74-4.97-1.24-.74-.23-1.4-.72-2.14-1-2.85-1.06-4.77.25-4.93,3.32-.26,4.87,1.97,6.73,6.61,5.25,4.34-1.37,7.73-.09,10.61,3.16,1.19,1.35,1.12,2.67-.01,4.08-3.43,4.24-8.99,5.13-13.19,3.34-1.55-.66-2.82-2.26-3.89-3.67-1.68-2.21-3.02-2.99-5.74-2.37-2.9.67-5.76,1.12-8.54-.31-3.29-1.68-5.85-3.87-5.67-8.08.06-1.29-.37-2.6-.65-3.89-.29-1.29-1.31-1.66-2.49-1.72-2-.11-5.15,1.75-5.61,3.69-.26,1.09.02,2.55.59,3.54.76,1.34,1.91,2.54,3.11,3.54,2.47,2.06,1.9,8.33.03,10.34-.41.44-1.33.61-2,.59-5.62-.15-10.43-5.91-10.22-11.29.04-.98.55-1.99.99-2.91,1.73-3.68,1.68-4.63-1.13-7.64-2.92-3.14-3.97-6.65-3.08-10.9.44-2.1,1.7-3.26,3.27-4.35,1.05-.73,2.16-1.4,3.09-2.25,1.52-1.39,1.7-3.36.14-4.63-1.35-1.1-3.08-2.02-4.77-2.37-1.85-.38-2.92,1.23-3.59,2.79-.43.99-.63,2.09-.92,3.15-.87,3.17-4.51,6.08-7.76,6.27-1.51.09-2.54-.47-3.23-1.85-2.74-5.49,1.33-15.09,8.31-14.85,3.17.11,4.93-1.62,5.7-4.76.99-4.06,3.6-6.46,7.36-7.88,2.14-.81,4.12-.69,6.1.52,1.13.69,2.38,1.22,3.63,1.64,1.64.54,2.92-.1,3.53-1.71.78-2.06.83-4.16-.32-6.14-.81-1.38-2.17-1.7-3.63-1.57-.9.08-1.8.3-2.67.56-3.7,1.12-7.71-.11-10.05-3.13-1.15-1.48-1.12-2.84.08-4.3,3.38-4.09,10.25-5.25,14.61-2.36.82.54,1.48,1.44,2,2.31,1.74,2.9,2.94,3.45,6.32,3.02,2.08-.26,4.26-.68,6.27-.33,4.64.8,7.2,3.94,7.61,8.59.1,1.15.16,2.32.47,3.42.58,2.04,2.13,2.89,4.08,2.09,1.32-.54,2.56-1.39,3.64-2.33,1.26-1.1,1.39-2.92.41-4.31-.8-1.14-1.73-2.19-2.67-3.22-2.57-2.79-3.08-6.66-1.43-10.1.61-1.26,1.51-1.64,2.77-1.58,5.6.26,10.77,6.5,9.91,12.04-.14.93-.62,1.83-1.08,2.67-1.42,2.59-1.29,4.53.82,6.61,2.38,2.35,3.9,4.89,3.94,8.45.04,3.84-1.53,6.36-4.75,8.13-.74.41-1.51.86-2.06,1.48-.49.56-.89,1.35-.96,2.07-.2,2.21,1.97,4.23,4.91,4.75,2.25.4,3.78-.57,4.52-2.9.32-.98.59-1.98.85-2.98.79-3.01,4.48-5.99,7.6-6.16,1.57-.09,2.78.37,3.28,1.97.41,1.32.73,2.67,1.09,4ZM103.9,87.71c-.65-1.14-.99-1.9-1.49-2.56-.4-.52-.92-.98-1.47-1.35-3.51-2.32-4.88-5.69-5.11-9.75-.2-3.42-1.9-4.39-5.15-3.45-2.3.66-4.69,1.35-7.04,1.36-1.78,0-3.56-1.04-5.34-1.61-3.17-1.02-4.53-.2-5.11,3.06-.11.6-.2,1.2-.3,1.8-.54,3.3-2.22,5.86-4.99,7.72-.65.44-1.26.95-1.83,1.5-1.51,1.48-1.62,2.7-.29,4.3.73.88,1.61,1.65,2.51,2.36,2.88,2.27,4.14,5.28,4.25,8.88.12,3.61,2.14,4.89,5.44,3.52,2.61-1.09,5.29-1.94,8.14-1.11,1.33.39,2.58,1.05,3.88,1.55,2.91,1.12,4.7.12,5.29-2.97.19-1.01.24-2.05.46-3.05.71-3.24,2.94-5.32,5.48-7.23,1.03-.78,1.77-1.94,2.68-2.97Z"/>
    <path class="cls-10" d="M40.56,107.36c-.49,1.76-.78,3.68-1.57,5.37-.68,1.45-1.85,1.45-2.62.06-.77-1.39-1.49-3.03-1.52-4.57-.05-2.49.37-5.01.84-7.48.12-.63,1.09-1.34,1.8-1.52.33-.08,1.21.93,1.41,1.58.64,2.06,1.08,4.18,1.67,6.55Z"/>
    <path class="cls-6" d="M81.9,141.6c-4.33-.77-7.79-2.47-10.31-5.72-.42-.54-.5-1.68-.21-2.29.19-.39,1.38-.53,2.06-.42,3.47.56,6.55,2.05,9.24,4.32.14.12.35.21.4.35.34.92.95,1.9.84,2.77-.06.45-1.44.72-2.03.99Z"/>
    <path class="cls-3" d="M119.85,122.61c-.65-.36-1.49-.58-1.87-1.13-.23-.33.07-1.32.44-1.74,2.67-3.09,5.75-5.61,9.93-6.3.62-.1,1.6.08,1.92.5.32.43.22,1.4-.02,2-.95,2.37-7.2,6.73-10.4,6.68Z"/>
    <path class="cls-11" d="M39.67,60.97c-1.59.01-2.52-1.28-1.6-2.43,1.41-1.77,3.07-3.4,4.89-4.75,1.28-.95,2.93-1.52,4.51-1.86.9-.19,1.98.43,2.97.69-.32.79-.48,1.71-.99,2.34-2.33,2.84-5.22,4.87-8.85,5.75-.35.08-.7.2-.93.26Z"/>
    <path class="cls-4" d="M128.05,67.35c.34-2.01.49-3.58.93-5.08.19-.65.9-1.47,1.48-1.57.53-.09,1.5.55,1.78,1.11,1.93,3.9,1.99,7.93.38,11.94-.23.57-1.13,1.35-1.55,1.25-.59-.13-1.29-.9-1.48-1.54-.65-2.12-1.09-4.3-1.53-6.12Z"/>
    <path class="cls-2" d="M86.33,32.7c4.29.73,7.65,2.42,10.22,5.45.48.56.61,1.75.36,2.46-.13.37-1.48.57-2.2.43-3.65-.71-6.95-2.23-9.5-5.01-.52-.57-.91-1.71-.7-2.38.16-.52,1.34-.72,1.82-.94Z"/>
  </g>
  <g id="dgXEtr">
    <g>
      <path class="cls-7" d="M83.47,87.02c1.13-1.82,3.55-1.83,4.73-.1,1.7,2.51.68,5.72-2.25,7.05-2.8,1.27-6.18.39-8.23-2.13-3.41-4.19-2.8-10.02,1.41-13.38,3.63-2.9,8.29-3.41,11.91-1.3,3.82,2.23,5.95,6.78,5.15,11.09-.15.79-.44,1.54-.85,2.28.05-.63.12-1.25.16-1.88.24-4.44-2.35-8.57-6.25-9.99-4.97-1.8-11.29,2.5-11.42,7.77-.07,2.62,1.91,5.44,4.39,6.24,1.91.62,4.51-.46,5.4-2.25.53-1.06.23-2.8-.68-3.57-1.14-.98-2.28-.63-3.46.18Z"/>
      <path class="cls-5" d="M72.68,87.82c1.08,5.26,5.04,7.5,8.28,8.06,2.22.38,4.28-.09,6.17-1.26,2.09-1.3,3.49-3.15,3.3-5.71-.18-2.46-1.51-4.22-3.94-5.04.04-.1.07-.2.11-.3.72.23,1.52.33,2.16.7,3.36,1.92,4.15,6.41,1.78,9.77-2.19,3.1-6.72,4.42-10.77,3.14-3.94-1.25-6.87-4.81-7.09-8.63-.01-.24,0-.49,0-.73Z"/>
      <path class="cls-9" d="M93.08,84.21c-5.04-5.51-11.95-3.48-12.48,2.2-.68-2.78,1.19-5.67,4.29-6.65,2.63-.83,7.04,1.56,8.19,4.45Z"/>
    </g>
  </g>
  <path class="cls-8" d="M161.33,83.73c-3.54-39.48-39.46-71.97-81.81-68.24-34.53,3.05-62.63,31.05-65.76,65.52-3.86,42.39,28.61,78.52,68.22,82.1-10.45.59-20.62-.93-30.21-5.06C22.99,145.68,6.41,123.71,3.26,92.65-1.15,49.13,29.68,10.96,73.03,5.07c40.92-5.57,79.22,21.57,87.23,61.99,1.08,5.44,1.14,11.07,1.67,16.62-.2.02-.39.04-.59.05Z"/>
</svg>