<?xml version="1.0" encoding="UTF-8"?>
<svg id="Layer_1" data-name="Layer 1" xmlns="http://www.w3.org/2000/svg" xmlns:xlink="http://www.w3.org/1999/xlink" viewBox="0 0 165 176">
  <defs>
    <style>
      .cls-1 {
        fill: url(#New_Gradient_Swatch_1);
      }

      .cls-1, .cls-2, .cls-3, .cls-4, .cls-5, .cls-6, .cls-7 {
        stroke-width: 0px;
      }

      .cls-2 {
        fill: url(#New_Gradient_Swatch_1-7);
      }

      .cls-3 {
        fill: url(#New_Gradient_Swatch_1-4);
      }

      .cls-4 {
        fill: url(#New_Gradient_Swatch_1-6);
      }

      .cls-5 {
        fill: url(#New_Gradient_Swatch_1-9);
      }

      .cls-6 {
        fill: url(#New_Gradient_Swatch_1-8);
      }

      .cls-7 {
        fill: url(#New_Gradient_Swatch_1-10);
      }

      .cls-8 {
        stroke: url(#New_Gradient_Swatch_1-3);
      }

      .cls-8, .cls-9, .cls-10 {
        fill: none;
        stroke-miterlimit: 10;
      }

      .cls-9 {
        stroke: url(#New_Gradient_Swatch_1-2);
      }

      .cls-10 {
        stroke: url(#New_Gradient_Swatch_1-5);
      }
    </style>
    <linearGradient id="New_Gradient_Swatch_1" data-name="New Gradient Swatch 1" x1="37.95" y1="83.57" x2="135.29" y2="83.57" gradientUnits="userSpaceOnUse">
      <stop offset="0" stop-color="#f2f2f2"/>
      <stop offset="1" stop-color="#006e8e"/>
    </linearGradient>
    <linearGradient id="New_Gradient_Swatch_1-2" data-name="New Gradient Swatch 1" x1="33.29" y1="104.32" x2="40.42" y2="104.32" xlink:href="#New_Gradient_Swatch_1"/>
    <linearGradient id="New_Gradient_Swatch_1-3" data-name="New Gradient Swatch 1" x1="72.17" y1="137.29" x2="86.77" y2="137.29" xlink:href="#New_Gradient_Swatch_1"/>
    <linearGradient id="New_Gradient_Swatch_1-4" data-name="New Gradient Swatch 1" x1="122.56" y1="116.6" x2="136" y2="116.6" xlink:href="#New_Gradient_Swatch_1"/>
    <linearGradient id="New_Gradient_Swatch_1-5" data-name="New Gradient Swatch 1" x1="36.36" y1="50.78" x2="51.15" y2="50.78" xlink:href="#New_Gradient_Swatch_1"/>
    <linearGradient id="New_Gradient_Swatch_1-6" data-name="New Gradient Swatch 1" x1="133.41" y1="62.98" x2="139.51" y2="62.98" xlink:href="#New_Gradient_Swatch_1"/>
    <linearGradient id="New_Gradient_Swatch_1-7" data-name="New Gradient Swatch 1" x1="86.82" y1="29.9" x2="100.26" y2="29.9" xlink:href="#New_Gradient_Swatch_1"/>
    <linearGradient id="New_Gradient_Swatch_1-8" data-name="New Gradient Swatch 1" x1="-495.58" y1="1795.77" x2="-474.37" y2="1795.77" gradientTransform="translate(-1243.04 -1216.62) rotate(-60.76)" xlink:href="#New_Gradient_Swatch_1"/>
    <linearGradient id="New_Gradient_Swatch_1-9" data-name="New Gradient Swatch 1" x1="-488.45" y1="1795.54" x2="-478.36" y2="1795.54" gradientTransform="translate(-1243.04 -1216.62) rotate(-60.76)" xlink:href="#New_Gradient_Swatch_1"/>
    <linearGradient id="New_Gradient_Swatch_1-10" data-name="New Gradient Swatch 1" x1="5.86" y1="83.07" x2="158.45" y2="83.07" xlink:href="#New_Gradient_Swatch_1"/>
  </defs>
  <g>
    <path class="cls-1" d="M135.29,82.44c-.32,4.18-2,7.58-5.25,9.97-1.26.93-3.12,1.27-4.75,1.44-3.84.39-4.9,1.21-5.94,4.95-1.4,5.02-4.61,8.32-9.84,8.98-1.69.21-3.55-.79-5.31-1.33-.8-.24-1.5-.77-2.29-1.06-3.05-1.13-5.1.26-5.27,3.55-.27,5.2,2.1,7.19,7.06,5.62,4.63-1.47,8.27-.1,11.34,3.37,1.28,1.44,1.2,2.85-.01,4.36-3.66,4.54-9.61,5.48-14.1,3.57-1.65-.7-3.01-2.41-4.16-3.92-1.8-2.36-3.23-3.2-6.13-2.53-3.1.71-6.16,1.19-9.13-.33-3.51-1.8-6.26-4.14-6.06-8.64.06-1.37-.39-2.78-.7-4.16-.31-1.38-1.4-1.77-2.66-1.84-2.14-.12-5.51,1.87-5.99,3.94-.27,1.17.02,2.72.63,3.78.82,1.43,2.04,2.71,3.33,3.78,2.64,2.2,2.03,8.9.04,11.05-.44.48-1.42.65-2.14.63-6-.16-11.15-6.32-10.93-12.07.04-1.05.59-2.12,1.06-3.11,1.85-3.94,1.79-4.94-1.2-8.17-3.12-3.35-4.24-7.11-3.29-11.65.47-2.24,1.81-3.48,3.49-4.65,1.12-.78,2.3-1.49,3.3-2.4,1.63-1.48,1.82-3.59.15-4.95-1.45-1.18-3.29-2.15-5.1-2.53-1.98-.41-3.12,1.31-3.84,2.98-.46,1.06-.67,2.24-.98,3.36-.93,3.39-4.82,6.5-8.3,6.7-1.62.09-2.72-.5-3.45-1.97-2.93-5.87,1.42-16.13,8.88-15.87,3.38.12,5.27-1.73,6.09-5.09,1.06-4.34,3.85-6.9,7.87-8.42,2.29-.87,4.4-.74,6.52.56,1.2.74,2.54,1.31,3.88,1.75,1.75.58,3.13-.1,3.77-1.82.83-2.21.89-4.45-.35-6.56-.86-1.48-2.32-1.81-3.88-1.68-.96.08-1.93.32-2.85.6-3.95,1.2-8.24-.12-10.74-3.35-1.23-1.59-1.2-3.03.09-4.6,3.61-4.38,10.96-5.61,15.62-2.52.88.58,1.58,1.54,2.14,2.47,1.86,3.1,3.14,3.68,6.75,3.22,2.22-.28,4.55-.73,6.71-.36,4.96.85,7.7,4.21,8.13,9.18.11,1.23.17,2.48.5,3.65.62,2.18,2.28,3.08,4.36,2.23,1.41-.58,2.74-1.48,3.89-2.49,1.35-1.17,1.48-3.12.44-4.61-.85-1.22-1.85-2.34-2.86-3.44-2.74-2.98-3.29-7.12-1.52-10.79.65-1.35,1.62-1.75,2.96-1.69,5.98.28,11.51,6.94,10.59,12.87-.15.99-.67,1.96-1.16,2.85-1.52,2.76-1.38,4.85.88,7.06,2.55,2.51,4.17,5.23,4.21,9.03.04,4.1-1.64,6.79-5.07,8.69-.79.44-1.62.92-2.2,1.59-.52.59-.96,1.44-1.03,2.22-.22,2.36,2.11,4.52,5.25,5.08,2.4.42,4.04-.61,4.84-3.09.34-1.05.63-2.12.91-3.18.84-3.22,4.79-6.4,8.12-6.58,1.68-.09,2.97.39,3.51,2.1.44,1.41.78,2.85,1.16,4.28ZM107.6,84.21c-.69-1.22-1.06-2.04-1.59-2.74-.42-.56-.99-1.05-1.58-1.44-3.75-2.47-5.21-6.08-5.46-10.42-.21-3.66-2.03-4.69-5.51-3.69-2.46.71-5.01,1.45-7.53,1.46-1.9,0-3.81-1.11-5.71-1.72-3.39-1.09-4.85-.22-5.46,3.27-.11.64-.22,1.28-.32,1.92-.58,3.53-2.37,6.26-5.33,8.26-.7.47-1.35,1.02-1.95,1.61-1.61,1.58-1.73,2.89-.31,4.59.78.94,1.72,1.77,2.68,2.53,3.08,2.43,4.42,5.65,4.55,9.49.13,3.86,2.28,5.23,5.82,3.76,2.79-1.16,5.65-2.07,8.7-1.19,1.42.41,2.76,1.12,4.15,1.65,3.11,1.2,5.02.13,5.65-3.18.21-1.08.26-2.19.49-3.26.76-3.47,3.14-5.69,5.85-7.72,1.1-.83,1.9-2.08,2.86-3.17Z"/>
    <path class="cls-9" d="M39.9,105.21c-.52,1.88-.83,3.94-1.68,5.74-.73,1.55-1.98,1.55-2.8.07-.82-1.49-1.59-3.24-1.62-4.89-.05-2.66.4-5.36.9-7.99.13-.67,1.17-1.43,1.92-1.62.36-.09,1.29.99,1.5,1.68.69,2.2,1.16,4.47,1.78,7Z"/>
    <path class="cls-8" d="M84.09,141.8c-4.63-.82-8.32-2.64-11.02-6.12-.44-.57-.53-1.79-.22-2.45.2-.42,1.47-.57,2.2-.45,3.71.6,7,2.19,9.88,4.62.15.12.37.22.43.38.36.99,1.02,2.03.89,2.96-.07.48-1.54.77-2.17,1.05Z"/>
    <path class="cls-3" d="M124.65,121.52c-.69-.38-1.6-.62-2-1.21-.25-.35.08-1.41.47-1.86,2.85-3.3,6.15-5.99,10.61-6.74.67-.11,1.71.09,2.05.54.35.46.24,1.49-.02,2.13-1.02,2.53-7.7,7.19-11.11,7.14Z"/>
    <path class="cls-10" d="M38.96,55.63c-1.7.02-2.69-1.36-1.71-2.6,1.5-1.89,3.28-3.64,5.22-5.08,1.36-1.01,3.14-1.63,4.82-1.99.96-.2,2.11.46,3.18.74-.34.84-.51,1.83-1.06,2.5-2.49,3.03-5.58,5.21-9.46,6.14-.38.09-.75.21-.99.28Z"/>
    <path class="cls-4" d="M133.41,62.45c.37-2.15.53-3.83.99-5.43.2-.69.96-1.58,1.58-1.68.57-.1,1.61.59,1.9,1.19,2.06,4.16,2.13,8.47.4,12.76-.25.61-1.21,1.44-1.65,1.34-.64-.14-1.38-.96-1.59-1.64-.69-2.26-1.17-4.6-1.64-6.54Z"/>
    <path class="cls-2" d="M88.82,25.42c4.58.78,8.18,2.59,10.92,5.82.51.6.65,1.87.39,2.63-.14.39-1.59.61-2.36.46-3.91-.76-7.43-2.38-10.15-5.36-.56-.61-.97-1.82-.75-2.55.17-.55,1.44-.77,1.94-1.01Z"/>
  </g>
  <g id="dgXEtr">
    <g>
      <path class="cls-6" d="M84.29,85c1.2-1.95,3.8-1.95,5.05-.11,1.82,2.68.72,6.12-2.41,7.53-2.99,1.35-6.6.42-8.79-2.28-3.64-4.48-2.99-10.71,1.5-14.3,3.88-3.1,8.86-3.64,12.73-1.39,4.08,2.38,6.36,7.24,5.5,11.85-.16.84-.47,1.65-.91,2.44.06-.67.13-1.34.17-2.01.26-4.75-2.51-9.16-6.68-10.68-5.31-1.93-12.06,2.67-12.21,8.31-.07,2.81,2.04,5.81,4.69,6.67,2.05.66,4.83-.5,5.77-2.41.56-1.13.24-2.99-.72-3.81-1.22-1.04-2.44-.68-3.7.19Z"/>
      <path class="cls-5" d="M94.57,82.01c-5.38-5.89-12.77-3.72-13.33,2.35-.72-2.97,1.27-6.06,4.58-7.1,2.81-.89,7.52,1.67,8.75,4.75Z"/>
    </g>
  </g>
  <g id="_84rjus" data-name="84rjus">
    <path class="cls-7" d="M157.88,83.01c-3.39-37.87-30.95-73.82-82.54-70.45C42.22,15.48,11.68,50.09,11.68,83.29c0,50.47,32.11,72.42,70.09,75.86-10.02.57-19.77-.9-28.97-4.85-27.61-11.87-43.51-32.94-46.54-62.74C2.03,49.82,31.61,13.22,73.19,7.56c39.25-5.34,75.98,20.69,83.66,59.46,1.03,5.21,1.09,10.62,1.6,15.94-.19.02-.38.03-.56.05Z"/>
  </g>
</svg>