<?xml version="1.0" encoding="UTF-8"?>
<svg id="Layer_1" data-name="Layer 1" xmlns="http://www.w3.org/2000/svg" viewBox="0 0 495 496">
  <defs>
    <style>
      .cls-1 {
        stroke: #d9d9d9;
      }

      .cls-1, .cls-2 {
        fill: none;
        stroke-miterlimit: 10;
      }

      .cls-2 {
        stroke: #05a1d7;
      }
    </style>
  </defs>
  <circle class="cls-1" cx="244.24" cy="249.51" r="68.01"/>
  <g>
    <path class="cls-2" d="M287.74,248.77c-.28,3.72-1.78,6.74-4.67,8.86-1.12.82-2.77,1.13-4.22,1.28-3.41.35-4.36,1.08-5.28,4.4-1.24,4.47-4.1,7.4-8.75,7.99-1.5.19-3.16-.7-4.72-1.18-.71-.22-1.33-.69-2.03-.95-2.71-1.01-4.53.23-4.69,3.15-.24,4.63,1.87,6.39,6.28,4.99,4.12-1.31,7.35-.09,10.09,3,1.13,1.28,1.07,2.54-.01,3.87-3.26,4.03-8.55,4.87-12.54,3.17-1.47-.63-2.68-2.14-3.7-3.49-1.6-2.1-2.87-2.84-5.46-2.25-2.75.64-5.48,1.06-8.12-.29-3.12-1.6-5.56-3.68-5.39-7.68.05-1.22-.35-2.47-.62-3.7-.27-1.23-1.25-1.58-2.36-1.64-1.9-.1-4.9,1.66-5.33,3.51-.24,1.04.02,2.42.56,3.36.73,1.27,1.82,2.41,2.96,3.37,2.35,1.96,1.81,7.91.03,9.83-.39.42-1.26.58-1.9.56-5.34-.14-9.91-5.62-9.72-10.73.04-.94.53-1.89.94-2.77,1.64-3.5,1.59-4.4-1.07-7.26-2.77-2.98-3.77-6.32-2.93-10.36.42-1.99,1.61-3.1,3.1-4.13,1-.69,2.05-1.33,2.94-2.14,1.45-1.32,1.62-3.19.13-4.4-1.29-1.05-2.92-1.92-4.53-2.25-1.76-.36-2.77,1.17-3.41,2.65-.41.95-.6,1.99-.87,2.99-.83,3.01-4.28,5.78-7.38,5.95-1.44.08-2.42-.44-3.07-1.75-2.61-5.22,1.26-14.34,7.9-14.11,3.01.1,4.69-1.54,5.42-4.53.94-3.86,3.42-6.14,7-7.49,2.04-.77,3.91-.66,5.8.5,1.07.65,2.26,1.16,3.45,1.55,1.56.51,2.78-.09,3.35-1.62.74-1.96.79-3.96-.31-5.84-.77-1.31-2.06-1.61-3.45-1.5-.86.07-1.71.29-2.54.54-3.52,1.07-7.33-.11-9.55-2.98-1.09-1.41-1.07-2.7.08-4.09,3.21-3.89,9.74-4.99,13.89-2.24.78.52,1.41,1.37,1.9,2.19,1.65,2.75,2.79,3.28,6.01,2.87,1.98-.25,4.05-.65,5.96-.32,4.41.76,6.85,3.74,7.23,8.17.1,1.09.15,2.21.45,3.25.55,1.94,2.02,2.74,3.88,1.98,1.25-.51,2.44-1.32,3.46-2.21,1.2-1.04,1.32-2.78.39-4.1-.76-1.08-1.64-2.08-2.54-3.06-2.44-2.65-2.93-6.33-1.36-9.6.58-1.2,1.44-1.56,2.64-1.5,5.32.25,10.24,6.17,9.42,11.45-.14.88-.59,1.74-1.03,2.54-1.35,2.46-1.22,4.31.78,6.28,2.27,2.23,3.71,4.65,3.74,8.03.04,3.65-1.46,6.04-4.51,7.72-.7.39-1.44.82-1.95,1.41-.46.53-.85,1.28-.91,1.97-.19,2.1,1.87,4.02,4.67,4.51,2.14.38,3.59-.54,4.3-2.75.3-.93.56-1.88.81-2.83.75-2.86,4.26-5.69,7.22-5.85,1.49-.08,2.64.35,3.12,1.87.39,1.25.69,2.53,1.04,3.8ZM263.11,250.34c-.62-1.08-.95-1.81-1.42-2.43-.38-.5-.88-.94-1.4-1.28-3.33-2.2-4.64-5.41-4.86-9.27-.19-3.25-1.8-4.17-4.9-3.28-2.18.63-4.46,1.29-6.7,1.3-1.69,0-3.39-.99-5.08-1.53-3.01-.97-4.31-.19-4.86,2.91-.1.57-.19,1.14-.29,1.71-.51,3.14-2.11,5.57-4.74,7.34-.62.42-1.2.91-1.74,1.43-1.43,1.4-1.54,2.57-.27,4.08.7.83,1.53,1.57,2.38,2.25,2.74,2.16,3.93,5.02,4.04,8.44.11,3.43,2.03,4.65,5.17,3.34,2.49-1.03,5.03-1.84,7.74-1.06,1.27.37,2.45.99,3.69,1.47,2.77,1.06,4.47.11,5.03-2.83.18-.96.23-1.95.44-2.9.68-3.08,2.79-5.06,5.2-6.87.98-.74,1.69-1.85,2.55-2.82Z"/>
    <path class="cls-2" d="M202.91,269.01c-.47,1.67-.74,3.5-1.5,5.11-.64,1.37-1.76,1.38-2.49.06-.73-1.32-1.41-2.88-1.44-4.35-.05-2.37.36-4.77.8-7.11.11-.6,1.04-1.27,1.71-1.44.32-.08,1.15.88,1.34,1.5.61,1.96,1.03,3.98,1.58,6.23Z"/>
    <path class="cls-2" d="M242.21,301.56c-4.12-.73-7.4-2.35-9.8-5.44-.39-.51-.47-1.6-.2-2.18.18-.37,1.31-.51,1.95-.4,3.3.54,6.23,1.95,8.79,4.11.13.11.33.2.38.34.32.88.91,1.81.79,2.64-.06.43-1.37.69-1.93.94Z"/>
    <path class="cls-2" d="M278.27,283.52c-.62-.34-1.42-.56-1.78-1.08-.22-.32.07-1.25.42-1.66,2.54-2.93,5.47-5.33,9.44-5.99.59-.1,1.52.08,1.83.48.31.41.21,1.33-.02,1.9-.9,2.25-6.84,6.4-9.88,6.35Z"/>
    <path class="cls-2" d="M202.07,224.92c-1.51.01-2.39-1.21-1.52-2.31,1.34-1.68,2.92-3.24,4.64-4.51,1.21-.9,2.79-1.45,4.28-1.77.86-.18,1.88.41,2.82.66-.31.75-.45,1.63-.95,2.23-2.21,2.7-4.96,4.63-8.41,5.46-.33.08-.66.19-.88.25Z"/>
    <path class="cls-2" d="M286.07,230.99c.33-1.91.47-3.41.88-4.83.18-.61.85-1.4,1.4-1.49.51-.09,1.43.52,1.69,1.06,1.83,3.7,1.89,7.53.36,11.35-.22.54-1.07,1.28-1.47,1.19-.56-.13-1.23-.86-1.41-1.46-.62-2.01-1.04-4.09-1.45-5.81Z"/>
    <path class="cls-2" d="M246.41,198.06c4.08.69,7.27,2.3,9.72,5.18.45.54.58,1.66.34,2.34-.12.35-1.41.54-2.1.41-3.47-.67-6.61-2.12-9.03-4.76-.5-.55-.86-1.62-.67-2.27.15-.49,1.28-.68,1.73-.89Z"/>
  </g>
</svg>