<?xml version="1.0" encoding="UTF-8"?>
<svg id="Layer_1" data-name="Layer 1" xmlns="http://www.w3.org/2000/svg" viewBox="0 0 495 496">
  <defs>
    <style>
      .cls-1 {
        stroke: #d9d9d9;
      }

      .cls-1, .cls-2 {
        fill: none;
        stroke-miterlimit: 10;
      }

      .cls-2 {
        stroke: #a1d7e5;
      }
    </style>
  </defs>
  <circle class="cls-1" cx="239.06" cy="249.97" r="68.01"/>
  <g>
    <path class="cls-2" d="M276.89,249.03c-.24,3.23-1.55,5.86-4.06,7.71-.98.72-2.41.98-3.67,1.11-2.97.3-3.79.94-4.59,3.83-1.08,3.88-3.56,6.43-7.61,6.94-1.31.17-2.75-.61-4.1-1.03-.62-.19-1.16-.6-1.77-.82-2.36-.88-3.94.2-4.08,2.74-.21,4.02,1.63,5.56,5.46,4.34,3.58-1.14,6.39-.08,8.77,2.61.99,1.11.93,2.21-.01,3.37-2.83,3.51-7.43,4.24-10.9,2.76-1.28-.54-2.33-1.86-3.22-3.03-1.39-1.83-2.5-2.47-4.74-1.95-2.39.55-4.76.92-7.06-.25-2.72-1.39-4.84-3.2-4.69-6.68.05-1.06-.3-2.15-.54-3.21-.24-1.07-1.08-1.37-2.06-1.43-1.65-.09-4.26,1.44-4.63,3.05-.21.9.02,2.1.48,2.92.63,1.11,1.58,2.1,2.57,2.93,2.04,1.7,1.57,6.88.03,8.54-.34.37-1.1.51-1.65.49-4.64-.12-8.62-4.89-8.45-9.33.03-.81.46-1.64.82-2.41,1.43-3.04,1.38-3.82-.93-6.32-2.41-2.59-3.28-5.5-2.54-9.01.36-1.73,1.4-2.69,2.7-3.59.87-.6,1.78-1.15,2.56-1.86,1.26-1.15,1.41-2.78.12-3.83-1.12-.91-2.54-1.67-3.94-1.95-1.53-.32-2.41,1.01-2.97,2.3-.36.82-.52,1.73-.76,2.6-.72,2.62-3.72,5.02-6.42,5.18-1.25.07-2.1-.39-2.67-1.53-2.27-4.54,1.1-12.47,6.87-12.27,2.62.09,4.08-1.34,4.71-3.94.82-3.35,2.97-5.33,6.08-6.51,1.77-.67,3.4-.57,5.04.43.93.57,1.96,1.01,3,1.35,1.35.44,2.42-.08,2.92-1.41.64-1.71.68-3.44-.27-5.07-.67-1.14-1.79-1.4-3-1.3-.74.06-1.49.25-2.21.47-3.06.93-6.37-.09-8.31-2.59-.95-1.23-.93-2.34.07-3.55,2.79-3.38,8.47-4.34,12.08-1.95.68.45,1.22,1.19,1.65,1.91,1.44,2.39,2.43,2.85,5.22,2.49,1.72-.22,3.52-.56,5.19-.28,3.84.66,5.95,3.26,6.29,7.1.08.95.13,1.92.39,2.83.48,1.69,1.76,2.38,3.37,1.72,1.09-.45,2.12-1.15,3.01-1.92,1.04-.91,1.15-2.42.34-3.56-.66-.94-1.43-1.81-2.21-2.66-2.12-2.31-2.55-5.5-1.18-8.34.5-1.04,1.25-1.35,2.29-1.3,4.63.21,8.9,5.37,8.19,9.95-.12.77-.51,1.51-.9,2.21-1.18,2.14-1.06,3.75.68,5.46,1.97,1.94,3.22,4.04,3.25,6.98.03,3.17-1.27,5.25-3.92,6.72-.61.34-1.25.71-1.7,1.23-.4.46-.74,1.12-.79,1.71-.17,1.82,1.63,3.5,4.06,3.92,1.86.33,3.12-.47,3.74-2.39.26-.81.49-1.64.71-2.46.65-2.49,3.7-4.95,6.28-5.09,1.3-.07,2.3.3,2.71,1.63.34,1.09.6,2.2.9,3.31ZM255.48,250.4c-.54-.94-.82-1.57-1.23-2.12-.33-.43-.76-.81-1.22-1.11-2.9-1.91-4.03-4.7-4.22-8.06-.16-2.83-1.57-3.63-4.26-2.85-1.9.55-3.88,1.12-5.82,1.13-1.47,0-2.94-.86-4.42-1.33-2.62-.84-3.75-.17-4.22,2.53-.09.49-.17.99-.25,1.48-.45,2.73-1.83,4.84-4.12,6.38-.54.36-1.04.79-1.51,1.24-1.25,1.22-1.34,2.23-.24,3.55.61.72,1.33,1.37,2.07,1.95,2.38,1.88,3.42,4.37,3.52,7.34.1,2.98,1.77,4.04,4.5,2.91,2.16-.9,4.37-1.6,6.73-.92,1.1.32,2.13.86,3.21,1.28,2.4.93,3.88.1,4.37-2.46.16-.84.2-1.69.38-2.52.59-2.68,2.43-4.4,4.53-5.97.85-.64,1.47-1.6,2.21-2.45Z"/>
    <path class="cls-2" d="M203.14,266.64c-.4,1.45-.64,3.04-1.3,4.44-.56,1.2-1.53,1.2-2.17.05-.64-1.15-1.23-2.5-1.25-3.78-.04-2.06.31-4.14.7-6.18.1-.52.9-1.11,1.48-1.25.28-.07,1,.77,1.16,1.3.53,1.7.89,3.46,1.38,5.42Z"/>
    <path class="cls-2" d="M237.31,294.93c-3.58-.64-6.44-2.04-8.52-4.73-.34-.44-.41-1.39-.17-1.89.15-.32,1.14-.44,1.7-.35,2.87.47,5.41,1.69,7.64,3.57.11.1.29.17.33.29.28.76.79,1.57.69,2.29-.05.37-1.19.6-1.67.82Z"/>
    <path class="cls-2" d="M268.67,279.25c-.54-.3-1.23-.48-1.55-.93-.19-.27.06-1.09.36-1.44,2.21-2.55,4.75-4.63,8.21-5.21.52-.09,1.32.07,1.59.42.27.35.18,1.15-.02,1.65-.79,1.96-5.95,5.56-8.59,5.52Z"/>
    <path class="cls-2" d="M202.41,228.3c-1.32.01-2.08-1.05-1.32-2.01,1.16-1.46,2.54-2.81,4.04-3.92,1.05-.78,2.42-1.26,3.73-1.54.74-.16,1.63.36,2.46.57-.27.65-.4,1.42-.82,1.94-1.93,2.34-4.31,4.03-7.31,4.75-.29.07-.58.16-.77.21Z"/>
    <path class="cls-2" d="M275.44,233.58c.28-1.66.41-2.96.76-4.2.15-.53.74-1.22,1.22-1.3.44-.07,1.24.45,1.47.92,1.59,3.22,1.65,6.55.31,9.86-.19.47-.93,1.11-1.28,1.04-.49-.11-1.07-.74-1.23-1.27-.54-1.75-.9-3.55-1.26-5.05Z"/>
    <path class="cls-2" d="M240.96,204.94c3.54.6,6.32,2,8.45,4.5.4.47.5,1.45.3,2.04-.1.3-1.23.47-1.82.35-3.02-.58-5.75-1.84-7.85-4.14-.43-.47-.75-1.41-.58-1.97.13-.43,1.11-.59,1.5-.78Z"/>
  </g>
</svg>