<?xml version="1.0" encoding="UTF-8"?>
<svg id="Layer_1" data-name="Layer 1" xmlns="http://www.w3.org/2000/svg" xmlns:xlink="http://www.w3.org/1999/xlink" viewBox="0 0 495 496">
  <defs>
    <style>
      .cls-1 {
        fill: url(#linear-gradient);
      }

      .cls-1, .cls-2, .cls-3, .cls-4, .cls-5, .cls-6, .cls-7 {
        stroke-width: 0px;
      }

      .cls-2 {
        fill: url(#linear-gradient-4);
      }

      .cls-3 {
        fill: url(#linear-gradient-2);
      }

      .cls-4 {
        fill: url(#linear-gradient-3);
      }

      .cls-5 {
        fill: url(#linear-gradient-7);
      }

      .cls-6 {
        fill: url(#linear-gradient-5);
      }

      .cls-7 {
        fill: url(#linear-gradient-6);
      }
    </style>
    <linearGradient id="linear-gradient" x1="157.69" y1="248.33" x2="340.09" y2="248.33" gradientUnits="userSpaceOnUse">
      <stop offset="0" stop-color="#f2f2f2"/>
      <stop offset="1" stop-color="#006e8e"/>
    </linearGradient>
    <linearGradient id="linear-gradient-2" x1="149.9" y1="287.2" x2="161.35" y2="287.2" xlink:href="#linear-gradient"/>
    <linearGradient id="linear-gradient-3" x1="222.75" y1="348.96" x2="248.24" y2="348.96" xlink:href="#linear-gradient"/>
    <linearGradient id="linear-gradient-4" x1="316.23" y1="310.21" x2="341.42" y2="310.21" xlink:href="#linear-gradient"/>
    <linearGradient id="linear-gradient-5" x1="155.65" y1="186.87" x2="181.15" y2="186.87" xlink:href="#linear-gradient"/>
    <linearGradient id="linear-gradient-6" x1="336.57" y1="209.75" x2="348" y2="209.75" xlink:href="#linear-gradient"/>
    <linearGradient id="linear-gradient-7" x1="249.26" y1="147.75" x2="274.46" y2="147.75" xlink:href="#linear-gradient"/>
  </defs>
  <path class="cls-1" d="M340.09,246.2c-.59,7.83-3.75,14.21-9.84,18.68-2.37,1.74-5.84,2.38-8.89,2.69-7.19.73-9.18,2.27-11.13,9.27-2.62,9.41-8.63,15.59-18.43,16.83-3.17.4-6.66-1.48-9.95-2.49-1.49-.46-2.81-1.45-4.28-1.99-5.71-2.12-9.55.5-9.88,6.65-.51,9.75,3.94,13.47,13.24,10.52,8.68-2.75,15.49-.19,21.25,6.32,2.39,2.7,2.25,5.35-.03,8.16-6.87,8.5-18.01,10.26-26.42,6.69-3.1-1.32-5.64-4.52-7.8-7.35-3.37-4.43-6.06-5.99-11.5-4.74-5.8,1.34-11.54,2.24-17.1-.61-6.58-3.37-11.72-7.75-11.36-16.19.11-2.57-.74-5.21-1.31-7.79-.58-2.59-2.63-3.32-4.98-3.45-4-.22-10.32,3.5-11.23,7.39-.51,2.19.04,5.1,1.18,7.09,1.53,2.69,3.83,5.09,6.23,7.09,4.94,4.12,3.81,16.68.07,20.7-.83.89-2.66,1.23-4.01,1.19-11.25-.3-20.89-11.84-20.47-22.61.08-1.97,1.11-3.98,1.98-5.83,3.47-7.37,3.36-9.27-2.26-15.3-5.84-6.28-7.94-13.32-6.16-21.83.88-4.2,3.39-6.53,6.54-8.71,2.1-1.46,4.32-2.8,6.19-4.51,3.05-2.78,3.41-6.73.28-9.28-2.71-2.21-6.16-4.04-9.55-4.74-3.71-.77-5.84,2.46-7.19,5.58-.86,1.99-1.26,4.19-1.84,6.3-1.74,6.35-9.03,12.17-15.55,12.55-3.03.18-5.09-.94-6.47-3.7-5.49-11,2.66-30.22,16.64-29.73,6.34.22,9.88-3.24,11.41-9.54,1.98-8.13,7.21-12.93,14.74-15.78,4.29-1.62,8.24-1.39,12.22,1.05,2.25,1.38,4.76,2.45,7.28,3.28,3.28,1.08,5.86-.19,7.07-3.42,1.55-4.13,1.66-8.34-.65-12.3-1.62-2.77-4.35-3.4-7.26-3.15-1.8.15-3.61.6-5.35,1.13-7.41,2.24-15.44-.23-20.13-6.27-2.3-2.97-2.25-5.68.17-8.61,6.76-8.2,20.53-10.52,29.27-4.73,1.64,1.09,2.97,2.89,4.01,4.62,3.48,5.8,5.88,6.9,12.65,6.04,4.17-.53,8.53-1.36,12.57-.67,9.3,1.6,14.43,7.89,15.24,17.21.2,2.3.32,4.65.94,6.85,1.16,4.09,4.27,5.78,8.17,4.18,2.64-1.08,5.13-2.78,7.3-4.66,2.53-2.2,2.78-5.86.83-8.64-1.6-2.28-3.46-4.39-5.35-6.44-5.14-5.59-6.17-13.34-2.86-20.22,1.21-2.52,3.03-3.28,5.55-3.16,11.21.52,21.57,13.01,19.84,24.12-.29,1.85-1.25,3.67-2.17,5.35-2.85,5.18-2.58,9.08,1.64,13.24,4.77,4.71,7.81,9.79,7.89,16.92.08,7.69-3.07,12.73-9.5,16.28-1.48.82-3.03,1.73-4.12,2.97-.97,1.11-1.79,2.7-1.92,4.15-.4,4.42,3.95,8.47,9.83,9.51,4.51.79,7.56-1.14,9.06-5.8.63-1.97,1.18-3.96,1.71-5.97,1.58-6.03,8.97-11.99,15.22-12.34,3.14-.18,5.57.74,6.57,3.94.82,2.64,1.46,5.34,2.18,8.01ZM288.2,249.51c-1.3-2.28-1.99-3.81-2.98-5.13-.79-1.05-1.85-1.97-2.95-2.7-7.03-4.64-9.77-11.39-10.23-19.53-.39-6.85-3.8-8.8-10.32-6.91-4.6,1.33-9.39,2.71-14.11,2.73-3.56.02-7.13-2.08-10.7-3.23-6.34-2.05-9.08-.4-10.24,6.14-.21,1.2-.41,2.4-.6,3.6-1.08,6.61-4.45,11.73-9.99,15.47-1.3.88-2.53,1.91-3.66,3.01-3.02,2.96-3.25,5.41-.58,8.6,1.47,1.75,3.22,3.31,5.02,4.73,5.77,4.55,8.29,10.58,8.52,17.78.24,7.23,4.28,9.8,10.9,7.04,5.24-2.18,10.59-3.88,16.3-2.22,2.67.77,5.17,2.09,7.77,3.1,5.83,2.24,9.41.23,10.59-5.95.39-2.02.49-4.11.93-6.12,1.42-6.5,5.89-10.65,10.97-14.47,2.07-1.55,3.55-3.89,5.37-5.94Z"/>
  <path class="cls-3" d="M161.35,288.86c-.98,3.52-1.56,7.37-3.15,10.76-1.36,2.9-3.71,2.91-5.25.13-1.54-2.79-2.98-6.07-3.04-9.16-.1-4.99.75-10.04,1.69-14.97.24-1.26,2.19-2.68,3.6-3.04.67-.17,2.42,1.86,2.82,3.15,1.28,4.13,2.17,8.38,3.34,13.13Z"/>
  <path class="cls-4" d="M244.15,357.44c-8.67-1.55-15.6-4.95-20.64-11.46-.83-1.07-1-3.36-.41-4.58.38-.78,2.76-1.07,4.12-.84,6.96,1.13,13.12,4.11,18.51,8.65.28.23.7.41.81.71.68,1.85,1.91,3.81,1.67,5.55-.12.9-2.89,1.45-4.06,1.98Z"/>
  <path class="cls-2" d="M320.15,319.42c-1.3-.72-2.99-1.17-3.75-2.27-.46-.67.14-2.64.88-3.49,5.35-6.18,11.52-11.23,19.89-12.62,1.25-.21,3.21.16,3.85,1.01.65.86.44,2.79-.04,4-1.91,4.74-14.42,13.48-20.82,13.37Z"/>
  <path class="cls-6" d="M159.58,195.96c-3.19.03-5.04-2.55-3.2-4.87,2.82-3.54,6.15-6.82,9.79-9.51,2.55-1.89,5.88-3.05,9.03-3.72,1.8-.38,3.96.87,5.95,1.38-.64,1.58-.96,3.43-1.99,4.69-4.67,5.68-10.46,9.76-17.72,11.51-.71.17-1.4.39-1.86.52Z"/>
  <path class="cls-7" d="M336.57,208.74c.69-4.02.99-7.18,1.85-10.17.37-1.29,1.8-2.95,2.96-3.15,1.07-.18,3.01,1.1,3.57,2.23,3.86,7.8,3.99,15.87.75,23.91-.46,1.14-2.26,2.7-3.1,2.51-1.19-.27-2.58-1.8-2.97-3.08-1.3-4.24-2.18-8.61-3.06-12.25Z"/>
  <path class="cls-5" d="M253.02,139.35c8.59,1.45,15.33,4.85,20.47,10.91.96,1.13,1.22,3.5.73,4.93-.25.73-2.97,1.14-4.41.86-7.32-1.42-13.92-4.46-19.02-10.04-1.05-1.15-1.81-3.42-1.4-4.77.31-1.03,2.69-1.44,3.64-1.89Z"/>
</svg>